SplineFontDB: 3.0
FontName: RussoOne-Regular
FullName: Russo One
FamilyName: Russo One
Weight: Book
Copyright: Copyright (c) 2011-2012, Jovanny Lemonad (jovanny.ru), with Reserved Font Name "Russo"
Version: 1.001
ItalicAngle: 0
UnderlinePosition: -50
UnderlineWidth: 50
Ascent: 800
Descent: 200
sfntRevision: 0x00010000
LayerCount: 2
Layer: 0 1 "Back"  1
Layer: 1 1 "Fore"  0
XUID: [1021 723 548469661 10186172]
FSType: 4
OS2Version: 3
OS2_WeightWidthSlopeOnly: 0
OS2_UseTypoMetrics: 1
CreationTime: 1333285375
ModificationTime: 1333378873
PfmFamily: 17
TTFWeight: 400
TTFWidth: 5
LineGap: 0
VLineGap: 0
Panose: 2 0 5 3 5 0 0 2 0 4
OS2TypoAscent: 126
OS2TypoAOffset: 1
OS2TypoDescent: -79
OS2TypoDOffset: 1
OS2TypoLinegap: 0
OS2WinAscent: 0
OS2WinAOffset: 1
OS2WinDescent: 0
OS2WinDOffset: 1
HheadAscent: 0
HheadAOffset: 1
HheadDescent: 0
HheadDOffset: 1
OS2SubXSize: 700
OS2SubYSize: 650
OS2SubXOff: 0
OS2SubYOff: 140
OS2SupXSize: 700
OS2SupYSize: 650
OS2SupXOff: 0
OS2SupYOff: 477
OS2StrikeYSize: 50
OS2StrikeYPos: 250
OS2Vendor: 'PYRS'
OS2CodePages: 00000097.00000000
OS2UnicodeRanges: 800002af.0000000b.00000000.00000000
Lookup: 258 0 0 "'kern' Horizontal Kerning in Latin lookup 0"  {"'kern' Horizontal Kerning in Latin lookup 0 subtable"  } ['kern' ('latn' <'dflt' > ) ]
DEI: 91125
TtTable: prep
PUSHW_1
 511
SCANCTRL
PUSHB_1
 4
SCANTYPE
EndTTInstrs
ShortTable: maxp 16
  1
  0
  413
  88
  7
  69
  5
  2
  0
  1
  1
  0
  64
  0
  3
  1
EndShort
LangName: 1033 "" "" "" "JovannyLemonad: Russo One: 2012" "" "Version 1.001" "" "Russo is a trademark of Jovanny Lemonad." "Jovanny Lemonad" "Jovanny lemonad" "Copyright (c) 2012 by Jovanny Lemonad. All rights reserved." "" "http://jovanny.ru" "This Font Software is licensed under the SIL Open Font License, Version 1.1. This license is available with a FAQ at: http://scripts.sil.org/OFL" "http://scripts.sil.org/OFL" "" "" "" "Russo One" 
GaspTable: 1 65535 15 1
Encoding: UnicodeBmp
UnicodeInterp: none
NameList: Adobe Glyph List

StartChar: exclam
Encoding: 33 33 4
Width: 280
GlyphClass: 2
Flags: W
LayerCount: 2
Fore
SplineSet
50 150 m 1,0,-1
 230 150 l 1,1,-1
 230 0 l 1,2,-1
 50 0 l 1,3,-1
 50 150 l 1,0,-1
70 210 m 1,4,-1
 50 420 l 1,5,-1
 50 700 l 1,6,-1
 230 700 l 1,7,-1
 230 420 l 1,8,-1
 210 210 l 1,9,-1
 70 210 l 1,4,-1
EndSplineSet
EndChar

StartChar: quotedbl
Encoding: 34 34 5
Width: 400
GlyphClass: 2
Flags: W
LayerCount: 2
Fore
SplineSet
50 450 m 1,0,-1
 30 610 l 1,1,-1
 30 700 l 1,2,-1
 180 700 l 1,3,-1
 180 610 l 1,4,-1
 160 450 l 1,5,-1
 50 450 l 1,0,-1
240 450 m 1,6,-1
 220 610 l 1,7,-1
 220 700 l 1,8,-1
 370 700 l 1,9,-1
 370 610 l 1,10,-1
 350 450 l 1,11,-1
 240 450 l 1,6,-1
EndSplineSet
EndChar

StartChar: numbersign
Encoding: 35 35 6
Width: 730
GlyphClass: 2
Flags: W
LayerCount: 2
Fore
SplineSet
70 0 m 1,0,-1
 102 150 l 1,1,-1
 10 150 l 1,2,-1
 10 280 l 1,3,-1
 130 280 l 1,4,-1
 160 420 l 1,5,-1
 50 420 l 1,6,-1
 50 550 l 1,7,-1
 188 550 l 1,8,-1
 220 700 l 1,9,-1
 380 700 l 1,10,-1
 348 550 l 1,11,-1
 468 550 l 1,12,-1
 500 700 l 1,13,-1
 660 700 l 1,14,-1
 628 550 l 1,15,-1
 720 550 l 1,16,-1
 720 420 l 1,17,-1
 600 420 l 1,18,-1
 570 280 l 1,19,-1
 680 280 l 1,20,-1
 680 150 l 1,21,-1
 542 150 l 1,22,-1
 510 0 l 1,23,-1
 350 0 l 1,24,-1
 382 150 l 1,25,-1
 262 150 l 1,26,-1
 230 0 l 1,27,-1
 70 0 l 1,0,-1
290 280 m 1,28,-1
 410 280 l 1,29,-1
 440 420 l 1,30,-1
 320 420 l 1,31,-1
 290 280 l 1,28,-1
EndSplineSet
EndChar

StartChar: dollar
Encoding: 36 36 7
Width: 629
GlyphClass: 2
Flags: W
LayerCount: 2
Fore
SplineSet
39 145 m 1,0,1
 271 130 271 130 369 130 c 0,2,3
 392 130 392 130 405.5 143.5 c 128,-1,4
 419 157 419 157 419 180 c 2,5,-1
 419 280 l 1,6,-1
 230 280 l 2,7,8
 125 280 125 280 77.5 327.5 c 128,-1,9
 30 375 30 375 30 480 c 2,10,-1
 30 500 l 2,11,12
 30 605 30 605 77.5 652.5 c 128,-1,13
 125 700 125 700 230 700 c 2,14,-1
 250 700 l 1,15,-1
 240 790 l 1,16,-1
 390 790 l 1,17,-1
 380 700 l 1,18,-1
 540 700 l 1,19,-1
 540 560 l 1,20,-1
 270 560 l 2,21,22
 210 560 210 560 210 500 c 2,23,-1
 210 480 l 2,24,25
 210 420 210 420 270 420 c 2,26,-1
 409 420 l 2,27,28
 507 420 507 420 553 374 c 128,-1,29
 599 328 599 328 599 230 c 2,30,-1
 599 180 l 2,31,32
 599 82 599 82 553.5 36 c 128,-1,33
 508 -10 508 -10 410 -10 c 2,34,-1
 382 -10 l 1,35,-1
 390 -100 l 1,36,-1
 240 -100 l 1,37,-1
 250 -5 l 1,38,39
 134 1 134 1 39 10 c 1,40,-1
 39 145 l 1,0,1
EndSplineSet
EndChar

StartChar: percent
Encoding: 37 37 8
Width: 860
GlyphClass: 2
Flags: W
LayerCount: 2
Fore
SplineSet
150 0 m 1,0,-1
 550 700 l 1,1,-1
 700 700 l 1,2,-1
 310 0 l 1,3,-1
 150 0 l 1,0,-1
360 465 m 2,4,5
 360 405 360 405 327.5 372.5 c 128,-1,6
 295 340 295 340 235 340 c 2,7,-1
 145 340 l 2,8,9
 85 340 85 340 52.5 372.5 c 128,-1,10
 20 405 20 405 20 465 c 2,11,-1
 20 585 l 2,12,13
 20 645 20 645 52.5 677.5 c 128,-1,14
 85 710 85 710 145 710 c 2,15,-1
 235 710 l 2,16,17
 295 710 295 710 327.5 677.5 c 128,-1,18
 360 645 360 645 360 585 c 2,19,-1
 360 465 l 2,4,5
240 585 m 2,20,21
 240 620 240 620 205 620 c 2,22,-1
 175 620 l 2,23,24
 140 620 140 620 140 585 c 2,25,-1
 140 465 l 2,26,27
 140 430 140 430 175 430 c 2,28,-1
 205 430 l 2,29,30
 240 430 240 430 240 465 c 2,31,-1
 240 585 l 2,20,21
840 115 m 2,32,33
 840 55 840 55 807.5 22.5 c 128,-1,34
 775 -10 775 -10 715 -10 c 2,35,-1
 625 -10 l 2,36,37
 565 -10 565 -10 532.5 22.5 c 128,-1,38
 500 55 500 55 500 115 c 2,39,-1
 500 235 l 2,40,41
 500 295 500 295 532.5 327.5 c 128,-1,42
 565 360 565 360 625 360 c 2,43,-1
 715 360 l 2,44,45
 775 360 775 360 807.5 327.5 c 128,-1,46
 840 295 840 295 840 235 c 2,47,-1
 840 115 l 2,32,33
720 235 m 2,48,49
 720 270 720 270 685 270 c 2,50,-1
 655 270 l 2,51,52
 620 270 620 270 620 235 c 2,53,-1
 620 115 l 2,54,55
 620 80 620 80 655 80 c 2,56,-1
 685 80 l 2,57,58
 720 80 720 80 720 115 c 2,59,-1
 720 235 l 2,48,49
EndSplineSet
EndChar

StartChar: ampersand
Encoding: 38 38 9
Width: 720
GlyphClass: 2
Flags: W
LayerCount: 2
Fore
SplineSet
630 10 m 1,0,1
 403 -10 403 -10 220 -10 c 0,2,3
 122 -10 122 -10 76 36 c 128,-1,4
 30 82 30 82 30 180 c 0,5,6
 30 256 30 256 68 306 c 0,7,8
 98 346 98 346 150 360 c 1,9,10
 105 375 105 375 77.5 412.5 c 128,-1,11
 50 450 50 450 50 510 c 2,12,-1
 50 520 l 2,13,14
 50 611 50 611 96 655.5 c 128,-1,15
 142 700 142 700 240 700 c 2,16,-1
 560 700 l 1,17,-1
 560 560 l 1,18,-1
 290 560 l 2,19,20
 230 560 230 560 230 500 c 2,21,-1
 230 470 l 2,22,23
 230 410 230 410 290 410 c 2,24,-1
 450 410 l 1,25,-1
 465 490 l 1,26,-1
 630 490 l 1,27,-1
 630 410 l 1,28,-1
 710 410 l 1,29,-1
 710 270 l 1,30,-1
 630 270 l 1,31,-1
 630 10 l 1,0,1
260 130 m 0,32,33
 370 130 370 130 450 135 c 1,34,-1
 450 270 l 1,35,-1
 270 270 l 2,36,37
 210 270 210 270 210 210 c 2,38,-1
 210 180 l 2,39,40
 210 157 210 157 223.5 143.5 c 128,-1,41
 237 130 237 130 260 130 c 0,32,33
EndSplineSet
EndChar

StartChar: quotesingle
Encoding: 39 39 10
Width: 210
GlyphClass: 2
Flags: W
LayerCount: 2
Fore
SplineSet
50 450 m 1,0,-1
 30 610 l 1,1,-1
 30 700 l 1,2,-1
 180 700 l 1,3,-1
 180 610 l 1,4,-1
 160 450 l 1,5,-1
 50 450 l 1,0,-1
EndSplineSet
EndChar

StartChar: parenleft
Encoding: 40 40 11
Width: 325
GlyphClass: 2
Flags: W
LayerCount: 2
Fore
SplineSet
210 295 m 256,0,1
 210 31 210 31 335 -160 c 1,2,-1
 250 -230 l 1,3,4
 144 -132 144 -132 87 4 c 128,-1,5
 30 140 30 140 30 295 c 256,6,7
 30 450 30 450 87 586 c 128,-1,8
 144 722 144 722 250 820 c 1,9,-1
 335 750 l 1,10,11
 210 559 210 559 210 295 c 256,0,1
EndSplineSet
EndChar

StartChar: parenright
Encoding: 41 41 12
Width: 325
GlyphClass: 2
Flags: W
LayerCount: 2
Fore
SplineSet
115 295 m 256,0,1
 115 559 115 559 -10 750 c 1,2,-1
 75 820 l 1,3,4
 181 722 181 722 238 586 c 128,-1,5
 295 450 295 450 295 295 c 256,6,7
 295 140 295 140 238 4 c 128,-1,8
 181 -132 181 -132 75 -230 c 1,9,-1
 -10 -160 l 1,10,11
 115 31 115 31 115 295 c 256,0,1
EndSplineSet
EndChar

StartChar: asterisk
Encoding: 42 42 13
Width: 495
GlyphClass: 2
Flags: W
LayerCount: 2
Fore
SplineSet
310 365 m 1,0,-1
 310 240 l 1,1,-1
 185 240 l 1,2,-1
 185 365 l 1,3,-1
 70 300 l 1,4,-1
 10 400 l 1,5,-1
 130 470 l 1,6,-1
 10 540 l 1,7,-1
 70 640 l 1,8,-1
 185 575 l 1,9,-1
 185 700 l 1,10,-1
 310 700 l 1,11,-1
 310 575 l 1,12,-1
 425 640 l 1,13,-1
 485 540 l 1,14,-1
 365 470 l 1,15,-1
 485 400 l 1,16,-1
 425 300 l 1,17,-1
 310 365 l 1,0,-1
EndSplineSet
EndChar

StartChar: plus
Encoding: 43 43 14
Width: 540
GlyphClass: 2
Flags: W
LayerCount: 2
Fore
SplineSet
340 420 m 1,0,-1
 510 420 l 1,1,-1
 510 280 l 1,2,-1
 340 280 l 1,3,-1
 340 110 l 1,4,-1
 200 110 l 1,5,-1
 200 280 l 1,6,-1
 30 280 l 1,7,-1
 30 420 l 1,8,-1
 200 420 l 1,9,-1
 200 590 l 1,10,-1
 340 590 l 1,11,-1
 340 420 l 1,0,-1
EndSplineSet
EndChar

StartChar: comma
Encoding: 44 44 15
Width: 240
GlyphClass: 2
Flags: W
LayerCount: 2
Fore
SplineSet
30 150 m 1,0,-1
 210 150 l 1,1,-1
 210 10 l 1,2,-1
 140 -100 l 1,3,-1
 50 -100 l 1,4,-1
 90 0 l 1,5,-1
 30 0 l 1,6,-1
 30 150 l 1,0,-1
EndSplineSet
EndChar

StartChar: hyphen
Encoding: 45 45 16
Width: 470
GlyphClass: 2
Flags: W
LayerCount: 2
Fore
SplineSet
30 280 m 1,0,-1
 30 420 l 1,1,-1
 440 420 l 1,2,-1
 440 280 l 1,3,-1
 30 280 l 1,0,-1
EndSplineSet
EndChar

StartChar: period
Encoding: 46 46 17
Width: 240
GlyphClass: 2
Flags: W
LayerCount: 2
Fore
SplineSet
30 150 m 1,0,-1
 210 150 l 1,1,-1
 210 0 l 1,2,-1
 30 0 l 1,3,-1
 30 150 l 1,0,-1
EndSplineSet
EndChar

StartChar: slash
Encoding: 47 47 18
Width: 470
GlyphClass: 2
Flags: W
LayerCount: 2
Fore
SplineSet
0 0 m 1,0,-1
 300 700 l 1,1,-1
 470 700 l 1,2,-1
 180 0 l 1,3,-1
 0 0 l 1,0,-1
EndSplineSet
EndChar

StartChar: zero
Encoding: 48 48 19
Width: 670
GlyphClass: 2
Flags: W
LayerCount: 2
Fore
SplineSet
450 510 m 2,0,1
 450 570 450 570 390 570 c 2,2,-1
 280 570 l 2,3,4
 220 570 220 570 220 510 c 2,5,-1
 220 190 l 2,6,7
 220 130 220 130 280 130 c 2,8,-1
 390 130 l 2,9,10
 450 130 450 130 450 190 c 2,11,-1
 450 510 l 2,0,1
630 190 m 2,12,13
 630 85 630 85 582.5 37.5 c 128,-1,14
 535 -10 535 -10 430 -10 c 2,15,-1
 240 -10 l 2,16,17
 135 -10 135 -10 87.5 37.5 c 128,-1,18
 40 85 40 85 40 190 c 2,19,-1
 40 510 l 2,20,21
 40 615 40 615 87.5 662.5 c 128,-1,22
 135 710 135 710 240 710 c 2,23,-1
 430 710 l 2,24,25
 535 710 535 710 582.5 662.5 c 128,-1,26
 630 615 630 615 630 510 c 2,27,-1
 630 190 l 2,12,13
EndSplineSet
EndChar

StartChar: one
Encoding: 49 49 20
Width: 405
GlyphClass: 2
Flags: W
LayerCount: 2
Fore
SplineSet
165 0 m 1,0,-1
 165 545 l 1,1,-1
 50 505 l 1,2,-1
 0 620 l 1,3,-1
 185 700 l 1,4,-1
 345 700 l 1,5,-1
 345 0 l 1,6,-1
 165 0 l 1,0,-1
EndSplineSet
EndChar

StartChar: two
Encoding: 50 50 21
Width: 590
GlyphClass: 2
Flags: W
LayerCount: 2
Fore
SplineSet
560 480 m 2,0,1
 560 395 560 395 488 333 c 0,2,3
 466 314 466 314 440 295 c 2,4,-1
 225 140 l 1,5,-1
 560 140 l 1,6,-1
 560 0 l 1,7,-1
 20 0 l 1,8,-1
 20 190 l 1,9,-1
 380 450 l 1,10,-1
 380 500 l 2,11,12
 380 560 380 560 320 560 c 2,13,-1
 40 560 l 1,14,-1
 40 700 l 1,15,-1
 360 700 l 2,16,17
 465 700 465 700 512.5 652.5 c 128,-1,18
 560 605 560 605 560 500 c 2,19,-1
 560 480 l 2,0,1
EndSplineSet
EndChar

StartChar: three
Encoding: 51 51 22
Width: 610
GlyphClass: 2
Flags: W
LayerCount: 2
Fore
SplineSet
390 -10 m 0,0,1
 223 -10 223 -10 20 10 c 1,2,-1
 20 145 l 1,3,4
 241 130 241 130 350 130 c 0,5,6
 373 130 373 130 386.5 143.5 c 128,-1,7
 400 157 400 157 400 180 c 2,8,-1
 400 220 l 2,9,10
 400 280 400 280 340 280 c 2,11,-1
 130 280 l 1,12,-1
 130 420 l 1,13,-1
 320 420 l 2,14,15
 380 420 380 420 380 480 c 2,16,-1
 380 500 l 2,17,18
 380 560 380 560 320 560 c 2,19,-1
 30 560 l 1,20,-1
 30 700 l 1,21,-1
 370 700 l 2,22,23
 468 700 468 700 514 655.5 c 128,-1,24
 560 611 560 611 560 520 c 0,25,26
 560 460 560 460 532.5 422.5 c 128,-1,27
 505 385 505 385 460 370 c 1,28,29
 541 348 541 348 570 262 c 0,30,31
 580 231 580 231 580 190 c 2,32,-1
 580 180 l 2,33,34
 580 82 580 82 534 36 c 128,-1,35
 488 -10 488 -10 390 -10 c 0,0,1
EndSplineSet
EndChar

StartChar: four
Encoding: 52 52 23
Width: 650
GlyphClass: 2
Flags: W
LayerCount: 2
Fore
SplineSet
390 140 m 1,0,-1
 20 140 l 1,1,-1
 20 280 l 1,2,-1
 260 700 l 1,3,-1
 460 700 l 1,4,-1
 220 280 l 1,5,-1
 390 280 l 1,6,-1
 390 430 l 1,7,-1
 570 430 l 1,8,-1
 570 280 l 1,9,-1
 640 280 l 1,10,-1
 640 140 l 1,11,-1
 570 140 l 1,12,-1
 570 0 l 1,13,-1
 390 0 l 1,14,-1
 390 140 l 1,0,-1
EndSplineSet
EndChar

StartChar: five
Encoding: 53 53 24
Width: 600
GlyphClass: 2
Flags: W
LayerCount: 2
Fore
SplineSet
390 -10 m 0,0,1
 223 -10 223 -10 20 10 c 1,2,-1
 20 145 l 1,3,4
 241 130 241 130 350 130 c 0,5,6
 373 130 373 130 386.5 143.5 c 128,-1,7
 400 157 400 157 400 180 c 2,8,-1
 400 230 l 2,9,10
 400 290 400 290 340 290 c 2,11,-1
 50 290 l 1,12,-1
 50 700 l 1,13,-1
 530 700 l 1,14,-1
 530 560 l 1,15,-1
 230 560 l 1,16,-1
 230 430 l 1,17,-1
 390 430 l 2,18,19
 488 430 488 430 534 385.5 c 128,-1,20
 580 341 580 341 580 250 c 2,21,-1
 580 180 l 2,22,23
 580 82 580 82 534 36 c 128,-1,24
 488 -10 488 -10 390 -10 c 0,0,1
EndSplineSet
EndChar

StartChar: six
Encoding: 54 54 25
Width: 630
GlyphClass: 2
Flags: W
LayerCount: 2
Fore
SplineSet
230 710 m 0,0,1
 367 710 367 710 560 690 c 1,2,-1
 560 555 l 1,3,4
 505 558 505 558 466.5 560.5 c 128,-1,5
 428 563 428 563 403.5 564.5 c 128,-1,6
 379 566 379 566 355 568 c 0,7,8
 315 570 315 570 281 570 c 0,9,10
 220 570 220 570 220 520 c 2,11,-1
 220 430 l 1,12,13
 317 450 317 450 390 450 c 2,14,-1
 460 450 l 2,15,16
 528 450 528 450 569 409 c 128,-1,17
 610 368 610 368 610 300 c 2,18,-1
 610 170 l 2,19,20
 610 79 610 79 564 34.5 c 128,-1,21
 518 -10 518 -10 420 -10 c 2,22,-1
 230 -10 l 2,23,24
 132 -10 132 -10 86 34.5 c 128,-1,25
 40 79 40 79 40 170 c 2,26,-1
 40 520 l 2,27,28
 40 618 40 618 86 664 c 128,-1,29
 132 710 132 710 230 710 c 0,0,1
340 310 m 2,30,31
 302 310 302 310 270.5 306 c 128,-1,32
 239 302 239 302 220 300 c 1,33,-1
 220 190 l 2,34,35
 220 130 220 130 280 130 c 2,36,-1
 370 130 l 2,37,38
 430 130 430 130 430 190 c 2,39,-1
 430 275 l 2,40,41
 430 290 430 290 420 300 c 128,-1,42
 410 310 410 310 395 310 c 2,43,-1
 340 310 l 2,30,31
EndSplineSet
EndChar

StartChar: seven
Encoding: 55 55 26
Width: 560
GlyphClass: 2
Flags: W
LayerCount: 2
Fore
SplineSet
10 700 m 1,0,-1
 550 700 l 1,1,-1
 550 560 l 1,2,-1
 320 0 l 1,3,-1
 120 0 l 1,4,-1
 360 560 l 1,5,-1
 10 560 l 1,6,-1
 10 700 l 1,0,-1
EndSplineSet
EndChar

StartChar: eight
Encoding: 56 56 27
Width: 670
GlyphClass: 2
Flags: W
LayerCount: 2
Fore
SplineSet
270 280 m 2,0,1
 210 280 210 280 210 220 c 2,2,-1
 210 180 l 2,3,4
 210 157 210 157 223.5 143.5 c 128,-1,5
 237 130 237 130 260 130 c 2,6,-1
 410 130 l 2,7,8
 433 130 433 130 446.5 143.5 c 128,-1,9
 460 157 460 157 460 180 c 2,10,-1
 460 220 l 2,11,12
 460 280 460 280 400 280 c 2,13,-1
 270 280 l 2,0,1
290 570 m 2,14,15
 230 570 230 570 230 510 c 2,16,-1
 230 480 l 2,17,18
 230 420 230 420 290 420 c 2,19,-1
 380 420 l 2,20,21
 440 420 440 420 440 480 c 2,22,-1
 440 510 l 2,23,24
 440 570 440 570 380 570 c 2,25,-1
 290 570 l 2,14,15
640 180 m 2,26,27
 640 82 640 82 594 36 c 128,-1,28
 548 -10 548 -10 450 -10 c 2,29,-1
 220 -10 l 2,30,31
 122 -10 122 -10 76 36 c 128,-1,32
 30 82 30 82 30 180 c 2,33,-1
 30 190 l 2,34,35
 30 266 30 266 68 316 c 0,36,37
 98 356 98 356 150 370 c 1,38,39
 105 385 105 385 77.5 422.5 c 128,-1,40
 50 460 50 460 50 520 c 2,41,-1
 50 530 l 2,42,43
 50 621 50 621 96 665.5 c 128,-1,44
 142 710 142 710 240 710 c 2,45,-1
 430 710 l 2,46,47
 528 710 528 710 574 665.5 c 128,-1,48
 620 621 620 621 620 530 c 2,49,-1
 620 520 l 2,50,51
 620 460 620 460 592.5 422.5 c 128,-1,52
 565 385 565 385 520 370 c 1,53,54
 601 348 601 348 630 262 c 0,55,56
 640 231 640 231 640 190 c 2,57,-1
 640 180 l 2,26,27
EndSplineSet
EndChar

StartChar: nine
Encoding: 57 57 28
Width: 630
GlyphClass: 2
Flags: W
LayerCount: 2
Fore
SplineSet
70 145 m 1,0,1
 276 130 276 130 360 130 c 0,2,3
 383 130 383 130 396.5 143.5 c 128,-1,4
 410 157 410 157 410 180 c 2,5,-1
 410 270 l 1,6,7
 313 250 313 250 240 250 c 2,8,-1
 170 250 l 2,9,10
 102 250 102 250 61 291 c 128,-1,11
 20 332 20 332 20 400 c 2,12,-1
 20 530 l 2,13,14
 20 621 20 621 66 665.5 c 128,-1,15
 112 710 112 710 210 710 c 2,16,-1
 400 710 l 2,17,18
 498 710 498 710 544 665.5 c 128,-1,19
 590 621 590 621 590 530 c 2,20,-1
 590 180 l 2,21,22
 590 82 590 82 544 36 c 128,-1,23
 498 -10 498 -10 400 -10 c 0,24,25
 263 -10 263 -10 70 10 c 1,26,-1
 70 145 l 1,0,1
290 390 m 2,27,28
 347 390 347 390 410 400 c 1,29,-1
 410 510 l 2,30,31
 410 570 410 570 350 570 c 2,32,-1
 260 570 l 2,33,34
 200 570 200 570 200 510 c 2,35,-1
 200 425 l 2,36,37
 200 410 200 410 210 400 c 128,-1,38
 220 390 220 390 235 390 c 2,39,-1
 290 390 l 2,27,28
EndSplineSet
EndChar

StartChar: colon
Encoding: 58 58 29
Width: 240
GlyphClass: 2
Flags: W
LayerCount: 2
Fore
SplineSet
30 150 m 1,0,-1
 210 150 l 1,1,-1
 210 0 l 1,2,-1
 30 0 l 1,3,-1
 30 150 l 1,0,-1
30 530 m 1,4,-1
 210 530 l 1,5,-1
 210 380 l 1,6,-1
 30 380 l 1,7,-1
 30 530 l 1,4,-1
EndSplineSet
EndChar

StartChar: semicolon
Encoding: 59 59 30
Width: 240
GlyphClass: 2
Flags: W
LayerCount: 2
Fore
SplineSet
30 530 m 1,0,-1
 210 530 l 1,1,-1
 210 380 l 1,2,-1
 30 380 l 1,3,-1
 30 530 l 1,0,-1
30 150 m 1,4,-1
 210 150 l 1,5,-1
 210 10 l 1,6,-1
 140 -100 l 1,7,-1
 50 -100 l 1,8,-1
 100 0 l 1,9,-1
 30 0 l 1,10,-1
 30 150 l 1,4,-1
EndSplineSet
EndChar

StartChar: less
Encoding: 60 60 31
Width: 510
GlyphClass: 2
Flags: W
LayerCount: 2
Fore
SplineSet
470 150 m 1,0,-1
 470 0 l 1,1,-1
 20 200 l 1,2,-1
 20 330 l 1,3,-1
 470 530 l 1,4,-1
 470 380 l 1,5,-1
 185 265 l 1,6,-1
 470 150 l 1,0,-1
EndSplineSet
EndChar

StartChar: equal
Encoding: 61 61 32
Width: 490
GlyphClass: 2
Flags: W
LayerCount: 2
Fore
SplineSet
40 390 m 1,0,-1
 40 520 l 1,1,-1
 450 520 l 1,2,-1
 450 390 l 1,3,-1
 40 390 l 1,0,-1
40 180 m 1,4,-1
 40 310 l 1,5,-1
 450 310 l 1,6,-1
 450 180 l 1,7,-1
 40 180 l 1,4,-1
EndSplineSet
EndChar

StartChar: greater
Encoding: 62 62 33
Width: 510
GlyphClass: 2
Flags: W
LayerCount: 2
Fore
SplineSet
325 265 m 1,0,-1
 40 380 l 1,1,-1
 40 530 l 1,2,-1
 490 330 l 1,3,-1
 490 200 l 1,4,-1
 40 0 l 1,5,-1
 40 150 l 1,6,-1
 325 265 l 1,0,-1
EndSplineSet
EndChar

StartChar: question
Encoding: 63 63 34
Width: 580
GlyphClass: 2
Flags: W
LayerCount: 2
Fore
SplineSet
10 690 m 1,0,1
 203 710 203 710 370 710 c 0,2,3
 468 710 468 710 514 664 c 128,-1,4
 560 618 560 618 560 520 c 2,5,-1
 560 475 l 2,6,7
 560 400 560 400 530 361 c 0,8,9
 500 321 500 321 425 295 c 2,10,-1
 325 260 l 1,11,-1
 325 210 l 1,12,-1
 145 210 l 1,13,-1
 145 350 l 1,14,-1
 380 435 l 1,15,-1
 380 520 l 2,16,17
 380 543 380 543 366.5 556.5 c 128,-1,18
 353 570 353 570 320 570 c 0,19,20
 260 570 260 570 164.5 564 c 128,-1,21
 69 558 69 558 10 555 c 1,22,-1
 10 690 l 1,0,1
145 150 m 1,23,-1
 325 150 l 1,24,-1
 325 0 l 1,25,-1
 145 0 l 1,26,-1
 145 150 l 1,23,-1
EndSplineSet
EndChar

StartChar: at
Encoding: 64 64 35
Width: 770
GlyphClass: 2
Flags: W
LayerCount: 2
Fore
SplineSet
650 10 m 1,0,1
 437 -10 437 -10 260 -10 c 0,2,3
 154 -10 154 -10 97 47 c 128,-1,4
 40 104 40 104 40 210 c 2,5,-1
 40 490 l 2,6,7
 40 596 40 596 97 653 c 128,-1,8
 154 710 154 710 260 710 c 2,9,-1
 580 710 l 2,10,11
 655 710 655 710 697.5 667.5 c 128,-1,12
 740 625 740 625 740 550 c 2,13,-1
 740 180 l 1,14,-1
 600 180 l 1,15,-1
 590 230 l 1,16,17
 546 199 546 199 503 184.5 c 128,-1,18
 460 170 460 170 430 170 c 2,19,-1
 410 170 l 2,20,21
 342 170 342 170 301 211 c 128,-1,22
 260 252 260 252 260 320 c 2,23,-1
 260 355 l 2,24,25
 260 423 260 423 301 464 c 128,-1,26
 342 505 342 505 410 505 c 2,27,-1
 580 505 l 1,28,-1
 580 535 l 2,29,30
 580 554 580 554 567 567 c 128,-1,31
 554 580 554 580 535 580 c 2,32,-1
 270 580 l 2,33,34
 240 580 240 580 220 560 c 128,-1,35
 200 540 200 540 200 510 c 2,36,-1
 200 190 l 2,37,38
 200 160 200 160 220 140 c 128,-1,39
 240 120 240 120 270 120 c 0,40,41
 399 120 399 120 650 135 c 1,42,-1
 650 10 l 1,0,1
480 305 m 2,43,44
 523 305 523 305 580 325 c 1,45,-1
 580 380 l 1,46,-1
 465 380 l 2,47,48
 450 380 450 380 440 370 c 128,-1,49
 430 360 430 360 430 345 c 2,50,-1
 430 340 l 2,51,52
 430 325 430 325 440 315 c 128,-1,53
 450 305 450 305 465 305 c 2,54,-1
 480 305 l 2,43,44
EndSplineSet
EndChar

StartChar: A
Encoding: 65 65 36
Width: 710
GlyphClass: 2
Flags: W
LayerCount: 2
Fore
SplineSet
185 0 m 1,0,-1
 -10 0 l 1,1,-1
 255 700 l 1,2,-1
 455 700 l 1,3,-1
 720 0 l 1,4,-1
 525 0 l 1,5,-1
 480 125 l 1,6,-1
 230 125 l 1,7,-1
 185 0 l 1,0,-1
275 255 m 1,8,-1
 435 255 l 1,9,-1
 355 490 l 1,10,-1
 275 255 l 1,8,-1
EndSplineSet
EndChar

StartChar: B
Encoding: 66 66 37
Width: 710
GlyphClass: 2
Flags: W
LayerCount: 2
Fore
SplineSet
60 700 m 1,0,-1
 460 700 l 2,1,2
 558 700 558 700 604 655.5 c 128,-1,3
 650 611 650 611 650 520 c 0,4,5
 650 460 650 460 624 422.5 c 128,-1,6
 598 385 598 385 560 370 c 1,7,8
 641 348 641 348 670 262 c 0,9,10
 680 231 680 231 680 190 c 0,11,12
 680 92 680 92 634 46 c 128,-1,13
 588 0 588 0 490 0 c 2,14,-1
 60 0 l 1,15,-1
 60 700 l 1,0,-1
500 220 m 2,16,17
 500 280 500 280 440 280 c 2,18,-1
 240 280 l 1,19,-1
 240 140 l 1,20,-1
 440 140 l 2,21,22
 500 140 500 140 500 200 c 2,23,-1
 500 220 l 2,16,17
470 500 m 2,24,25
 470 560 470 560 410 560 c 2,26,-1
 240 560 l 1,27,-1
 240 420 l 1,28,-1
 410 420 l 2,29,30
 470 420 470 420 470 480 c 2,31,-1
 470 500 l 2,24,25
EndSplineSet
EndChar

StartChar: C
Encoding: 67 67 38
Width: 620
GlyphClass: 2
Flags: W
LayerCount: 2
Fore
SplineSet
600 10 m 1,0,1
 377 -10 377 -10 230 -10 c 0,2,3
 132 -10 132 -10 86 36 c 128,-1,4
 40 82 40 82 40 180 c 2,5,-1
 40 500 l 2,6,7
 40 605 40 605 87.5 652.5 c 128,-1,8
 135 700 135 700 240 700 c 2,9,-1
 600 700 l 1,10,-1
 600 560 l 1,11,-1
 280 560 l 2,12,13
 220 560 220 560 220 500 c 2,14,-1
 220 180 l 2,15,16
 220 157 220 157 233.5 143.5 c 128,-1,17
 247 130 247 130 268 130 c 128,-1,18
 289 130 289 130 314 130.5 c 128,-1,19
 339 131 339 131 366 132 c 128,-1,20
 393 133 393 133 420.5 134 c 128,-1,21
 448 135 448 135 491.5 138 c 128,-1,22
 535 141 535 141 600 145 c 1,23,-1
 600 10 l 1,0,1
EndSplineSet
EndChar

StartChar: D
Encoding: 68 68 39
Width: 720
GlyphClass: 2
Flags: W
LayerCount: 2
Fore
SplineSet
450 700 m 2,0,1
 563 700 563 700 621.5 641.5 c 128,-1,2
 680 583 680 583 680 470 c 2,3,-1
 680 230 l 2,4,5
 680 117 680 117 621.5 58.5 c 128,-1,6
 563 0 563 0 450 0 c 2,7,-1
 60 0 l 1,8,-1
 60 700 l 1,9,-1
 450 700 l 2,0,1
500 470 m 2,10,11
 500 560 500 560 410 560 c 2,12,-1
 240 560 l 1,13,-1
 240 140 l 1,14,-1
 410 140 l 2,15,16
 500 140 500 140 500 230 c 2,17,-1
 500 470 l 2,10,11
EndSplineSet
EndChar

StartChar: E
Encoding: 69 69 40
Width: 635
GlyphClass: 2
Flags: W
LayerCount: 2
Fore
SplineSet
615 0 m 1,0,-1
 60 0 l 1,1,-1
 60 700 l 1,2,-1
 615 700 l 1,3,-1
 615 560 l 1,4,-1
 240 560 l 1,5,-1
 240 425 l 1,6,-1
 535 425 l 1,7,-1
 535 285 l 1,8,-1
 240 285 l 1,9,-1
 240 140 l 1,10,-1
 615 140 l 1,11,-1
 615 0 l 1,0,-1
EndSplineSet
EndChar

StartChar: F
Encoding: 70 70 41
Width: 625
GlyphClass: 2
Flags: W
LayerCount: 2
Fore
SplineSet
240 0 m 1,0,-1
 60 0 l 1,1,-1
 60 700 l 1,2,-1
 615 700 l 1,3,-1
 615 560 l 1,4,-1
 240 560 l 1,5,-1
 240 395 l 1,6,-1
 535 395 l 1,7,-1
 535 255 l 1,8,-1
 240 255 l 1,9,-1
 240 0 l 1,0,-1
EndSplineSet
EndChar

StartChar: G
Encoding: 71 71 42
Width: 700
GlyphClass: 2
Flags: W
LayerCount: 2
Fore
SplineSet
660 15 m 1,0,1
 426 -10 426 -10 230 -10 c 0,2,3
 132 -10 132 -10 86 36 c 128,-1,4
 40 82 40 82 40 180 c 2,5,-1
 40 500 l 2,6,7
 40 605 40 605 87.5 652.5 c 128,-1,8
 135 700 135 700 240 700 c 2,9,-1
 600 700 l 1,10,-1
 600 560 l 1,11,-1
 280 560 l 2,12,13
 220 560 220 560 220 500 c 2,14,-1
 220 180 l 2,15,16
 220 157 220 157 233.5 143.5 c 128,-1,17
 247 130 247 130 270 130 c 0,18,19
 385 130 385 130 480 135 c 1,20,-1
 480 280 l 1,21,-1
 350 280 l 1,22,-1
 350 400 l 1,23,-1
 660 400 l 1,24,-1
 660 15 l 1,0,1
EndSplineSet
EndChar

StartChar: H
Encoding: 72 72 43
Width: 730
GlyphClass: 2
Flags: W
LayerCount: 2
Fore
SplineSet
670 0 m 1,0,-1
 490 0 l 1,1,-1
 490 285 l 1,2,-1
 240 285 l 1,3,-1
 240 0 l 1,4,-1
 60 0 l 1,5,-1
 60 700 l 1,6,-1
 240 700 l 1,7,-1
 240 425 l 1,8,-1
 490 425 l 1,9,-1
 490 700 l 1,10,-1
 670 700 l 1,11,-1
 670 0 l 1,0,-1
EndSplineSet
EndChar

StartChar: I
Encoding: 73 73 44
Width: 420
GlyphClass: 2
Flags: W
LayerCount: 2
Fore
SplineSet
390 0 m 1,0,-1
 30 0 l 1,1,-1
 30 140 l 1,2,-1
 120 140 l 1,3,-1
 120 560 l 1,4,-1
 30 560 l 1,5,-1
 30 700 l 1,6,-1
 390 700 l 1,7,-1
 390 560 l 1,8,-1
 300 560 l 1,9,-1
 300 140 l 1,10,-1
 390 140 l 1,11,-1
 390 0 l 1,0,-1
EndSplineSet
EndChar

StartChar: J
Encoding: 74 74 45
Width: 460
GlyphClass: 2
Flags: W
LayerCount: 2
Fore
SplineSet
354 36 m 128,-1,1
 308 -10 308 -10 212.5 -10 c 128,-1,2
 117 -10 117 -10 10 0 c 1,3,-1
 10 135 l 1,4,5
 88 130 88 130 170 130 c 0,6,7
 193 130 193 130 206.5 143.5 c 128,-1,8
 220 157 220 157 220 180 c 2,9,-1
 220 560 l 1,10,-1
 90 560 l 1,11,-1
 90 700 l 1,12,-1
 400 700 l 1,13,-1
 400 180 l 2,14,0
 400 82 400 82 354 36 c 128,-1,1
EndSplineSet
EndChar

StartChar: K
Encoding: 75 75 46
Width: 676
GlyphClass: 2
Flags: W
LayerCount: 2
Fore
SplineSet
240 0 m 1,0,-1
 60 0 l 1,1,-1
 60 700 l 1,2,-1
 240 700 l 1,3,-1
 240 425 l 1,4,-1
 330 425 l 1,5,-1
 486 700 l 1,6,-1
 676 700 l 1,7,-1
 480 355 l 1,8,-1
 675 0 l 1,9,-1
 485 0 l 1,10,-1
 330 285 l 1,11,-1
 240 285 l 1,12,-1
 240 0 l 1,0,-1
EndSplineSet
EndChar

StartChar: L
Encoding: 76 76 47
Width: 615
GlyphClass: 2
Flags: W
LayerCount: 2
Fore
SplineSet
240 140 m 1,0,-1
 605 140 l 1,1,-1
 605 0 l 1,2,-1
 60 0 l 1,3,-1
 60 700 l 1,4,-1
 240 700 l 1,5,-1
 240 140 l 1,0,-1
EndSplineSet
EndChar

StartChar: M
Encoding: 77 77 48
Width: 900
GlyphClass: 2
Flags: W
LayerCount: 2
Fore
SplineSet
660 390 m 1,0,-1
 520 140 l 1,1,-1
 380 140 l 1,2,-1
 240 390 l 1,3,-1
 240 0 l 1,4,-1
 60 0 l 1,5,-1
 60 700 l 1,6,-1
 250 700 l 1,7,-1
 450 330 l 1,8,-1
 650 700 l 1,9,-1
 840 700 l 1,10,-1
 840 0 l 1,11,-1
 660 0 l 1,12,-1
 660 390 l 1,0,-1
EndSplineSet
EndChar

StartChar: N
Encoding: 78 78 49
Width: 730
GlyphClass: 2
Flags: W
LayerCount: 2
Fore
SplineSet
670 0 m 1,0,-1
 480 0 l 1,1,-1
 240 420 l 1,2,-1
 240 0 l 1,3,-1
 60 0 l 1,4,-1
 60 700 l 1,5,-1
 250 700 l 1,6,-1
 490 280 l 1,7,-1
 490 700 l 1,8,-1
 670 700 l 1,9,-1
 670 0 l 1,0,-1
EndSplineSet
EndChar

StartChar: O
Encoding: 79 79 50
Width: 730
GlyphClass: 2
Flags: W
LayerCount: 2
Fore
SplineSet
510 510 m 2,0,1
 510 570 510 570 450 570 c 2,2,-1
 280 570 l 2,3,4
 220 570 220 570 220 510 c 2,5,-1
 220 190 l 2,6,7
 220 130 220 130 280 130 c 2,8,-1
 450 130 l 2,9,10
 510 130 510 130 510 190 c 2,11,-1
 510 510 l 2,0,1
690 190 m 2,12,13
 690 85 690 85 642.5 37.5 c 128,-1,14
 595 -10 595 -10 490 -10 c 2,15,-1
 240 -10 l 2,16,17
 135 -10 135 -10 87.5 37.5 c 128,-1,18
 40 85 40 85 40 190 c 2,19,-1
 40 510 l 2,20,21
 40 615 40 615 87.5 662.5 c 128,-1,22
 135 710 135 710 240 710 c 2,23,-1
 490 710 l 2,24,25
 595 710 595 710 642.5 662.5 c 128,-1,26
 690 615 690 615 690 510 c 2,27,-1
 690 190 l 2,12,13
EndSplineSet
EndChar

StartChar: P
Encoding: 80 80 51
Width: 710
GlyphClass: 2
Flags: W
LayerCount: 2
Fore
SplineSet
60 700 m 1,0,-1
 480 700 l 2,1,2
 585 700 585 700 632.5 652.5 c 128,-1,3
 680 605 680 605 680 500 c 2,4,-1
 680 400 l 2,5,6
 680 295 680 295 632.5 247.5 c 128,-1,7
 585 200 585 200 480 200 c 2,8,-1
 240 200 l 1,9,-1
 240 0 l 1,10,-1
 60 0 l 1,11,-1
 60 700 l 1,0,-1
500 500 m 2,12,13
 500 560 500 560 440 560 c 2,14,-1
 240 560 l 1,15,-1
 240 340 l 1,16,-1
 440 340 l 2,17,18
 500 340 500 340 500 400 c 2,19,-1
 500 500 l 2,12,13
EndSplineSet
EndChar

StartChar: Q
Encoding: 81 81 52
Width: 730
GlyphClass: 2
Flags: W
LayerCount: 2
Fore
SplineSet
550 -160 m 1,0,1
 480 -170 480 -170 416 -170 c 128,-1,2
 352 -170 352 -170 311 -129 c 128,-1,3
 270 -88 270 -88 270 -20 c 2,4,-1
 270 -10 l 1,5,-1
 240 -10 l 2,6,7
 135 -10 135 -10 87.5 37.5 c 128,-1,8
 40 85 40 85 40 190 c 2,9,-1
 40 510 l 2,10,11
 40 615 40 615 87.5 662.5 c 128,-1,12
 135 710 135 710 240 710 c 2,13,-1
 490 710 l 2,14,15
 595 710 595 710 642.5 662.5 c 128,-1,16
 690 615 690 615 690 510 c 2,17,-1
 690 190 l 2,18,19
 690 85 690 85 642.5 37.5 c 128,-1,20
 595 -10 595 -10 490 -10 c 2,21,-1
 440 -10 l 1,22,-1
 440 -20 l 2,23,24
 440 -35 440 -35 450 -45 c 128,-1,25
 460 -55 460 -55 475 -55 c 2,26,-1
 550 -55 l 1,27,-1
 550 -160 l 1,0,1
510 510 m 2,28,29
 510 570 510 570 450 570 c 2,30,-1
 280 570 l 2,31,32
 220 570 220 570 220 510 c 2,33,-1
 220 190 l 2,34,35
 220 130 220 130 280 130 c 2,36,-1
 450 130 l 2,37,38
 510 130 510 130 510 190 c 2,39,-1
 510 510 l 2,28,29
EndSplineSet
EndChar

StartChar: R
Encoding: 82 82 53
Width: 720
GlyphClass: 2
Flags: W
LayerCount: 2
Fore
SplineSet
60 700 m 1,0,-1
 480 700 l 2,1,2
 585 700 585 700 632.5 652.5 c 128,-1,3
 680 605 680 605 680 500 c 2,4,-1
 680 410 l 2,5,6
 680 327 680 327 652.5 281 c 128,-1,7
 625 235 625 235 565 220 c 1,8,-1
 690 0 l 1,9,-1
 495 0 l 1,10,-1
 380 210 l 1,11,-1
 240 210 l 1,12,-1
 240 0 l 1,13,-1
 60 0 l 1,14,-1
 60 700 l 1,0,-1
500 500 m 2,15,16
 500 560 500 560 440 560 c 2,17,-1
 240 560 l 1,18,-1
 240 350 l 1,19,-1
 440 350 l 2,20,21
 500 350 500 350 500 410 c 2,22,-1
 500 500 l 2,15,16
EndSplineSet
EndChar

StartChar: S
Encoding: 83 83 54
Width: 670
GlyphClass: 2
Flags: W
LayerCount: 2
Fore
SplineSet
39 145 m 1,0,1
 313 130 313 130 410 130 c 0,2,3
 433 130 433 130 446.5 143.5 c 128,-1,4
 460 157 460 157 460 180 c 2,5,-1
 460 270 l 1,6,-1
 230 270 l 2,7,8
 125 270 125 270 77.5 317.5 c 128,-1,9
 30 365 30 365 30 470 c 2,10,-1
 30 500 l 2,11,12
 30 605 30 605 77.5 652.5 c 128,-1,13
 125 700 125 700 230 700 c 2,14,-1
 581 700 l 1,15,-1
 581 560 l 1,16,-1
 270 560 l 2,17,18
 210 560 210 560 210 500 c 2,19,-1
 210 480 l 2,20,21
 210 420 210 420 270 420 c 2,22,-1
 450 420 l 2,23,24
 548 420 548 420 594 374 c 128,-1,25
 640 328 640 328 640 230 c 2,26,-1
 640 180 l 2,27,28
 640 82 640 82 594 36 c 128,-1,29
 548 -10 548 -10 450 -10 c 0,30,31
 399 -10 399 -10 342 -8 c 2,32,-1
 250 -4 l 2,33,34
 148 1 148 1 39 10 c 1,35,-1
 39 145 l 1,0,1
EndSplineSet
EndChar

StartChar: T
Encoding: 84 84 55
Width: 620
GlyphClass: 2
Flags: W
LayerCount: 2
Fore
SplineSet
400 0 m 1,0,-1
 220 0 l 1,1,-1
 220 560 l 1,2,-1
 10 560 l 1,3,-1
 10 700 l 1,4,-1
 610 700 l 1,5,-1
 610 560 l 1,6,-1
 400 560 l 1,7,-1
 400 0 l 1,0,-1
EndSplineSet
EndChar

StartChar: U
Encoding: 85 85 56
Width: 750
GlyphClass: 2
Flags: W
LayerCount: 2
Fore
SplineSet
510 700 m 1,0,-1
 690 700 l 1,1,-1
 690 190 l 2,2,3
 690 85 690 85 642.5 37.5 c 128,-1,4
 595 -10 595 -10 490 -10 c 2,5,-1
 260 -10 l 2,6,7
 155 -10 155 -10 107.5 37.5 c 128,-1,8
 60 85 60 85 60 190 c 2,9,-1
 60 700 l 1,10,-1
 240 700 l 1,11,-1
 240 190 l 2,12,13
 240 130 240 130 300 130 c 2,14,-1
 450 130 l 2,15,16
 510 130 510 130 510 190 c 2,17,-1
 510 700 l 1,0,-1
EndSplineSet
EndChar

StartChar: V
Encoding: 86 86 57
Width: 710
GlyphClass: 2
Flags: W
LayerCount: 2
Fore
SplineSet
355 210 m 1,0,-1
 525 700 l 1,1,-1
 720 700 l 1,2,-1
 455 0 l 1,3,-1
 255 0 l 1,4,-1
 -10 700 l 1,5,-1
 185 700 l 1,6,-1
 355 210 l 1,0,-1
EndSplineSet
EndChar

StartChar: W
Encoding: 87 87 58
Width: 980
GlyphClass: 2
Flags: W
LayerCount: 2
Fore
SplineSet
570 700 m 1,0,-1
 690 250 l 1,1,-1
 795 700 l 1,2,-1
 990 700 l 1,3,-1
 800 0 l 1,4,-1
 610 0 l 1,5,-1
 490 435 l 1,6,-1
 370 0 l 1,7,-1
 180 0 l 1,8,-1
 -10 700 l 1,9,-1
 185 700 l 1,10,-1
 290 250 l 1,11,-1
 410 700 l 1,12,-1
 570 700 l 1,0,-1
EndSplineSet
EndChar

StartChar: X
Encoding: 88 88 59
Width: 660
GlyphClass: 2
Flags: W
LayerCount: 2
Fore
SplineSet
465 700 m 1,0,-1
 665 700 l 1,1,-1
 440 350 l 1,2,-1
 670 0 l 1,3,-1
 470 0 l 1,4,-1
 330 220 l 1,5,-1
 190 0 l 1,6,-1
 -10 0 l 1,7,-1
 220 350 l 1,8,-1
 -5 700 l 1,9,-1
 194 700 l 1,10,-1
 330 480 l 1,11,-1
 465 700 l 1,0,-1
EndSplineSet
EndChar

StartChar: Y
Encoding: 89 89 60
Width: 670
GlyphClass: 2
Flags: W
LayerCount: 2
Fore
SplineSet
-20 700 m 1,0,-1
 170 700 l 1,1,-1
 335 360 l 1,2,-1
 500 700 l 1,3,-1
 690 700 l 1,4,-1
 425 185 l 1,5,-1
 425 0 l 1,6,-1
 245 0 l 1,7,-1
 245 185 l 1,8,-1
 -20 700 l 1,0,-1
EndSplineSet
EndChar

StartChar: Z
Encoding: 90 90 61
Width: 610
GlyphClass: 2
Flags: W
LayerCount: 2
Fore
SplineSet
590 560 m 1,0,-1
 240 140 l 1,1,-1
 590 140 l 1,2,-1
 590 0 l 1,3,-1
 20 0 l 1,4,-1
 20 140 l 1,5,-1
 370 560 l 1,6,-1
 20 560 l 1,7,-1
 20 700 l 1,8,-1
 590 700 l 1,9,-1
 590 560 l 1,0,-1
EndSplineSet
EndChar

StartChar: bracketleft
Encoding: 91 91 62
Width: 360
GlyphClass: 2
Flags: W
LayerCount: 2
Fore
SplineSet
60 800 m 1,0,-1
 360 800 l 1,1,-1
 360 660 l 1,2,-1
 240 660 l 1,3,-1
 240 -70 l 1,4,-1
 360 -70 l 1,5,-1
 360 -210 l 1,6,-1
 60 -210 l 1,7,-1
 60 800 l 1,0,-1
EndSplineSet
EndChar

StartChar: backslash
Encoding: 92 92 63
Width: 470
GlyphClass: 2
Flags: W
LayerCount: 2
Fore
SplineSet
290 0 m 1,0,-1
 0 700 l 1,1,-1
 170 700 l 1,2,-1
 470 0 l 1,3,-1
 290 0 l 1,0,-1
EndSplineSet
EndChar

StartChar: bracketright
Encoding: 93 93 64
Width: 360
GlyphClass: 2
Flags: W
LayerCount: 2
Fore
SplineSet
300 -210 m 1,0,-1
 0 -210 l 1,1,-1
 0 -70 l 1,2,-1
 120 -70 l 1,3,-1
 120 660 l 1,4,-1
 0 660 l 1,5,-1
 0 800 l 1,6,-1
 300 800 l 1,7,-1
 300 -210 l 1,0,-1
EndSplineSet
EndChar

StartChar: asciicircum
Encoding: 94 94 65
Width: 510
GlyphClass: 2
Flags: W
LayerCount: 2
Fore
SplineSet
330 700 m 1,0,-1
 510 400 l 1,1,-1
 360 400 l 1,2,-1
 255 580 l 1,3,-1
 150 400 l 1,4,-1
 0 400 l 1,5,-1
 180 700 l 1,6,-1
 330 700 l 1,0,-1
EndSplineSet
EndChar

StartChar: underscore
Encoding: 95 95 66
Width: 470
GlyphClass: 2
Flags: W
LayerCount: 2
Fore
SplineSet
30 -190 m 1,0,-1
 30 -50 l 1,1,-1
 440 -50 l 1,2,-1
 440 -190 l 1,3,-1
 30 -190 l 1,0,-1
EndSplineSet
EndChar

StartChar: grave
Encoding: 96 96 67
Width: 250
GlyphClass: 2
Flags: W
LayerCount: 2
Fore
SplineSet
110 540 m 1,0,-1
 0 710 l 1,1,-1
 170 710 l 1,2,-1
 230 540 l 1,3,-1
 110 540 l 1,0,-1
EndSplineSet
EndChar

StartChar: a
Encoding: 97 97 68
Width: 595
GlyphClass: 2
Flags: W
LayerCount: 2
Fore
SplineSet
260 130 m 2,0,1
 313 130 313 130 380 150 c 1,2,-1
 380 210 l 1,3,-1
 235 210 l 2,4,5
 220 210 220 210 210 200 c 128,-1,6
 200 190 200 190 200 175 c 2,7,-1
 200 165 l 2,8,9
 200 150 200 150 210 140 c 128,-1,10
 220 130 220 130 235 130 c 2,11,-1
 260 130 l 2,0,1
75 520 m 1,12,13
 258 540 258 540 405 540 c 0,14,15
 473 540 473 540 514 499 c 128,-1,16
 555 458 555 458 555 390 c 2,17,-1
 555 0 l 1,18,-1
 400 0 l 1,19,-1
 390 50 l 1,20,21
 343 19 343 19 293.5 4.5 c 128,-1,22
 244 -10 244 -10 210 -10 c 2,23,-1
 175 -10 l 2,24,25
 107 -10 107 -10 66 31 c 128,-1,26
 25 72 25 72 25 140 c 2,27,-1
 25 185 l 2,28,29
 25 253 25 253 66 294 c 128,-1,30
 107 335 107 335 175 335 c 2,31,-1
 380 335 l 1,32,-1
 380 375 l 2,33,34
 380 390 380 390 370 400 c 128,-1,35
 360 410 360 410 345 410 c 0,36,37
 280 410 280 410 201.5 404 c 128,-1,38
 123 398 123 398 75 395 c 1,39,-1
 75 520 l 1,12,13
EndSplineSet
EndChar

StartChar: b
Encoding: 98 98 69
Width: 620
GlyphClass: 2
Flags: W
LayerCount: 2
Fore
SplineSet
405 370 m 2,0,1
 405 385 405 385 395 395 c 128,-1,2
 385 405 385 405 370 405 c 2,3,-1
 345 405 l 2,4,5
 303 405 303 405 272.5 401 c 128,-1,6
 242 397 242 397 225 395 c 1,7,-1
 225 135 l 1,8,-1
 365 135 l 2,9,10
 405 135 405 135 405 175 c 2,11,-1
 405 370 l 2,0,1
225 520 m 1,12,13
 322 540 322 540 395 540 c 2,14,-1
 430 540 l 2,15,16
 498 540 498 540 539 499 c 128,-1,17
 580 458 580 458 580 390 c 2,18,-1
 580 160 l 2,19,20
 580 85 580 85 537.5 42.5 c 128,-1,21
 495 0 495 0 420 0 c 2,22,-1
 50 0 l 1,23,-1
 50 700 l 1,24,-1
 225 700 l 1,25,-1
 225 520 l 1,12,13
EndSplineSet
EndChar

StartChar: c
Encoding: 99 99 70
Width: 550
GlyphClass: 2
Flags: W
LayerCount: 2
Fore
SplineSet
520 10 m 1,0,1
 333 -10 333 -10 190 -10 c 0,2,3
 122 -10 122 -10 81 31 c 128,-1,4
 40 72 40 72 40 140 c 2,5,-1
 40 370 l 2,6,7
 40 445 40 445 82.5 487.5 c 128,-1,8
 125 530 125 530 200 530 c 2,9,-1
 520 530 l 1,10,-1
 520 395 l 1,11,-1
 255 395 l 2,12,13
 215 395 215 395 215 355 c 2,14,-1
 215 160 l 2,15,16
 215 145 215 145 225 135 c 128,-1,17
 235 125 235 125 250 125 c 0,18,19
 340 125 340 125 520 140 c 1,20,-1
 520 10 l 1,0,1
EndSplineSet
EndChar

StartChar: d
Encoding: 100 100 71
Width: 630
GlyphClass: 2
Flags: W
LayerCount: 2
Fore
SplineSet
425 0 m 1,0,-1
 415 50 l 1,1,2
 368 19 368 19 318.5 4.5 c 128,-1,3
 269 -10 269 -10 235 -10 c 2,4,-1
 190 -10 l 2,5,6
 122 -10 122 -10 81 31 c 128,-1,7
 40 72 40 72 40 140 c 2,8,-1
 40 370 l 2,9,10
 40 445 40 445 82.5 487.5 c 128,-1,11
 125 530 125 530 200 530 c 2,12,-1
 405 530 l 1,13,-1
 405 700 l 1,14,-1
 580 700 l 1,15,-1
 580 0 l 1,16,-1
 425 0 l 1,0,-1
285 135 m 2,17,18
 338 135 338 135 405 155 c 1,19,-1
 405 395 l 1,20,-1
 255 395 l 2,21,22
 215 395 215 395 215 355 c 2,23,-1
 215 170 l 2,24,25
 215 155 215 155 225 145 c 128,-1,26
 235 135 235 135 250 135 c 2,27,-1
 285 135 l 2,17,18
EndSplineSet
EndChar

StartChar: e
Encoding: 101 101 72
Width: 600
GlyphClass: 2
Flags: W
LayerCount: 2
Fore
SplineSet
255 415 m 2,0,1
 215 415 215 415 215 375 c 2,2,-1
 215 320 l 1,3,-1
 385 320 l 1,4,-1
 385 375 l 2,5,6
 385 415 385 415 345 415 c 2,7,-1
 255 415 l 2,0,1
540 10 m 1,8,9
 347 -10 347 -10 190 -10 c 0,10,11
 122 -10 122 -10 81 31 c 128,-1,12
 40 72 40 72 40 140 c 2,13,-1
 40 380 l 2,14,15
 40 455 40 455 82.5 497.5 c 128,-1,16
 125 540 125 540 200 540 c 2,17,-1
 400 540 l 2,18,19
 475 540 475 540 517.5 497.5 c 128,-1,20
 560 455 560 455 560 380 c 2,21,-1
 560 195 l 1,22,-1
 215 195 l 1,23,-1
 215 155 l 2,24,25
 215 140 215 140 225 130 c 128,-1,26
 235 120 235 120 250 120 c 0,27,28
 349 120 349 120 540 135 c 1,29,-1
 540 10 l 1,8,9
EndSplineSet
EndChar

StartChar: f
Encoding: 102 102 73
Width: 450
GlyphClass: 2
Flags: W
LayerCount: 2
Fore
SplineSet
480 565 m 1,0,1
 451 567 451 567 403 571 c 128,-1,2
 355 575 355 575 320 575 c 128,-1,3
 285 575 285 575 275 565 c 128,-1,4
 265 555 265 555 265 540 c 2,5,-1
 265 490 l 1,6,-1
 430 490 l 1,7,-1
 430 355 l 1,8,-1
 265 355 l 1,9,-1
 265 0 l 1,10,-1
 90 0 l 1,11,-1
 90 355 l 1,12,-1
 20 355 l 1,13,-1
 20 490 l 1,14,-1
 90 490 l 1,15,-1
 90 560 l 2,16,17
 90 628 90 628 131 669 c 128,-1,18
 172 710 172 710 240 710 c 0,19,20
 301 710 301 710 369 706 c 128,-1,21
 437 702 437 702 480 700 c 1,22,-1
 480 565 l 1,0,1
EndSplineSet
EndChar

StartChar: g
Encoding: 103 103 74
Width: 620
GlyphClass: 2
Flags: W
LayerCount: 2
Fore
SplineSet
395 40 m 1,0,1
 298 20 298 20 225 20 c 2,2,-1
 190 20 l 2,3,4
 122 20 122 20 81 61 c 128,-1,5
 40 102 40 102 40 170 c 2,6,-1
 40 370 l 2,7,8
 40 445 40 445 82.5 487.5 c 128,-1,9
 125 530 125 530 200 530 c 2,10,-1
 570 530 l 1,11,-1
 570 -30 l 2,12,13
 570 -98 570 -98 529 -139 c 128,-1,14
 488 -180 488 -180 420 -180 c 0,15,16
 263 -180 263 -180 70 -160 c 1,17,-1
 70 -30 l 1,18,19
 261 -45 261 -45 360 -45 c 0,20,21
 375 -45 375 -45 385 -35 c 128,-1,22
 395 -25 395 -25 395 -10 c 2,23,-1
 395 40 l 1,0,1
275 155 m 2,24,25
 338 155 338 155 395 165 c 1,26,-1
 395 395 l 1,27,-1
 255 395 l 2,28,29
 215 395 215 395 215 355 c 2,30,-1
 215 190 l 2,31,32
 215 175 215 175 225 165 c 128,-1,33
 235 155 235 155 250 155 c 2,34,-1
 275 155 l 2,24,25
EndSplineSet
EndChar

StartChar: h
Encoding: 104 104 75
Width: 630
GlyphClass: 2
Flags: W
LayerCount: 2
Fore
SplineSet
225 520 m 1,0,1
 322 540 322 540 395 540 c 2,2,-1
 440 540 l 2,3,4
 508 540 508 540 549 499 c 128,-1,5
 590 458 590 458 590 390 c 2,6,-1
 590 0 l 1,7,-1
 415 0 l 1,8,-1
 415 370 l 2,9,10
 415 385 415 385 405 395 c 128,-1,11
 395 405 395 405 380 405 c 2,12,-1
 345 405 l 2,13,14
 307 405 307 405 275.5 401 c 128,-1,15
 244 397 244 397 225 395 c 1,16,-1
 225 0 l 1,17,-1
 50 0 l 1,18,-1
 50 700 l 1,19,-1
 225 700 l 1,20,-1
 225 520 l 1,0,1
EndSplineSet
EndChar

StartChar: i
Encoding: 105 105 76
Width: 320
GlyphClass: 2
Flags: W
LayerCount: 2
Fore
SplineSet
270 510 m 1,0,-1
 270 0 l 1,1,-1
 95 0 l 1,2,-1
 95 375 l 1,3,-1
 20 375 l 1,4,-1
 20 510 l 1,5,-1
 270 510 l 1,0,-1
95 710 m 1,6,-1
 270 710 l 1,7,-1
 270 570 l 1,8,-1
 95 570 l 1,9,-1
 95 710 l 1,6,-1
EndSplineSet
EndChar

StartChar: j
Encoding: 106 106 77
Width: 300
GlyphClass: 2
Flags: W
LayerCount: 2
Fore
SplineSet
100 -180 m 0,0,1
 7 -180 7 -180 -90 -170 c 1,2,-1
 -90 -40 l 1,3,-1
 40 -40 l 2,4,5
 55 -40 55 -40 65 -30 c 128,-1,6
 75 -20 75 -20 75 -5 c 2,7,-1
 75 510 l 1,8,-1
 250 510 l 1,9,-1
 250 -30 l 2,10,11
 250 -98 250 -98 209 -139 c 128,-1,12
 168 -180 168 -180 100 -180 c 0,0,1
75 710 m 1,13,-1
 250 710 l 1,14,-1
 250 570 l 1,15,-1
 75 570 l 1,16,-1
 75 710 l 1,13,-1
EndSplineSet
EndChar

StartChar: k
Encoding: 107 107 78
Width: 600
GlyphClass: 2
Flags: W
LayerCount: 2
Fore
SplineSet
225 210 m 1,0,-1
 225 0 l 1,1,-1
 50 0 l 1,2,-1
 50 700 l 1,3,-1
 225 700 l 1,4,-1
 225 345 l 1,5,-1
 305 345 l 1,6,-1
 415 530 l 1,7,-1
 600 530 l 1,8,-1
 450 275 l 1,9,-1
 600 0 l 1,10,-1
 415 0 l 1,11,-1
 300 210 l 1,12,-1
 225 210 l 1,0,-1
EndSplineSet
EndChar

StartChar: l
Encoding: 108 108 79
Width: 340
GlyphClass: 2
Flags: W
LayerCount: 2
Fore
SplineSet
320 0 m 1,0,1
 253 -10 253 -10 192.5 -10 c 128,-1,2
 132 -10 132 -10 91 31 c 128,-1,3
 50 72 50 72 50 140 c 2,4,-1
 50 700 l 1,5,-1
 225 700 l 1,6,-1
 225 165 l 2,7,8
 225 150 225 150 235 140 c 128,-1,9
 245 130 245 130 260 130 c 2,10,-1
 320 130 l 1,11,-1
 320 0 l 1,0,1
EndSplineSet
EndChar

StartChar: m
Encoding: 109 109 80
Width: 925
GlyphClass: 2
Flags: W
LayerCount: 2
Fore
SplineSet
405 540 m 2,0,1
 486 540 486 540 530 480 c 1,2,3
 576 511 576 511 629.5 525.5 c 128,-1,4
 683 540 683 540 725 540 c 2,5,-1
 735 540 l 2,6,7
 803 540 803 540 844 499 c 128,-1,8
 885 458 885 458 885 390 c 2,9,-1
 885 0 l 1,10,-1
 710 0 l 1,11,-1
 710 360 l 2,12,13
 710 375 710 375 700 385 c 128,-1,14
 690 395 690 395 675 395 c 2,15,-1
 670 395 l 2,16,17
 625 395 625 395 555 375 c 1,18,-1
 555 0 l 1,19,-1
 380 0 l 1,20,-1
 380 360 l 2,21,22
 380 375 380 375 370 385 c 128,-1,23
 360 395 360 395 345 395 c 2,24,-1
 340 395 l 2,25,26
 295 395 295 395 225 375 c 1,27,-1
 225 0 l 1,28,-1
 50 0 l 1,29,-1
 50 530 l 1,30,-1
 205 530 l 1,31,-1
 215 480 l 1,32,33
 262 511 262 511 311.5 525.5 c 128,-1,34
 361 540 361 540 395 540 c 2,35,-1
 405 540 l 2,0,1
EndSplineSet
EndChar

StartChar: n
Encoding: 110 110 81
Width: 630
GlyphClass: 2
Flags: W
LayerCount: 2
Fore
SplineSet
345 395 m 2,0,1
 292 395 292 395 225 375 c 1,2,-1
 225 0 l 1,3,-1
 50 0 l 1,4,-1
 50 530 l 1,5,-1
 205 530 l 1,6,-1
 215 480 l 1,7,8
 262 511 262 511 311.5 525.5 c 128,-1,9
 361 540 361 540 395 540 c 2,10,-1
 440 540 l 2,11,12
 508 540 508 540 549 499 c 128,-1,13
 590 458 590 458 590 390 c 2,14,-1
 590 0 l 1,15,-1
 415 0 l 1,16,-1
 415 360 l 2,17,18
 415 375 415 375 405 385 c 128,-1,19
 395 395 395 395 380 395 c 2,20,-1
 345 395 l 2,0,1
EndSplineSet
EndChar

StartChar: o
Encoding: 111 111 82
Width: 630
GlyphClass: 2
Flags: W
LayerCount: 2
Fore
SplineSet
590 150 m 2,0,1
 590 75 590 75 547.5 32.5 c 128,-1,2
 505 -10 505 -10 430 -10 c 2,3,-1
 200 -10 l 2,4,5
 125 -10 125 -10 82.5 32.5 c 128,-1,6
 40 75 40 75 40 150 c 2,7,-1
 40 380 l 2,8,9
 40 455 40 455 82.5 497.5 c 128,-1,10
 125 540 125 540 200 540 c 2,11,-1
 430 540 l 2,12,13
 505 540 505 540 547.5 497.5 c 128,-1,14
 590 455 590 455 590 380 c 2,15,-1
 590 150 l 2,0,1
415 365 m 2,16,17
 415 405 415 405 375 405 c 2,18,-1
 255 405 l 2,19,20
 215 405 215 405 215 365 c 2,21,-1
 215 165 l 2,22,23
 215 125 215 125 255 125 c 2,24,-1
 375 125 l 2,25,26
 415 125 415 125 415 165 c 2,27,-1
 415 365 l 2,16,17
EndSplineSet
EndChar

StartChar: p
Encoding: 112 112 83
Width: 630
GlyphClass: 2
Flags: W
LayerCount: 2
Fore
SplineSet
345 395 m 2,0,1
 292 395 292 395 225 375 c 1,2,-1
 225 135 l 1,3,-1
 375 135 l 2,4,5
 415 135 415 135 415 175 c 2,6,-1
 415 360 l 2,7,8
 415 375 415 375 405 385 c 128,-1,9
 395 395 395 395 380 395 c 2,10,-1
 345 395 l 2,0,1
225 0 m 1,11,-1
 225 -170 l 1,12,-1
 50 -170 l 1,13,-1
 50 530 l 1,14,-1
 205 530 l 1,15,-1
 215 480 l 1,16,17
 262 511 262 511 311.5 525.5 c 128,-1,18
 361 540 361 540 395 540 c 2,19,-1
 440 540 l 2,20,21
 508 540 508 540 549 499 c 128,-1,22
 590 458 590 458 590 390 c 2,23,-1
 590 160 l 2,24,25
 590 85 590 85 547.5 42.5 c 128,-1,26
 505 0 505 0 430 0 c 2,27,-1
 225 0 l 1,11,-1
EndSplineSet
EndChar

StartChar: q
Encoding: 113 113 84
Width: 620
GlyphClass: 2
Flags: W
LayerCount: 2
Fore
SplineSet
275 125 m 2,0,1
 338 125 338 125 395 135 c 1,2,-1
 395 395 l 1,3,-1
 255 395 l 2,4,5
 215 395 215 395 215 355 c 2,6,-1
 215 160 l 2,7,8
 215 145 215 145 225 135 c 128,-1,9
 235 125 235 125 250 125 c 2,10,-1
 275 125 l 2,0,1
395 10 m 1,11,12
 298 -10 298 -10 225 -10 c 2,13,-1
 190 -10 l 2,14,15
 122 -10 122 -10 81 31 c 128,-1,16
 40 72 40 72 40 140 c 2,17,-1
 40 370 l 2,18,19
 40 445 40 445 82.5 487.5 c 128,-1,20
 125 530 125 530 200 530 c 2,21,-1
 570 530 l 1,22,-1
 570 -170 l 1,23,-1
 395 -170 l 1,24,-1
 395 10 l 1,11,12
EndSplineSet
EndChar

StartChar: r
Encoding: 114 114 85
Width: 460
GlyphClass: 2
Flags: W
LayerCount: 2
Fore
SplineSet
355 385 m 2,0,1
 292 385 292 385 225 355 c 1,2,-1
 225 0 l 1,3,-1
 50 0 l 1,4,-1
 50 530 l 1,5,-1
 205 530 l 1,6,-1
 215 465 l 1,7,8
 301 540 301 540 395 540 c 2,9,-1
 440 540 l 1,10,-1
 440 385 l 1,11,-1
 355 385 l 2,0,1
EndSplineSet
EndChar

StartChar: s
Encoding: 115 115 86
Width: 580
GlyphClass: 2
Flags: W
LayerCount: 2
Fore
SplineSet
30 140 m 1,0,1
 233 125 233 125 350 125 c 0,2,3
 365 125 365 125 375 135 c 128,-1,4
 385 145 385 145 385 160 c 2,5,-1
 385 195 l 1,6,-1
 170 195 l 2,7,8
 102 195 102 195 61 236 c 128,-1,9
 20 277 20 277 20 345 c 2,10,-1
 20 380 l 2,11,12
 20 448 20 448 61 489 c 128,-1,13
 102 530 102 530 170 530 c 2,14,-1
 510 530 l 1,15,-1
 510 400 l 1,16,-1
 230 400 l 2,17,18
 215 400 215 400 205 390 c 128,-1,19
 195 380 195 380 195 365 c 256,20,21
 195 350 195 350 205 340 c 128,-1,22
 215 330 215 330 230 330 c 2,23,-1
 410 330 l 2,24,25
 478 330 478 330 519 289 c 128,-1,26
 560 248 560 248 560 180 c 2,27,-1
 560 140 l 2,28,29
 560 72 560 72 519 31 c 128,-1,30
 478 -10 478 -10 410 -10 c 0,31,32
 233 -10 233 -10 30 10 c 1,33,-1
 30 140 l 1,0,1
EndSplineSet
EndChar

StartChar: t
Encoding: 116 116 87
Width: 440
GlyphClass: 2
Flags: W
LayerCount: 2
Fore
SplineSet
420 0 m 1,0,1
 323 -10 323 -10 230 -10 c 0,2,3
 162 -10 162 -10 121 31 c 128,-1,4
 80 72 80 72 80 140 c 2,5,-1
 80 395 l 1,6,-1
 20 395 l 1,7,-1
 20 530 l 1,8,-1
 80 530 l 1,9,-1
 100 650 l 1,10,-1
 255 650 l 1,11,-1
 255 530 l 1,12,-1
 380 530 l 1,13,-1
 380 395 l 1,14,-1
 255 395 l 1,15,-1
 255 165 l 2,16,17
 255 150 255 150 265 140 c 128,-1,18
 275 130 275 130 290 130 c 2,19,-1
 420 130 l 1,20,-1
 420 0 l 1,0,1
EndSplineSet
EndChar

StartChar: u
Encoding: 117 117 88
Width: 640
GlyphClass: 2
Flags: W
LayerCount: 2
Fore
SplineSet
295 135 m 2,0,1
 348 135 348 135 415 155 c 1,2,-1
 415 530 l 1,3,-1
 590 530 l 1,4,-1
 590 0 l 1,5,-1
 435 0 l 1,6,-1
 425 50 l 1,7,8
 378 19 378 19 328.5 4.5 c 128,-1,9
 279 -10 279 -10 245 -10 c 2,10,-1
 200 -10 l 2,11,12
 132 -10 132 -10 91 31 c 128,-1,13
 50 72 50 72 50 140 c 2,14,-1
 50 530 l 1,15,-1
 225 530 l 1,16,-1
 225 170 l 2,17,18
 225 155 225 155 235 145 c 128,-1,19
 245 135 245 135 260 135 c 2,20,-1
 295 135 l 2,0,1
EndSplineSet
EndChar

StartChar: v
Encoding: 118 118 89
Width: 580
GlyphClass: 2
Flags: W
LayerCount: 2
Fore
SplineSet
405 530 m 1,0,-1
 590 530 l 1,1,-1
 390 0 l 1,2,-1
 190 0 l 1,3,-1
 -10 530 l 1,4,-1
 175 530 l 1,5,-1
 290 170 l 1,6,-1
 405 530 l 1,0,-1
EndSplineSet
EndChar

StartChar: w
Encoding: 119 119 90
Width: 880
GlyphClass: 2
Flags: W
LayerCount: 2
Fore
SplineSet
610 210 m 1,0,-1
 700 530 l 1,1,-1
 890 530 l 1,2,-1
 725 0 l 1,3,-1
 540 0 l 1,4,-1
 440 320 l 1,5,-1
 340 0 l 1,6,-1
 155 0 l 1,7,-1
 -10 530 l 1,8,-1
 180 530 l 1,9,-1
 270 210 l 1,10,-1
 360 530 l 1,11,-1
 520 530 l 1,12,-1
 610 210 l 1,0,-1
EndSplineSet
EndChar

StartChar: x
Encoding: 120 120 91
Width: 550
GlyphClass: 2
Flags: W
LayerCount: 2
Fore
SplineSet
360 530 m 1,0,-1
 555 530 l 1,1,-1
 395 265 l 1,2,-1
 560 0 l 1,3,-1
 365 0 l 1,4,-1
 275 160 l 1,5,-1
 185 0 l 1,6,-1
 -10 0 l 1,7,-1
 155 265 l 1,8,-1
 -5 530 l 1,9,-1
 190 530 l 1,10,-1
 275 370 l 1,11,-1
 360 530 l 1,0,-1
EndSplineSet
EndChar

StartChar: y
Encoding: 121 121 92
Width: 570
GlyphClass: 2
Flags: W
LayerCount: 2
Fore
SplineSet
190 -180 m 0,0,1
 137 -180 137 -180 60 -170 c 1,2,-1
 60 -40 l 1,3,-1
 150 -40 l 2,4,5
 188 -40 188 -40 199.5 -19 c 128,-1,6
 211 2 211 2 195 40 c 2,7,-1
 -10 530 l 1,8,-1
 175 530 l 1,9,-1
 300 190 l 1,10,-1
 405 530 l 1,11,-1
 590 530 l 1,12,-1
 390 -20 l 2,13,14
 361 -99 361 -99 315 -139.5 c 128,-1,15
 269 -180 269 -180 190 -180 c 0,0,1
EndSplineSet
EndChar

StartChar: z
Encoding: 122 122 93
Width: 535
GlyphClass: 2
Flags: W
LayerCount: 2
Fore
SplineSet
515 395 m 1,0,-1
 240 135 l 1,1,-1
 515 135 l 1,2,-1
 515 0 l 1,3,-1
 20 0 l 1,4,-1
 20 135 l 1,5,-1
 295 395 l 1,6,-1
 20 395 l 1,7,-1
 20 530 l 1,8,-1
 515 530 l 1,9,-1
 515 395 l 1,0,-1
EndSplineSet
EndChar

StartChar: braceleft
Encoding: 123 123 94
Width: 370
GlyphClass: 2
Flags: W
LayerCount: 2
Fore
SplineSet
180 295 m 1,0,1
 270 257 270 257 270 170 c 2,2,-1
 270 -35 l 2,3,4
 270 -50 270 -50 280 -60 c 128,-1,5
 290 -70 290 -70 305 -70 c 2,6,-1
 370 -70 l 1,7,-1
 370 -210 l 1,8,-1
 240 -210 l 2,9,10
 172 -210 172 -210 131 -169 c 128,-1,11
 90 -128 90 -128 90 -60 c 2,12,-1
 90 190 l 2,13,14
 90 205 90 205 80 215 c 128,-1,15
 70 225 70 225 55 225 c 2,16,-1
 10 225 l 1,17,-1
 10 365 l 1,18,-1
 55 365 l 2,19,20
 70 365 70 365 80 375 c 128,-1,21
 90 385 90 385 90 400 c 2,22,-1
 90 650 l 2,23,24
 90 718 90 718 131 759 c 128,-1,25
 172 800 172 800 240 800 c 2,26,-1
 370 800 l 1,27,-1
 370 660 l 1,28,-1
 305 660 l 2,29,30
 290 660 290 660 280 650 c 128,-1,31
 270 640 270 640 270 625 c 2,32,-1
 270 420 l 2,33,34
 270 333 270 333 180 295 c 1,0,1
EndSplineSet
EndChar

StartChar: bar
Encoding: 124 124 95
Width: 300
GlyphClass: 2
Flags: W
LayerCount: 2
Fore
SplineSet
240 -170 m 1,0,-1
 60 -170 l 1,1,-1
 60 700 l 1,2,-1
 240 700 l 1,3,-1
 240 -170 l 1,0,-1
EndSplineSet
EndChar

StartChar: braceright
Encoding: 125 125 96
Width: 370
GlyphClass: 2
Flags: W
LayerCount: 2
Fore
SplineSet
190 295 m 1,0,1
 100 333 100 333 100 420 c 2,2,-1
 100 625 l 2,3,4
 100 640 100 640 90 650 c 128,-1,5
 80 660 80 660 65 660 c 2,6,-1
 0 660 l 1,7,-1
 0 800 l 1,8,-1
 130 800 l 2,9,10
 198 800 198 800 239 759 c 128,-1,11
 280 718 280 718 280 650 c 2,12,-1
 280 400 l 2,13,14
 280 385 280 385 290 375 c 128,-1,15
 300 365 300 365 315 365 c 2,16,-1
 360 365 l 1,17,-1
 360 225 l 1,18,-1
 315 225 l 2,19,20
 300 225 300 225 290 215 c 128,-1,21
 280 205 280 205 280 190 c 2,22,-1
 280 -60 l 2,23,24
 280 -128 280 -128 239 -169 c 128,-1,25
 198 -210 198 -210 130 -210 c 2,26,-1
 0 -210 l 1,27,-1
 0 -70 l 1,28,-1
 65 -70 l 2,29,30
 80 -70 80 -70 90 -60 c 128,-1,31
 100 -50 100 -50 100 -35 c 2,32,-1
 100 170 l 2,33,34
 100 257 100 257 190 295 c 1,0,1
EndSplineSet
EndChar

StartChar: asciitilde
Encoding: 126 126 97
Width: 501
GlyphClass: 2
Flags: W
LayerCount: 2
Fore
SplineSet
175 305 m 0,0,1
 129 305 129 305 85 250 c 1,2,-1
 10 330 l 1,3,4
 36 395 36 395 94 435 c 0,5,6
 123 455 123 455 160 455 c 128,-1,7
 197 455 197 455 217.5 445.5 c 128,-1,8
 238 436 238 436 254.5 425 c 128,-1,9
 271 414 271 414 286.5 404.5 c 128,-1,10
 302 395 302 395 325 395 c 0,11,12
 371 395 371 395 416 450 c 1,13,-1
 491 370 l 1,14,15
 463 303 463 303 406 264 c 0,16,17
 377 245 377 245 340 245 c 128,-1,18
 303 245 303 245 282.5 254.5 c 128,-1,19
 262 264 262 264 245.5 275 c 128,-1,20
 229 286 229 286 213 295.5 c 128,-1,21
 197 305 197 305 175 305 c 0,0,1
EndSplineSet
EndChar

StartChar: exclamdown
Encoding: 161 161 98
Width: 280
GlyphClass: 2
Flags: W
LayerCount: 2
Fore
SplineSet
50 530 m 1,0,-1
 230 530 l 1,1,-1
 230 380 l 1,2,-1
 50 380 l 1,3,-1
 50 530 l 1,0,-1
210 320 m 1,4,-1
 230 110 l 1,5,-1
 230 -170 l 1,6,-1
 50 -170 l 1,7,-1
 50 110 l 1,8,-1
 70 320 l 1,9,-1
 210 320 l 1,4,-1
EndSplineSet
EndChar

StartChar: cent
Encoding: 162 162 99
Width: 550
GlyphClass: 2
Flags: W
LayerCount: 2
Fore
SplineSet
520 10 m 1,0,1
 455 3 455 3 370 -2 c 1,2,-1
 380 -90 l 1,3,-1
 230 -90 l 1,4,-1
 239 -9 l 1,5,6
 226 -10 226 -10 214 -10 c 2,7,-1
 190 -10 l 2,8,9
 122 -10 122 -10 81 31 c 128,-1,10
 40 72 40 72 40 140 c 2,11,-1
 40 370 l 2,12,13
 40 445 40 445 82.5 487.5 c 128,-1,14
 125 530 125 530 200 530 c 2,15,-1
 240 530 l 1,16,-1
 230 620 l 1,17,-1
 380 620 l 1,18,-1
 370 530 l 1,19,-1
 520 530 l 1,20,-1
 520 395 l 1,21,-1
 255 395 l 2,22,23
 215 395 215 395 215 355 c 2,24,-1
 215 160 l 2,25,26
 215 145 215 145 225 135 c 128,-1,27
 235 125 235 125 250 125 c 0,28,29
 340 125 340 125 520 140 c 1,30,-1
 520 10 l 1,0,1
EndSplineSet
EndChar

StartChar: sterling
Encoding: 163 163 100
Width: 565
GlyphClass: 2
Flags: W
LayerCount: 2
Fore
SplineSet
260 240 m 2,0,1
 260 178 260 178 230 140 c 1,2,-1
 555 140 l 1,3,-1
 555 0 l 1,4,-1
 20 0 l 1,5,-1
 20 120 l 1,6,7
 85 120 85 120 85 175 c 2,8,-1
 85 295 l 1,9,-1
 15 295 l 1,10,-1
 15 430 l 1,11,-1
 85 430 l 1,12,-1
 85 560 l 2,13,14
 85 628 85 628 126 669 c 128,-1,15
 167 710 167 710 235 710 c 0,16,17
 302 710 302 710 378.5 706 c 128,-1,18
 455 702 455 702 505 700 c 1,19,-1
 505 565 l 1,20,21
 470 567 470 567 436 570 c 0,22,23
 363 575 363 575 295 575 c 0,24,25
 280 575 280 575 270 565 c 128,-1,26
 260 555 260 555 260 540 c 2,27,-1
 260 430 l 1,28,-1
 415 430 l 1,29,-1
 415 295 l 1,30,-1
 260 295 l 1,31,-1
 260 240 l 2,0,1
EndSplineSet
EndChar

StartChar: currency
Encoding: 164 164 101
Width: 730
GlyphClass: 2
Flags: W
LayerCount: 2
Fore
SplineSet
260 0 m 1,0,-1
 80 0 l 1,1,-1
 80 110 l 1,2,-1
 10 110 l 1,3,-1
 20 215 l 1,4,-1
 80 215 l 1,5,-1
 80 255 l 1,6,-1
 10 255 l 1,7,-1
 20 364 l 1,8,-1
 80 364 l 1,9,-1
 80 700 l 1,10,-1
 500 700 l 2,11,12
 605 700 605 700 652.5 652.5 c 128,-1,13
 700 605 700 605 700 500 c 2,14,-1
 700 460 l 2,15,16
 700 354 700 354 653 304.5 c 128,-1,17
 606 255 606 255 500 255 c 2,18,-1
 260 255 l 1,19,-1
 260 215 l 1,20,-1
 520 215 l 1,21,-1
 520 110 l 1,22,-1
 260 110 l 1,23,-1
 260 0 l 1,0,-1
520 500 m 2,24,25
 520 560 520 560 460 560 c 2,26,-1
 260 560 l 1,27,-1
 260 360 l 1,28,-1
 460 360 l 2,29,30
 520 360 520 360 520 420 c 2,31,-1
 520 500 l 2,24,25
EndSplineSet
EndChar

StartChar: yen
Encoding: 165 165 102
Width: 670
GlyphClass: 2
Flags: W
LayerCount: 2
Fore
SplineSet
245 0 m 1,0,-1
 245 130 l 1,1,-1
 90 130 l 1,2,-1
 90 235 l 1,3,-1
 220 235 l 1,4,-1
 200 275 l 1,5,-1
 90 275 l 1,6,-1
 90 380 l 1,7,-1
 145 380 l 1,8,-1
 -20 700 l 1,9,-1
 170 700 l 1,10,-1
 335 360 l 1,11,-1
 500 700 l 1,12,-1
 690 700 l 1,13,-1
 525 380 l 1,14,-1
 580 380 l 1,15,-1
 580 275 l 1,16,-1
 470 275 l 1,17,-1
 450 235 l 1,18,-1
 580 235 l 1,19,-1
 580 130 l 1,20,-1
 425 130 l 1,21,-1
 425 0 l 1,22,-1
 245 0 l 1,0,-1
EndSplineSet
EndChar

StartChar: brokenbar
Encoding: 166 166 103
Width: 300
GlyphClass: 2
Flags: W
LayerCount: 2
Fore
SplineSet
240 330 m 1,0,-1
 60 330 l 1,1,-1
 60 700 l 1,2,-1
 240 700 l 1,3,-1
 240 330 l 1,0,-1
60 -170 m 1,4,-1
 60 200 l 1,5,-1
 240 200 l 1,6,-1
 240 -170 l 1,7,-1
 60 -170 l 1,4,-1
EndSplineSet
EndChar

StartChar: section
Encoding: 167 167 104
Width: 590
GlyphClass: 2
Flags: W
LayerCount: 2
Fore
SplineSet
90 405 m 1,0,1
 30 443 30 443 30 510 c 2,2,-1
 30 550 l 2,3,4
 30 618 30 618 71 659 c 128,-1,5
 112 700 112 700 180 700 c 2,6,-1
 500 700 l 1,7,-1
 500 570 l 1,8,-1
 245 570 l 2,9,10
 230 570 230 570 220 560 c 128,-1,11
 210 550 210 550 210 535 c 2,12,-1
 210 515 l 2,13,14
 210 486 210 486 250 480 c 2,15,-1
 410 455 l 2,16,17
 482 444 482 444 521 406.5 c 128,-1,18
 560 369 560 369 560 305 c 2,19,-1
 560 245 l 2,20,21
 560 207 560 207 545 176 c 128,-1,22
 530 145 530 145 500 130 c 1,23,24
 560 92 560 92 560 25 c 2,25,-1
 560 -30 l 2,26,27
 560 -98 560 -98 519 -139 c 128,-1,28
 478 -180 478 -180 410 -180 c 0,29,30
 237 -180 237 -180 40 -160 c 1,31,-1
 40 -25 l 1,32,33
 228 -40 228 -40 345 -40 c 0,34,35
 360 -40 360 -40 370 -30 c 128,-1,36
 380 -20 380 -20 380 -5 c 2,37,-1
 380 45 l 1,38,-1
 180 75 l 2,39,40
 108 86 108 86 69 123.5 c 128,-1,41
 30 161 30 161 30 225 c 2,42,-1
 30 290 l 2,43,44
 30 328 30 328 45 359 c 128,-1,45
 60 390 60 390 90 405 c 1,0,1
210 245 m 2,46,47
 210 216 210 216 250 210 c 2,48,-1
 345 195 l 1,49,50
 360 195 360 195 370 205 c 128,-1,51
 380 215 380 215 380 230 c 2,52,-1
 380 320 l 1,53,-1
 245 340 l 1,54,55
 230 340 230 340 220 330 c 128,-1,56
 210 320 210 320 210 305 c 2,57,-1
 210 245 l 2,46,47
EndSplineSet
EndChar

StartChar: dieresis
Encoding: 168 168 105
Width: 400
GlyphClass: 2
Flags: W
LayerCount: 2
Fore
SplineSet
230 805 m 1,0,-1
 400 805 l 1,1,-1
 400 665 l 1,2,-1
 230 665 l 1,3,-1
 230 805 l 1,0,-1
0 805 m 1,4,-1
 170 805 l 1,5,-1
 170 665 l 1,6,-1
 0 665 l 1,7,-1
 0 805 l 1,4,-1
EndSplineSet
EndChar

StartChar: copyright
Encoding: 169 169 106
Width: 850
GlyphClass: 2
Flags: W
LayerCount: 2
Fore
SplineSet
20 490 m 2,0,1
 20 596 20 596 77 653 c 128,-1,2
 134 710 134 710 240 710 c 2,3,-1
 610 710 l 2,4,5
 716 710 716 710 773 653 c 128,-1,6
 830 596 830 596 830 490 c 2,7,-1
 830 210 l 2,8,9
 830 104 830 104 773 47 c 128,-1,10
 716 -10 716 -10 610 -10 c 2,11,-1
 240 -10 l 2,12,13
 134 -10 134 -10 77 47 c 128,-1,14
 20 104 20 104 20 210 c 2,15,-1
 20 490 l 2,0,1
680 520 m 2,16,17
 680 550 680 550 660 570 c 128,-1,18
 640 590 640 590 610 590 c 2,19,-1
 240 590 l 2,20,21
 210 590 210 590 190 570 c 128,-1,22
 170 550 170 550 170 520 c 2,23,-1
 170 180 l 2,24,25
 170 150 170 150 190 130 c 128,-1,26
 210 110 210 110 240 110 c 2,27,-1
 610 110 l 2,28,29
 640 110 640 110 660 130 c 128,-1,30
 680 150 680 150 680 180 c 2,31,-1
 680 520 l 2,16,17
415 255 m 0,32,33
 482 255 482 255 595 270 c 1,34,-1
 595 170 l 1,35,36
 464 155 464 155 365 155 c 0,37,38
 308 155 308 155 276.5 186.5 c 128,-1,39
 245 218 245 218 245 275 c 2,40,-1
 245 410 l 2,41,42
 245 470 245 470 277.5 502.5 c 128,-1,43
 310 535 310 535 370 535 c 2,44,-1
 595 535 l 1,45,-1
 595 435 l 1,46,-1
 420 435 l 2,47,48
 385 435 385 435 385 400 c 2,49,-1
 385 285 l 2,50,51
 385 255 385 255 415 255 c 0,32,33
EndSplineSet
EndChar

StartChar: ordfeminine
Encoding: 170 170 107
Width: 365
GlyphClass: 2
Flags: W
LayerCount: 2
Fore
SplineSet
160 425 m 2,0,1
 188 425 188 425 225 440 c 1,2,-1
 225 490 l 1,3,-1
 155 490 l 2,4,5
 130 490 130 490 130 465 c 2,6,-1
 130 450 l 2,7,8
 130 425 130 425 155 425 c 2,9,-1
 160 425 l 2,0,1
230 380 m 1,10,11
 165 340 165 340 115 340 c 2,12,-1
 110 340 l 2,13,14
 65 340 65 340 37.5 367.5 c 128,-1,15
 10 395 10 395 10 440 c 2,16,-1
 10 470 l 2,17,18
 10 515 10 515 37.5 542.5 c 128,-1,19
 65 570 65 570 110 570 c 2,20,-1
 225 570 l 1,21,-1
 225 600 l 2,22,23
 225 630 225 630 195 630 c 0,24,25
 160 630 160 630 116 624 c 128,-1,26
 72 618 72 618 45 615 c 1,27,-1
 45 695 l 1,28,29
 72 698 72 698 100 702 c 0,30,31
 168 710 168 710 227.5 710 c 128,-1,32
 287 710 287 710 316 682 c 128,-1,33
 345 654 345 654 345 605 c 2,34,-1
 345 350 l 1,35,-1
 240 350 l 1,36,-1
 230 380 l 1,10,11
EndSplineSet
EndChar

StartChar: guillemotleft
Encoding: 171 171 108
Width: 611
GlyphClass: 2
Flags: W
LayerCount: 2
Fore
SplineSet
341 90 m 1,0,-1
 240 0 l 1,1,-1
 10 265 l 1,2,-1
 240 530 l 1,3,-1
 341 441 l 1,4,-1
 189 265 l 1,5,-1
 341 90 l 1,0,-1
439 265 m 1,6,-1
 591 90 l 1,7,-1
 490 0 l 1,8,-1
 260 265 l 1,9,-1
 490 530 l 1,10,-1
 591 441 l 1,11,-1
 439 265 l 1,6,-1
EndSplineSet
EndChar

StartChar: logicalnot
Encoding: 172 172 109
Width: 540
GlyphClass: 2
Flags: W
LayerCount: 2
Fore
SplineSet
500 220 m 1,0,-1
 360 220 l 1,1,-1
 360 310 l 1,2,-1
 40 310 l 1,3,-1
 40 450 l 1,4,-1
 500 450 l 1,5,-1
 500 220 l 1,0,-1
EndSplineSet
EndChar

StartChar: uni00AD
Encoding: 173 173 110
Width: 470
GlyphClass: 2
Flags: W
LayerCount: 2
Fore
SplineSet
30 280 m 1,0,-1
 30 420 l 1,1,-1
 440 420 l 1,2,-1
 440 280 l 1,3,-1
 30 280 l 1,0,-1
EndSplineSet
EndChar

StartChar: registered
Encoding: 174 174 111
Width: 850
GlyphClass: 2
Flags: W
LayerCount: 2
Fore
SplineSet
20 490 m 2,0,1
 20 596 20 596 77 653 c 128,-1,2
 134 710 134 710 240 710 c 2,3,-1
 610 710 l 2,4,5
 716 710 716 710 773 653 c 128,-1,6
 830 596 830 596 830 490 c 2,7,-1
 830 210 l 2,8,9
 830 104 830 104 773 47 c 128,-1,10
 716 -10 716 -10 610 -10 c 2,11,-1
 240 -10 l 2,12,13
 134 -10 134 -10 77 47 c 128,-1,14
 20 104 20 104 20 210 c 2,15,-1
 20 490 l 2,0,1
680 520 m 2,16,17
 680 550 680 550 660 570 c 128,-1,18
 640 590 640 590 610 590 c 2,19,-1
 240 590 l 2,20,21
 210 590 210 590 190 570 c 128,-1,22
 170 550 170 550 170 520 c 2,23,-1
 170 180 l 2,24,25
 170 150 170 150 190 130 c 128,-1,26
 210 110 210 110 240 110 c 2,27,-1
 610 110 l 2,28,29
 640 110 640 110 660 130 c 128,-1,30
 680 150 680 150 680 180 c 2,31,-1
 680 520 l 2,16,17
425 265 m 1,32,-1
 385 265 l 1,33,-1
 385 165 l 1,34,-1
 245 165 l 1,35,-1
 245 535 l 1,36,-1
 500 535 l 2,37,38
 560 535 560 535 592.5 502.5 c 128,-1,39
 625 470 625 470 625 410 c 2,40,-1
 625 400 l 2,41,42
 625 351 625 351 605.5 323.5 c 128,-1,43
 586 296 586 296 560 285 c 1,44,-1
 625 165 l 1,45,-1
 480 165 l 1,46,-1
 425 265 l 1,32,-1
450 355 m 2,47,48
 485 355 485 355 485 390 c 2,49,-1
 485 410 l 2,50,51
 485 445 485 445 450 445 c 2,52,-1
 385 445 l 1,53,-1
 385 355 l 1,54,-1
 450 355 l 2,47,48
EndSplineSet
EndChar

StartChar: macron
Encoding: 175 175 112
Width: 300
GlyphClass: 2
Flags: W
LayerCount: 2
Fore
SplineSet
0 785 m 1,0,-1
 300 785 l 1,1,-1
 300 665 l 1,2,-1
 0 665 l 1,3,-1
 0 785 l 1,0,-1
EndSplineSet
EndChar

StartChar: degree
Encoding: 176 176 113
Width: 390
GlyphClass: 2
Flags: W
LayerCount: 2
Fore
SplineSet
370 465 m 2,0,1
 370 405 370 405 337.5 372.5 c 128,-1,2
 305 340 305 340 245 340 c 2,3,-1
 145 340 l 2,4,5
 85 340 85 340 52.5 372.5 c 128,-1,6
 20 405 20 405 20 465 c 2,7,-1
 20 585 l 2,8,9
 20 645 20 645 52.5 677.5 c 128,-1,10
 85 710 85 710 145 710 c 2,11,-1
 245 710 l 2,12,13
 305 710 305 710 337.5 677.5 c 128,-1,14
 370 645 370 645 370 585 c 2,15,-1
 370 465 l 2,0,1
250 585 m 2,16,17
 250 620 250 620 215 620 c 2,18,-1
 175 620 l 2,19,20
 140 620 140 620 140 585 c 2,21,-1
 140 465 l 2,22,23
 140 430 140 430 175 430 c 2,24,-1
 215 430 l 2,25,26
 250 430 250 430 250 465 c 2,27,-1
 250 585 l 2,16,17
EndSplineSet
EndChar

StartChar: plusminus
Encoding: 177 177 114
Width: 540
GlyphClass: 2
Flags: W
LayerCount: 2
Fore
SplineSet
340 440 m 1,0,-1
 510 440 l 1,1,-1
 510 300 l 1,2,-1
 340 300 l 1,3,-1
 340 190 l 1,4,-1
 495 190 l 1,5,-1
 495 50 l 1,6,-1
 45 50 l 1,7,-1
 45 190 l 1,8,-1
 200 190 l 1,9,-1
 200 300 l 1,10,-1
 30 300 l 1,11,-1
 30 440 l 1,12,-1
 200 440 l 1,13,-1
 200 590 l 1,14,-1
 340 590 l 1,15,-1
 340 440 l 1,0,-1
EndSplineSet
EndChar

StartChar: twosuperior
Encoding: 178 178 115
Width: 345
GlyphClass: 2
Flags: W
LayerCount: 2
Fore
SplineSet
325 594 m 2,0,1
 325 533 325 533 270 495 c 2,2,-1
 175 430 l 1,3,-1
 325 430 l 1,4,-1
 325 340 l 1,5,-1
 20 340 l 1,6,-1
 20 440 l 1,7,-1
 205 570 l 1,8,-1
 205 590 l 2,9,10
 205 620 205 620 175 620 c 2,11,-1
 30 620 l 1,12,-1
 30 710 l 1,13,-1
 210 710 l 2,14,15
 267 710 267 710 296 682 c 128,-1,16
 325 654 325 654 325 604 c 2,17,-1
 325 594 l 2,0,1
EndSplineSet
EndChar

StartChar: threesuperior
Encoding: 179 179 116
Width: 350
GlyphClass: 2
Flags: W
LayerCount: 2
Fore
SplineSet
215 340 m 0,0,1
 118 340 118 340 20 355 c 1,2,-1
 20 440 l 1,3,4
 125 425 125 425 180 425 c 0,5,6
 210 425 210 425 210 455 c 256,7,8
 210 485 210 485 180 485 c 2,9,-1
 70 485 l 1,10,-1
 70 565 l 1,11,-1
 170 565 l 2,12,13
 200 565 200 565 200 595 c 256,14,15
 200 625 200 625 170 625 c 2,16,-1
 25 625 l 1,17,-1
 25 710 l 1,18,-1
 205 710 l 2,19,20
 262 710 262 710 291 683.5 c 128,-1,21
 320 657 320 657 320 616 c 0,22,23
 320 556 320 556 267 538 c 1,24,25
 291 532 291 532 310.5 510.5 c 128,-1,26
 330 489 330 489 330 442.5 c 128,-1,27
 330 396 330 396 301 368 c 128,-1,28
 272 340 272 340 215 340 c 0,0,1
EndSplineSet
EndChar

StartChar: acute
Encoding: 180 180 117
Width: 260
GlyphClass: 2
Flags: W
LayerCount: 2
Fore
SplineSet
10 635 m 1,0,-1
 70 805 l 1,1,-1
 250 805 l 1,2,-1
 140 635 l 1,3,-1
 10 635 l 1,0,-1
EndSplineSet
EndChar

StartChar: mu
Encoding: 181 181 118
AltUni2: 0003bc.ffffffff.0
Width: 640
GlyphClass: 2
Flags: W
LayerCount: 2
Fore
SplineSet
425 50 m 1,0,1
 332 0 332 0 245 0 c 2,2,-1
 226 0 l 1,3,-1
 226 -170 l 1,4,-1
 50 -170 l 1,5,-1
 50 530 l 1,6,-1
 226 530 l 1,7,-1
 226 180 l 2,8,9
 226 165 226 165 236 155 c 128,-1,10
 246 145 246 145 261 145 c 2,11,-1
 295 145 l 2,12,13
 348 145 348 145 415 165 c 1,14,-1
 415 530 l 1,15,-1
 590 530 l 1,16,-1
 590 0 l 1,17,-1
 435 0 l 1,18,-1
 425 50 l 1,0,1
EndSplineSet
EndChar

StartChar: paragraph
Encoding: 182 182 119
Width: 690
GlyphClass: 2
Flags: W
LayerCount: 2
Fore
SplineSet
62.5 657.5 m 128,-1,1
 105 700 105 700 180 700 c 2,2,-1
 670 700 l 1,3,-1
 670 560 l 1,4,-1
 580 560 l 1,5,-1
 580 -170 l 1,6,-1
 425 -170 l 1,7,-1
 425 560 l 1,8,-1
 365 560 l 1,9,-1
 365 -170 l 1,10,-1
 210 -170 l 1,11,-1
 210 260 l 1,12,-1
 180 260 l 2,13,14
 105 260 105 260 62.5 302.5 c 128,-1,15
 20 345 20 345 20 420 c 2,16,-1
 20 540 l 2,17,0
 20 615 20 615 62.5 657.5 c 128,-1,1
EndSplineSet
EndChar

StartChar: periodcentered
Encoding: 183 183 120
Width: 300
GlyphClass: 2
Flags: W
LayerCount: 2
Fore
SplineSet
60 425 m 1,0,-1
 240 425 l 1,1,-1
 240 275 l 1,2,-1
 60 275 l 1,3,-1
 60 425 l 1,0,-1
EndSplineSet
EndChar

StartChar: cedilla
Encoding: 184 184 121
Width: 220
GlyphClass: 2
Flags: W
LayerCount: 2
Fore
SplineSet
110 20 m 1,0,-1
 110 -20 l 1,1,-1
 120 -20 l 2,2,3
 169 -20 169 -20 194.5 -44 c 128,-1,4
 220 -68 220 -68 220 -110 c 256,5,6
 220 -152 220 -152 194.5 -176 c 128,-1,7
 169 -200 169 -200 120 -200 c 2,8,-1
 0 -200 l 1,9,-1
 0 -135 l 1,10,-1
 100 -135 l 2,11,12
 135 -135 135 -135 135 -110 c 256,13,14
 135 -85 135 -85 100 -85 c 2,15,-1
 25 -85 l 1,16,-1
 25 20 l 1,17,-1
 110 20 l 1,0,-1
EndSplineSet
EndChar

StartChar: onesuperior
Encoding: 185 185 122
Width: 250
GlyphClass: 2
Flags: W
LayerCount: 2
Fore
SplineSet
100 340 m 1,0,-1
 100 610 l 1,1,-1
 40 590 l 1,2,-1
 10 665 l 1,3,-1
 110 710 l 1,4,-1
 220 710 l 1,5,-1
 220 340 l 1,6,-1
 100 340 l 1,0,-1
EndSplineSet
EndChar

StartChar: ordmasculine
Encoding: 186 186 123
Width: 380
GlyphClass: 2
Flags: W
LayerCount: 2
Fore
SplineSet
360 465 m 2,0,1
 360 405 360 405 327.5 372.5 c 128,-1,2
 295 340 295 340 235 340 c 2,3,-1
 145 340 l 2,4,5
 85 340 85 340 52.5 372.5 c 128,-1,6
 20 405 20 405 20 465 c 2,7,-1
 20 585 l 2,8,9
 20 645 20 645 52.5 677.5 c 128,-1,10
 85 710 85 710 145 710 c 2,11,-1
 235 710 l 2,12,13
 295 710 295 710 327.5 677.5 c 128,-1,14
 360 645 360 645 360 585 c 2,15,-1
 360 465 l 2,0,1
240 585 m 2,16,17
 240 620 240 620 205 620 c 2,18,-1
 175 620 l 2,19,20
 140 620 140 620 140 585 c 2,21,-1
 140 465 l 2,22,23
 140 430 140 430 175 430 c 2,24,-1
 205 430 l 2,25,26
 240 430 240 430 240 465 c 2,27,-1
 240 585 l 2,16,17
EndSplineSet
EndChar

StartChar: guillemotright
Encoding: 187 187 124
Width: 611
GlyphClass: 2
Flags: W
LayerCount: 2
Fore
SplineSet
20 441 m 1,0,-1
 121 530 l 1,1,-1
 351 265 l 1,2,-1
 121 0 l 1,3,-1
 20 90 l 1,4,-1
 172 265 l 1,5,-1
 20 441 l 1,0,-1
422 265 m 1,6,-1
 270 441 l 1,7,-1
 371 530 l 1,8,-1
 601 265 l 1,9,-1
 371 0 l 1,10,-1
 270 90 l 1,11,-1
 422 265 l 1,6,-1
EndSplineSet
EndChar

StartChar: onequarter
Encoding: 188 188 125
Width: 750
GlyphClass: 2
Flags: W
LayerCount: 2
Fore
SplineSet
70 0 m 1,0,-1
 470 700 l 1,1,-1
 620 700 l 1,2,-1
 230 0 l 1,3,-1
 70 0 l 1,0,-1
100 340 m 1,4,-1
 100 610 l 1,5,-1
 40 590 l 1,6,-1
 10 665 l 1,7,-1
 110 710 l 1,8,-1
 220 710 l 1,9,-1
 220 340 l 1,10,-1
 100 340 l 1,4,-1
585 65 m 1,11,-1
 390 65 l 1,12,-1
 390 155 l 1,13,-1
 505 360 l 1,14,-1
 630 360 l 1,15,-1
 515 155 l 1,16,-1
 585 155 l 1,17,-1
 585 220 l 1,18,-1
 695 220 l 1,19,-1
 695 155 l 1,20,-1
 730 155 l 1,21,-1
 730 65 l 1,22,-1
 695 65 l 1,23,-1
 695 -10 l 1,24,-1
 585 -10 l 1,25,-1
 585 65 l 1,11,-1
EndSplineSet
EndChar

StartChar: onehalf
Encoding: 189 189 126
Width: 785
GlyphClass: 2
Flags: W
LayerCount: 2
Fore
SplineSet
70 0 m 1,0,-1
 470 700 l 1,1,-1
 620 700 l 1,2,-1
 230 0 l 1,3,-1
 70 0 l 1,0,-1
100 340 m 1,4,-1
 100 610 l 1,5,-1
 40 590 l 1,6,-1
 10 665 l 1,7,-1
 110 710 l 1,8,-1
 220 710 l 1,9,-1
 220 340 l 1,10,-1
 100 340 l 1,4,-1
755 244 m 2,11,12
 755 183 755 183 700 145 c 2,13,-1
 605 80 l 1,14,-1
 755 80 l 1,15,-1
 755 -10 l 1,16,-1
 450 -10 l 1,17,-1
 450 90 l 1,18,-1
 635 220 l 1,19,-1
 635 240 l 2,20,21
 635 270 635 270 605 270 c 2,22,-1
 460 270 l 1,23,-1
 460 360 l 1,24,-1
 640 360 l 2,25,26
 697 360 697 360 726 332 c 128,-1,27
 755 304 755 304 755 254 c 2,28,-1
 755 244 l 2,11,12
EndSplineSet
EndChar

StartChar: threequarters
Encoding: 190 190 127
Width: 820
GlyphClass: 2
Flags: W
LayerCount: 2
Fore
SplineSet
140 0 m 1,0,-1
 540 700 l 1,1,-1
 690 700 l 1,2,-1
 300 0 l 1,3,-1
 140 0 l 1,0,-1
655 65 m 1,4,-1
 460 65 l 1,5,-1
 460 155 l 1,6,-1
 575 360 l 1,7,-1
 700 360 l 1,8,-1
 585 155 l 1,9,-1
 655 155 l 1,10,-1
 655 220 l 1,11,-1
 765 220 l 1,12,-1
 765 155 l 1,13,-1
 800 155 l 1,14,-1
 800 65 l 1,15,-1
 765 65 l 1,16,-1
 765 -10 l 1,17,-1
 655 -10 l 1,18,-1
 655 65 l 1,4,-1
215 340 m 0,19,20
 118 340 118 340 20 355 c 1,21,-1
 20 440 l 1,22,23
 125 425 125 425 180 425 c 0,24,25
 210 425 210 425 210 455 c 256,26,27
 210 485 210 485 180 485 c 2,28,-1
 70 485 l 1,29,-1
 70 565 l 1,30,-1
 170 565 l 2,31,32
 200 565 200 565 200 595 c 256,33,34
 200 625 200 625 170 625 c 2,35,-1
 25 625 l 1,36,-1
 25 710 l 1,37,-1
 205 710 l 2,38,39
 262 710 262 710 291 683.5 c 128,-1,40
 320 657 320 657 320 616 c 0,41,42
 320 556 320 556 267 538 c 1,43,44
 291 532 291 532 310.5 510.5 c 128,-1,45
 330 489 330 489 330 442.5 c 128,-1,46
 330 396 330 396 301 368 c 128,-1,47
 272 340 272 340 215 340 c 0,19,20
EndSplineSet
EndChar

StartChar: questiondown
Encoding: 191 191 128
Width: 580
GlyphClass: 2
Flags: W
LayerCount: 2
Fore
SplineSet
570 -160 m 1,0,1
 377 -180 377 -180 210 -180 c 0,2,3
 112 -180 112 -180 66 -134 c 128,-1,4
 20 -88 20 -88 20 10 c 2,5,-1
 20 55 l 2,6,7
 20 130 20 130 50 169 c 0,8,9
 81 210 81 210 155 235 c 2,10,-1
 255 270 l 1,11,-1
 255 320 l 1,12,-1
 435 320 l 1,13,-1
 435 180 l 1,14,-1
 200 95 l 1,15,-1
 200 10 l 2,16,17
 200 -13 200 -13 213.5 -26.5 c 128,-1,18
 227 -40 227 -40 250 -40 c 0,19,20
 349 -40 349 -40 570 -25 c 1,21,-1
 570 -160 l 1,0,1
435 380 m 1,22,-1
 255 380 l 1,23,-1
 255 530 l 1,24,-1
 435 530 l 1,25,-1
 435 380 l 1,22,-1
EndSplineSet
EndChar

StartChar: AE
Encoding: 198 198 135
Width: 995
GlyphClass: 2
Flags: W
LayerCount: 2
Fore
SplineSet
-10 0 m 1,0,-1
 255 700 l 1,1,-1
 975 700 l 1,2,-1
 975 560 l 1,3,-1
 640 560 l 1,4,-1
 640 425 l 1,5,-1
 895 425 l 1,6,-1
 895 285 l 1,7,-1
 640 285 l 1,8,-1
 640 140 l 1,9,-1
 975 140 l 1,10,-1
 975 0 l 1,11,-1
 460 0 l 1,12,-1
 460 125 l 1,13,-1
 230 125 l 1,14,-1
 185 0 l 1,15,-1
 -10 0 l 1,0,-1
275 255 m 1,16,-1
 460 255 l 1,17,-1
 460 560 l 1,18,-1
 380 560 l 1,19,-1
 275 255 l 1,16,-1
EndSplineSet
EndChar

StartChar: Eth
Encoding: 208 208 145
Width: 740
GlyphClass: 2
Flags: W
LayerCount: 2
Fore
SplineSet
80 420 m 1,0,-1
 80 700 l 1,1,-1
 470 700 l 2,2,3
 583 700 583 700 641.5 641.5 c 128,-1,4
 700 583 700 583 700 470 c 2,5,-1
 700 230 l 2,6,7
 700 117 700 117 641.5 58.5 c 128,-1,8
 583 0 583 0 470 0 c 2,9,-1
 80 0 l 1,10,-1
 80 285 l 1,11,-1
 20 285 l 1,12,-1
 20 420 l 1,13,-1
 80 420 l 1,0,-1
520 470 m 2,14,15
 520 560 520 560 430 560 c 2,16,-1
 260 560 l 1,17,-1
 260 420 l 1,18,-1
 380 420 l 1,19,-1
 380 285 l 1,20,-1
 260 285 l 1,21,-1
 260 140 l 1,22,-1
 430 140 l 2,23,24
 520 140 520 140 520 230 c 2,25,-1
 520 470 l 2,14,15
EndSplineSet
EndChar

StartChar: multiply
Encoding: 215 215 152
Width: 540
GlyphClass: 2
Flags: W
LayerCount: 2
Fore
SplineSet
270 450 m 1,0,-1
 400 580 l 1,1,-1
 500 480 l 1,2,-1
 370 350 l 1,3,-1
 500 220 l 1,4,-1
 400 120 l 1,5,-1
 270 250 l 1,6,-1
 140 120 l 1,7,-1
 40 220 l 1,8,-1
 170 350 l 1,9,-1
 40 480 l 1,10,-1
 140 580 l 1,11,-1
 270 450 l 1,0,-1
EndSplineSet
EndChar

StartChar: Oslash
Encoding: 216 216 153
Width: 730
GlyphClass: 2
Flags: W
LayerCount: 2
Fore
SplineSet
25 50 m 1,0,-1
 56 84 l 1,1,2
 40 125 40 125 40 190 c 2,3,-1
 40 510 l 2,4,5
 40 615 40 615 87.5 662.5 c 128,-1,6
 135 710 135 710 240 710 c 2,7,-1
 490 710 l 2,8,9
 562 710 562 710 609 686 c 1,10,-1
 635 715 l 1,11,-1
 705 650 l 1,12,-1
 673 615 l 1,13,14
 690 575 690 575 690 510 c 2,15,-1
 690 190 l 2,16,17
 690 85 690 85 642.5 37.5 c 128,-1,18
 595 -10 595 -10 490 -10 c 2,19,-1
 240 -10 l 2,20,21
 167 -10 167 -10 121 13 c 1,22,-1
 95 -15 l 1,23,-1
 25 50 l 1,0,-1
220 262 m 1,24,-1
 491 558 l 1,25,26
 476 570 476 570 450 570 c 2,27,-1
 280 570 l 2,28,29
 220 570 220 570 220 510 c 2,30,-1
 220 262 l 1,24,-1
510 437 m 1,31,-1
 238 141 l 1,32,33
 252 130 252 130 280 130 c 2,34,-1
 450 130 l 2,35,36
 510 130 510 130 510 190 c 2,37,-1
 510 437 l 1,31,-1
EndSplineSet
EndChar

StartChar: Thorn
Encoding: 222 222 159
Width: 730
GlyphClass: 2
Flags: W
LayerCount: 2
Fore
SplineSet
700 270 m 2,0,1
 700 165 700 165 652.5 117.5 c 128,-1,2
 605 70 605 70 500 70 c 2,3,-1
 240 70 l 1,4,-1
 240 -10 l 1,5,-1
 60 -10 l 1,6,-1
 60 710 l 1,7,-1
 240 710 l 1,8,-1
 240 630 l 1,9,-1
 500 630 l 2,10,11
 605 630 605 630 652.5 582.5 c 128,-1,12
 700 535 700 535 700 430 c 2,13,-1
 700 270 l 2,0,1
520 430 m 2,14,15
 520 490 520 490 460 490 c 2,16,-1
 240 490 l 1,17,-1
 240 210 l 1,18,-1
 460 210 l 2,19,20
 520 210 520 210 520 270 c 2,21,-1
 520 430 l 2,14,15
EndSplineSet
EndChar

StartChar: germandbls
Encoding: 223 223 160
Width: 620
GlyphClass: 2
Flags: W
LayerCount: 2
Fore
SplineSet
559 31 m 128,-1,1
 518 -10 518 -10 452.5 -10 c 128,-1,2
 387 -10 387 -10 320 0 c 1,3,-1
 320 125 l 1,4,-1
 390 125 l 2,5,6
 405 125 405 125 415 135 c 128,-1,7
 425 145 425 145 425 160 c 2,8,-1
 425 250 l 2,9,10
 425 290 425 290 385 290 c 2,11,-1
 295 290 l 1,12,-1
 295 425 l 1,13,-1
 305 425 l 2,14,15
 345 425 345 425 345 465 c 2,16,-1
 345 535 l 2,17,18
 345 575 345 575 305 575 c 2,19,-1
 265 575 l 2,20,21
 225 575 225 575 225 535 c 2,22,-1
 225 0 l 1,23,-1
 50 0 l 1,24,-1
 50 550 l 2,25,26
 50 625 50 625 92.5 667.5 c 128,-1,27
 135 710 135 710 210 710 c 2,28,-1
 360 710 l 2,29,30
 435 710 435 710 477.5 667.5 c 128,-1,31
 520 625 520 625 520 550 c 2,32,-1
 520 460 l 2,33,34
 520 405 520 405 490 375 c 1,35,36
 539 364 539 364 569.5 330.5 c 128,-1,37
 600 297 600 297 600 240 c 2,38,-1
 600 140 l 2,39,0
 600 72 600 72 559 31 c 128,-1,1
EndSplineSet
EndChar

StartChar: ae
Encoding: 230 230 167
Width: 920
GlyphClass: 2
Flags: W
LayerCount: 2
Fore
SplineSet
75 520 m 1,0,1
 228 540 228 540 360 540 c 0,2,3
 422 540 422 540 465 505 c 1,4,5
 504 540 504 540 570 540 c 2,6,-1
 720 540 l 2,7,8
 795 540 795 540 837.5 497.5 c 128,-1,9
 880 455 880 455 880 380 c 2,10,-1
 880 205 l 1,11,-1
 545 205 l 1,12,-1
 545 150 l 2,13,14
 545 139 545 139 555 129.5 c 128,-1,15
 565 120 565 120 580 120 c 0,16,17
 680 120 680 120 860 135 c 1,18,-1
 860 10 l 1,19,20
 673 -10 673 -10 520 -10 c 0,21,22
 451 -10 451 -10 414 22 c 0,23,24
 397 36 397 36 390 55 c 1,25,26
 340 20 340 20 289 5 c 128,-1,27
 238 -10 238 -10 200 -10 c 2,28,-1
 175 -10 l 2,29,30
 107 -10 107 -10 66 31 c 128,-1,31
 25 72 25 72 25 140 c 2,32,-1
 25 185 l 2,33,34
 25 253 25 253 66 294 c 128,-1,35
 107 335 107 335 175 335 c 2,36,-1
 370 335 l 1,37,-1
 370 379 l 1,38,39
 368 393 368 393 358.5 401.5 c 128,-1,40
 349 410 349 410 322 410 c 0,41,42
 270 410 270 410 166 402 c 2,43,-1
 75 395 l 1,44,-1
 75 520 l 1,0,1
585 415 m 2,45,46
 545 415 545 415 545 375 c 2,47,-1
 545 330 l 1,48,-1
 705 330 l 1,49,-1
 705 375 l 2,50,51
 705 415 705 415 665 415 c 2,52,-1
 585 415 l 2,45,46
250 130 m 2,53,54
 303 130 303 130 370 150 c 1,55,-1
 370 210 l 1,56,-1
 235 210 l 2,57,58
 220 210 220 210 210 200 c 128,-1,59
 200 190 200 190 200 175 c 2,60,-1
 200 165 l 2,61,62
 200 150 200 150 210 140 c 128,-1,63
 220 130 220 130 235 130 c 2,64,-1
 250 130 l 2,53,54
EndSplineSet
EndChar

StartChar: igrave
Encoding: 236 236 173
Width: 320
GlyphClass: 2
Flags: W
LayerCount: 2
Fore
SplineSet
270 530 m 1,0,-1
 270 0 l 1,1,-1
 95 0 l 1,2,-1
 95 395 l 1,3,-1
 20 395 l 1,4,-1
 20 530 l 1,5,-1
 270 530 l 1,0,-1
134 570 m 1,6,-1
 24 740 l 1,7,-1
 194 740 l 1,8,-1
 254 570 l 1,9,-1
 134 570 l 1,6,-1
EndSplineSet
EndChar

StartChar: iacute
Encoding: 237 237 174
Width: 320
GlyphClass: 2
Flags: W
LayerCount: 2
Fore
SplineSet
270 530 m 1,0,-1
 270 0 l 1,1,-1
 95 0 l 1,2,-1
 95 395 l 1,3,-1
 20 395 l 1,4,-1
 20 530 l 1,5,-1
 270 530 l 1,0,-1
100 571 m 1,6,-1
 160 741 l 1,7,-1
 340 741 l 1,8,-1
 230 571 l 1,9,-1
 100 571 l 1,6,-1
EndSplineSet
EndChar

StartChar: icircumflex
Encoding: 238 238 175
Width: 320
GlyphClass: 2
Flags: W
LayerCount: 2
Fore
SplineSet
270 530 m 1,0,-1
 270 0 l 1,1,-1
 95 0 l 1,2,-1
 95 395 l 1,3,-1
 20 395 l 1,4,-1
 20 530 l 1,5,-1
 270 530 l 1,0,-1
-25 569 m 1,6,-1
 95 739 l 1,7,-1
 235 739 l 1,8,-1
 355 569 l 1,9,-1
 230 569 l 1,10,-1
 165 649 l 1,11,-1
 100 569 l 1,12,-1
 -25 569 l 1,6,-1
EndSplineSet
EndChar

StartChar: idieresis
Encoding: 239 239 176
Width: 320
GlyphClass: 2
Flags: W
LayerCount: 2
Fore
SplineSet
270 530 m 1,0,-1
 270 0 l 1,1,-1
 95 0 l 1,2,-1
 95 395 l 1,3,-1
 20 395 l 1,4,-1
 20 530 l 1,5,-1
 270 530 l 1,0,-1
190 710 m 1,6,-1
 360 710 l 1,7,-1
 360 570 l 1,8,-1
 190 570 l 1,9,-1
 190 710 l 1,6,-1
-40 710 m 1,10,-1
 130 710 l 1,11,-1
 130 570 l 1,12,-1
 -40 570 l 1,13,-1
 -40 710 l 1,10,-1
EndSplineSet
EndChar

StartChar: eth
Encoding: 240 240 177
Width: 610
GlyphClass: 2
Flags: W
LayerCount: 2
Fore
SplineSet
235 440 m 2,0,1
 308 440 308 440 405 420 c 1,2,-1
 405 485 l 2,3,4
 405 511 405 511 387.5 527 c 128,-1,5
 370 543 370 543 340 546 c 2,6,-1
 300 550 l 1,7,-1
 295 495 l 1,8,-1
 180 505 l 1,9,-1
 185 562 l 1,10,-1
 105 570 l 1,11,-1
 120 710 l 1,12,-1
 199 703 l 1,13,-1
 205 765 l 1,14,-1
 320 755 l 1,15,-1
 314 692 l 1,16,-1
 380 685 l 2,17,18
 471 675 471 675 525 620 c 0,19,20
 580 563 580 563 580 485 c 2,21,-1
 580 150 l 2,22,23
 580 75 580 75 537.5 32.5 c 128,-1,24
 495 -10 495 -10 420 -10 c 2,25,-1
 200 -10 l 2,26,27
 125 -10 125 -10 82.5 32.5 c 128,-1,28
 40 75 40 75 40 150 c 2,29,-1
 40 290 l 2,30,31
 40 358 40 358 81 399 c 128,-1,32
 122 440 122 440 190 440 c 2,33,-1
 235 440 l 2,0,1
365 125 m 2,34,35
 405 125 405 125 405 165 c 2,36,-1
 405 295 l 1,37,38
 386 297 386 297 368 300 c 0,39,40
 327 305 327 305 285 305 c 2,41,-1
 250 305 l 2,42,43
 235 305 235 305 225 295 c 128,-1,44
 215 285 215 285 215 270 c 2,45,-1
 215 165 l 2,46,47
 215 125 215 125 255 125 c 2,48,-1
 365 125 l 2,34,35
EndSplineSet
EndChar

StartChar: divide
Encoding: 247 247 184
Width: 540
GlyphClass: 2
Flags: W
LayerCount: 2
Fore
SplineSet
510 420 m 1,0,-1
 510 280 l 1,1,-1
 30 280 l 1,2,-1
 30 420 l 1,3,-1
 510 420 l 1,0,-1
190 230 m 1,4,-1
 350 230 l 1,5,-1
 350 90 l 1,6,-1
 190 90 l 1,7,-1
 190 230 l 1,4,-1
190 610 m 1,8,-1
 350 610 l 1,9,-1
 350 470 l 1,10,-1
 190 470 l 1,11,-1
 190 610 l 1,8,-1
EndSplineSet
EndChar

StartChar: oslash
Encoding: 248 248 185
Width: 630
GlyphClass: 2
Flags: W
LayerCount: 2
Fore
SplineSet
580 443 m 1,0,1
 590 415 590 415 590 380 c 2,2,-1
 590 150 l 2,3,4
 590 75 590 75 547.5 32.5 c 128,-1,5
 505 -10 505 -10 430 -10 c 2,6,-1
 200 -10 l 2,7,8
 144 -10 144 -10 106 13 c 1,9,-1
 75 -15 l 1,10,-1
 15 55 l 1,11,-1
 50 86 l 1,12,13
 40 113 40 113 40 150 c 2,14,-1
 40 380 l 2,15,16
 40 455 40 455 82.5 497.5 c 128,-1,17
 125 540 125 540 200 540 c 2,18,-1
 430 540 l 2,19,20
 485 540 485 540 523 516 c 1,21,-1
 555 545 l 1,22,-1
 615 475 l 1,23,-1
 580 443 l 1,0,1
415 293 m 1,24,-1
 235 130 l 1,25,26
 245 125 245 125 255 125 c 2,27,-1
 375 125 l 2,28,29
 415 125 415 125 415 165 c 2,30,-1
 415 293 l 1,24,-1
215 236 m 1,31,-1
 395 400 l 1,32,33
 385 405 385 405 375 405 c 2,34,-1
 255 405 l 2,35,36
 215 405 215 405 215 365 c 2,37,-1
 215 236 l 1,31,-1
EndSplineSet
EndChar

StartChar: thorn
Encoding: 254 254 191
Width: 630
GlyphClass: 2
Flags: W
LayerCount: 2
Fore
SplineSet
430 530 m 2,0,1
 505 530 505 530 547.5 487.5 c 128,-1,2
 590 445 590 445 590 370 c 2,3,-1
 590 160 l 2,4,5
 590 85 590 85 547.5 42.5 c 128,-1,6
 505 0 505 0 430 0 c 2,7,-1
 225 0 l 1,8,-1
 225 -170 l 1,9,-1
 50 -170 l 1,10,-1
 50 700 l 1,11,-1
 225 700 l 1,12,-1
 225 530 l 1,13,-1
 430 530 l 2,0,1
415 355 m 2,14,15
 415 395 415 395 375 395 c 2,16,-1
 225 395 l 1,17,-1
 225 135 l 1,18,-1
 375 135 l 2,19,20
 415 135 415 135 415 175 c 2,21,-1
 415 355 l 2,14,15
EndSplineSet
EndChar

StartChar: abreve
Encoding: 259 259 196
Width: 595
GlyphClass: 2
Flags: W
LayerCount: 2
Fore
SplineSet
260 580 m 2,0,1
 130 580 130 580 130 710 c 2,2,-1
 130 740 l 1,3,-1
 260 740 l 1,4,-1
 260 715 l 2,5,6
 260 700 260 700 270 690 c 128,-1,7
 280 680 280 680 295 680 c 2,8,-1
 325 680 l 2,9,10
 340 680 340 680 350 690 c 128,-1,11
 360 700 360 700 360 715 c 2,12,-1
 360 740 l 1,13,-1
 490 740 l 1,14,-1
 490 710 l 2,15,16
 490 580 490 580 360 580 c 2,17,-1
 260 580 l 2,0,1
260 130 m 2,18,19
 313 130 313 130 380 150 c 1,20,-1
 380 210 l 1,21,-1
 235 210 l 2,22,23
 220 210 220 210 210 200 c 128,-1,24
 200 190 200 190 200 175 c 2,25,-1
 200 165 l 2,26,27
 200 150 200 150 210 140 c 128,-1,28
 220 130 220 130 235 130 c 2,29,-1
 260 130 l 2,18,19
75 520 m 1,30,31
 258 540 258 540 405 540 c 0,32,33
 473 540 473 540 514 499 c 128,-1,34
 555 458 555 458 555 390 c 2,35,-1
 555 0 l 1,36,-1
 400 0 l 1,37,-1
 390 50 l 1,38,39
 343 19 343 19 293.5 4.5 c 128,-1,40
 244 -10 244 -10 210 -10 c 2,41,-1
 175 -10 l 2,42,43
 107 -10 107 -10 66 31 c 128,-1,44
 25 72 25 72 25 140 c 2,45,-1
 25 185 l 2,46,47
 25 253 25 253 66 294 c 128,-1,48
 107 335 107 335 175 335 c 2,49,-1
 380 335 l 1,50,-1
 380 375 l 2,51,52
 380 390 380 390 370 400 c 128,-1,53
 360 410 360 410 345 410 c 0,54,55
 280 410 280 410 201.5 404 c 128,-1,56
 123 398 123 398 75 395 c 1,57,-1
 75 520 l 1,30,31
EndSplineSet
EndChar

StartChar: dcaron
Encoding: 271 271 204
Width: 820
GlyphClass: 2
Flags: W
LayerCount: 2
Fore
SplineSet
630 700 m 1,0,-1
 800 700 l 1,1,-1
 800 570 l 1,2,-1
 730 460 l 1,3,-1
 650 460 l 1,4,-1
 690 560 l 1,5,-1
 630 560 l 1,6,-1
 630 700 l 1,0,-1
425 0 m 1,7,-1
 415 50 l 1,8,9
 368 19 368 19 318.5 4.5 c 128,-1,10
 269 -10 269 -10 235 -10 c 2,11,-1
 190 -10 l 2,12,13
 122 -10 122 -10 81 31 c 128,-1,14
 40 72 40 72 40 140 c 2,15,-1
 40 370 l 2,16,17
 40 445 40 445 82.5 487.5 c 128,-1,18
 125 530 125 530 200 530 c 2,19,-1
 405 530 l 1,20,-1
 405 700 l 1,21,-1
 580 700 l 1,22,-1
 580 0 l 1,23,-1
 425 0 l 1,7,-1
285 135 m 2,24,25
 338 135 338 135 405 155 c 1,26,-1
 405 395 l 1,27,-1
 255 395 l 2,28,29
 215 395 215 395 215 355 c 2,30,-1
 215 170 l 2,31,32
 215 155 215 155 225 145 c 128,-1,33
 235 135 235 135 250 135 c 2,34,-1
 285 135 l 2,24,25
EndSplineSet
EndChar

StartChar: Dcroat
Encoding: 272 272 205
Width: 740
GlyphClass: 2
Flags: W
LayerCount: 2
Fore
SplineSet
80 420 m 1,0,-1
 80 700 l 1,1,-1
 470 700 l 2,2,3
 583 700 583 700 641.5 641.5 c 128,-1,4
 700 583 700 583 700 470 c 2,5,-1
 700 230 l 2,6,7
 700 117 700 117 641.5 58.5 c 128,-1,8
 583 0 583 0 470 0 c 2,9,-1
 80 0 l 1,10,-1
 80 285 l 1,11,-1
 20 285 l 1,12,-1
 20 420 l 1,13,-1
 80 420 l 1,0,-1
520 470 m 2,14,15
 520 560 520 560 430 560 c 2,16,-1
 260 560 l 1,17,-1
 260 420 l 1,18,-1
 380 420 l 1,19,-1
 380 285 l 1,20,-1
 260 285 l 1,21,-1
 260 140 l 1,22,-1
 430 140 l 2,23,24
 520 140 520 140 520 230 c 2,25,-1
 520 470 l 2,14,15
EndSplineSet
EndChar

StartChar: dcroat
Encoding: 273 273 206
Width: 660
GlyphClass: 2
Flags: W
LayerCount: 2
Fore
SplineSet
425 0 m 1,0,-1
 415 50 l 1,1,2
 368 19 368 19 318.5 4.5 c 128,-1,3
 269 -10 269 -10 235 -10 c 2,4,-1
 190 -10 l 2,5,6
 122 -10 122 -10 81 31 c 128,-1,7
 40 72 40 72 40 140 c 2,8,-1
 40 290 l 2,9,10
 40 365 40 365 82.5 407.5 c 128,-1,11
 125 450 125 450 200 450 c 2,12,-1
 405 450 l 1,13,-1
 405 495 l 1,14,-1
 280 495 l 1,15,-1
 280 620 l 1,16,-1
 405 620 l 1,17,-1
 405 700 l 1,18,-1
 560 700 l 1,19,-1
 580 620 l 1,20,-1
 640 620 l 1,21,-1
 640 495 l 1,22,-1
 580 495 l 1,23,-1
 580 0 l 1,24,-1
 425 0 l 1,0,-1
285 135 m 2,25,26
 338 135 338 135 405 155 c 1,27,-1
 405 315 l 1,28,-1
 255 315 l 2,29,30
 215 315 215 315 215 275 c 2,31,-1
 215 170 l 2,32,33
 215 155 215 155 225 145 c 128,-1,34
 235 135 235 135 250 135 c 2,35,-1
 285 135 l 2,25,26
EndSplineSet
EndChar

StartChar: eogonek
Encoding: 281 281 212
Width: 600
GlyphClass: 2
Flags: W
LayerCount: 2
Fore
SplineSet
530 -190 m 1,0,1
 483 -200 483 -200 430 -200 c 128,-1,2
 377 -200 377 -200 351 -176.5 c 128,-1,3
 325 -153 325 -153 325 -119 c 128,-1,4
 325 -85 325 -85 341 -63.5 c 128,-1,5
 357 -42 357 -42 378 -28 c 0,6,7
 410 -7 410 -7 438 0 c 1,8,9
 435 0 435 0 409 -1.5 c 128,-1,10
 383 -3 383 -3 346 -5 c 0,11,12
 255 -10 255 -10 188.5 -10 c 128,-1,13
 122 -10 122 -10 81 31 c 128,-1,14
 40 72 40 72 40 140 c 2,15,-1
 40 380 l 2,16,17
 40 455 40 455 82.5 497.5 c 128,-1,18
 125 540 125 540 200 540 c 2,19,-1
 400 540 l 2,20,21
 475 540 475 540 517.5 497.5 c 128,-1,22
 560 455 560 455 560 380 c 2,23,-1
 560 195 l 1,24,-1
 215 195 l 1,25,-1
 215 155 l 2,26,27
 215 140 215 140 225 130 c 128,-1,28
 235 120 235 120 250 120 c 0,29,30
 349 120 349 120 540 135 c 1,31,-1
 540 10 l 1,32,33
 420 -54 420 -54 420 -100 c 0,34,35
 420 -125 420 -125 453.5 -125 c 128,-1,36
 487 -125 487 -125 530 -115 c 1,37,-1
 530 -190 l 1,0,1
255 415 m 2,38,39
 215 415 215 415 215 375 c 2,40,-1
 215 320 l 1,41,-1
 385 320 l 1,42,-1
 385 375 l 2,43,44
 385 415 385 415 345 415 c 2,45,-1
 255 415 l 2,38,39
EndSplineSet
EndChar

StartChar: gbreve
Encoding: 287 287 216
Width: 620
GlyphClass: 2
Flags: W
LayerCount: 2
Fore
SplineSet
270 570 m 2,0,1
 140 570 140 570 140 700 c 2,2,-1
 140 730 l 1,3,-1
 270 730 l 1,4,-1
 270 705 l 2,5,6
 270 690 270 690 280 680 c 128,-1,7
 290 670 290 670 305 670 c 2,8,-1
 335 670 l 2,9,10
 350 670 350 670 360 680 c 128,-1,11
 370 690 370 690 370 705 c 2,12,-1
 370 730 l 1,13,-1
 500 730 l 1,14,-1
 500 700 l 2,15,16
 500 570 500 570 370 570 c 2,17,-1
 270 570 l 2,0,1
395 40 m 1,18,19
 298 20 298 20 225 20 c 2,20,-1
 190 20 l 2,21,22
 122 20 122 20 81 61 c 128,-1,23
 40 102 40 102 40 170 c 2,24,-1
 40 370 l 2,25,26
 40 445 40 445 82.5 487.5 c 128,-1,27
 125 530 125 530 200 530 c 2,28,-1
 570 530 l 1,29,-1
 570 -30 l 2,30,31
 570 -98 570 -98 529 -139 c 128,-1,32
 488 -180 488 -180 420 -180 c 0,33,34
 263 -180 263 -180 70 -160 c 1,35,-1
 70 -30 l 1,36,37
 261 -45 261 -45 360 -45 c 0,38,39
 375 -45 375 -45 385 -35 c 128,-1,40
 395 -25 395 -25 395 -10 c 2,41,-1
 395 40 l 1,18,19
275 155 m 2,42,43
 338 155 338 155 395 165 c 1,44,-1
 395 395 l 1,45,-1
 255 395 l 2,46,47
 215 395 215 395 215 355 c 2,48,-1
 215 190 l 2,49,50
 215 175 215 175 225 165 c 128,-1,51
 235 155 235 155 250 155 c 2,52,-1
 275 155 l 2,42,43
EndSplineSet
EndChar

StartChar: gcommaaccent
Encoding: 291 291 218
Width: 620
GlyphClass: 2
Flags: W
LayerCount: 2
Fore
SplineSet
400 580 m 1,0,-1
 230 580 l 1,1,-1
 230 710 l 1,2,-1
 300 820 l 1,3,-1
 380 820 l 1,4,-1
 340 720 l 1,5,-1
 400 720 l 1,6,-1
 400 580 l 1,0,-1
395 40 m 1,7,8
 298 20 298 20 225 20 c 2,9,-1
 190 20 l 2,10,11
 122 20 122 20 81 61 c 128,-1,12
 40 102 40 102 40 170 c 2,13,-1
 40 370 l 2,14,15
 40 445 40 445 82.5 487.5 c 128,-1,16
 125 530 125 530 200 530 c 2,17,-1
 570 530 l 1,18,-1
 570 -30 l 2,19,20
 570 -98 570 -98 529 -139 c 128,-1,21
 488 -180 488 -180 420 -180 c 0,22,23
 263 -180 263 -180 70 -160 c 1,24,-1
 70 -30 l 1,25,26
 261 -45 261 -45 360 -45 c 0,27,28
 375 -45 375 -45 385 -35 c 128,-1,29
 395 -25 395 -25 395 -10 c 2,30,-1
 395 40 l 1,7,8
275 155 m 2,31,32
 338 155 338 155 395 165 c 1,33,-1
 395 395 l 1,34,-1
 255 395 l 2,35,36
 215 395 215 395 215 355 c 2,37,-1
 215 190 l 2,38,39
 215 175 215 175 225 165 c 128,-1,40
 235 155 235 155 250 155 c 2,41,-1
 275 155 l 2,31,32
EndSplineSet
EndChar

StartChar: hbar
Encoding: 295 295 219
Width: 660
GlyphClass: 2
Flags: W
LayerCount: 2
Fore
SplineSet
255 430 m 1,0,1
 352 450 352 450 425 450 c 2,2,-1
 470 450 l 2,3,4
 538 450 538 450 579 409 c 128,-1,5
 620 368 620 368 620 300 c 2,6,-1
 620 0 l 1,7,-1
 445 0 l 1,8,-1
 445 280 l 2,9,10
 445 295 445 295 435 305 c 128,-1,11
 425 315 425 315 410 315 c 2,12,-1
 375 315 l 2,13,14
 336 315 336 315 305 311 c 128,-1,15
 274 307 274 307 255 305 c 1,16,-1
 255 0 l 1,17,-1
 80 0 l 1,18,-1
 80 495 l 1,19,-1
 20 495 l 1,20,-1
 20 620 l 1,21,-1
 80 620 l 1,22,-1
 100 700 l 1,23,-1
 255 700 l 1,24,-1
 255 620 l 1,25,-1
 380 620 l 1,26,-1
 380 495 l 1,27,-1
 255 495 l 1,28,-1
 255 430 l 1,0,1
EndSplineSet
EndChar

StartChar: itilde
Encoding: 297 297 221
Width: 320
GlyphClass: 2
Flags: W
LayerCount: 2
Fore
SplineSet
270 530 m 1,0,-1
 270 0 l 1,1,-1
 95 0 l 1,2,-1
 95 395 l 1,3,-1
 20 395 l 1,4,-1
 20 530 l 1,5,-1
 270 530 l 1,0,-1
220 695 m 0,6,7
 252 695 252 695 270 735 c 1,8,-1
 335 695 l 1,9,10
 326 663 326 663 312 639 c 0,11,12
 276 580 276 580 220 580 c 0,13,14
 199 580 199 580 183.5 588 c 128,-1,15
 168 596 168 596 154.5 605 c 128,-1,16
 141 614 141 614 128 622 c 128,-1,17
 115 630 115 630 100 630 c 0,18,19
 68 630 68 630 50 590 c 1,20,-1
 -15 630 l 1,21,22
 1 692 1 692 44 727 c 0,23,24
 66 745 66 745 93.5 745 c 128,-1,25
 121 745 121 745 136.5 737 c 128,-1,26
 152 729 152 729 165.5 720 c 128,-1,27
 179 711 179 711 192 703 c 128,-1,28
 205 695 205 695 220 695 c 0,6,7
EndSplineSet
EndChar

StartChar: imacron
Encoding: 299 299 223
Width: 320
GlyphClass: 2
Flags: W
LayerCount: 2
Fore
SplineSet
270 510 m 1,0,-1
 270 0 l 1,1,-1
 95 0 l 1,2,-1
 95 375 l 1,3,-1
 20 375 l 1,4,-1
 20 510 l 1,5,-1
 270 510 l 1,0,-1
10 700 m 1,6,-1
 310 700 l 1,7,-1
 310 580 l 1,8,-1
 10 580 l 1,9,-1
 10 700 l 1,6,-1
EndSplineSet
EndChar

StartChar: dotlessi
Encoding: 305 305 227
Width: 320
GlyphClass: 2
Flags: W
LayerCount: 2
Fore
SplineSet
270 530 m 1,0,-1
 270 0 l 1,1,-1
 95 0 l 1,2,-1
 95 395 l 1,3,-1
 20 395 l 1,4,-1
 20 530 l 1,5,-1
 270 530 l 1,0,-1
EndSplineSet
EndChar

StartChar: ij
Encoding: 307 307 228
Width: 610
GlyphClass: 2
Flags: W
LayerCount: 2
Fore
SplineSet
400 -180 m 0,0,1
 307 -180 307 -180 210 -170 c 1,2,-1
 210 -40 l 1,3,-1
 340 -40 l 2,4,5
 355 -40 355 -40 365 -30 c 128,-1,6
 375 -20 375 -20 375 -5 c 2,7,-1
 375 385 l 1,8,-1
 270 385 l 1,9,-1
 270 0 l 1,10,-1
 95 0 l 1,11,-1
 95 385 l 1,12,-1
 20 385 l 1,13,-1
 20 520 l 1,14,-1
 550 520 l 1,15,-1
 550 -30 l 2,16,17
 550 -98 550 -98 509 -139 c 128,-1,18
 468 -180 468 -180 400 -180 c 0,0,1
375 710 m 1,19,-1
 550 710 l 1,20,-1
 550 570 l 1,21,-1
 375 570 l 1,22,-1
 375 710 l 1,19,-1
95 710 m 1,23,-1
 270 710 l 1,24,-1
 270 570 l 1,25,-1
 95 570 l 1,26,-1
 95 710 l 1,23,-1
EndSplineSet
EndChar

StartChar: jcircumflex
Encoding: 309 309 230
Width: 300
GlyphClass: 2
Flags: W
LayerCount: 2
Fore
SplineSet
100 -180 m 0,0,1
 7 -180 7 -180 -90 -170 c 1,2,-1
 -90 -40 l 1,3,-1
 40 -40 l 2,4,5
 55 -40 55 -40 65 -30 c 128,-1,6
 75 -20 75 -20 75 -5 c 2,7,-1
 75 530 l 1,8,-1
 250 530 l 1,9,-1
 250 -30 l 2,10,11
 250 -98 250 -98 209 -139 c 128,-1,12
 168 -180 168 -180 100 -180 c 0,0,1
-30 570 m 1,13,-1
 90 740 l 1,14,-1
 230 740 l 1,15,-1
 350 570 l 1,16,-1
 225 570 l 1,17,-1
 160 650 l 1,18,-1
 95 570 l 1,19,-1
 -30 570 l 1,13,-1
EndSplineSet
EndChar

StartChar: kgreenlandic
Encoding: 312 312 233
Width: 600
GlyphClass: 2
Flags: W
LayerCount: 2
Fore
SplineSet
300 200 m 1,0,-1
 225 200 l 1,1,-1
 225 0 l 1,2,-1
 50 0 l 1,3,-1
 50 530 l 1,4,-1
 225 530 l 1,5,-1
 225 335 l 1,6,-1
 305 335 l 1,7,-1
 360 445 l 1,8,9
 390 509 390 509 454 532 c 0,10,11
 477 540 477 540 498 540 c 0,12,13
 532 540 532 540 560 535 c 2,14,-1
 585 530 l 1,15,-1
 585 395 l 1,16,-1
 550 395 l 2,17,18
 516 395 516 395 500 365 c 2,19,-1
 450 265 l 1,20,-1
 600 0 l 1,21,-1
 410 0 l 1,22,-1
 300 200 l 1,0,-1
EndSplineSet
EndChar

StartChar: Lcaron
Encoding: 317 317 238
Width: 615
GlyphClass: 2
Flags: W
LayerCount: 2
Fore
SplineSet
300 700 m 1,0,-1
 470 700 l 1,1,-1
 470 570 l 1,2,-1
 400 460 l 1,3,-1
 320 460 l 1,4,-1
 360 560 l 1,5,-1
 300 560 l 1,6,-1
 300 700 l 1,0,-1
240 140 m 1,7,-1
 605 140 l 1,8,-1
 605 0 l 1,9,-1
 60 0 l 1,10,-1
 60 700 l 1,11,-1
 240 700 l 1,12,-1
 240 140 l 1,7,-1
EndSplineSet
EndChar

StartChar: lcaron
Encoding: 318 318 239
Width: 465
GlyphClass: 2
Flags: W
LayerCount: 2
Fore
SplineSet
275 700 m 1,0,-1
 445 700 l 1,1,-1
 445 570 l 1,2,-1
 375 460 l 1,3,-1
 295 460 l 1,4,-1
 335 560 l 1,5,-1
 275 560 l 1,6,-1
 275 700 l 1,0,-1
320 0 m 1,7,8
 253 -10 253 -10 192.5 -10 c 128,-1,9
 132 -10 132 -10 91 31 c 128,-1,10
 50 72 50 72 50 140 c 2,11,-1
 50 700 l 1,12,-1
 225 700 l 1,13,-1
 225 165 l 2,14,15
 225 150 225 150 235 140 c 128,-1,16
 245 130 245 130 260 130 c 2,17,-1
 320 130 l 1,18,-1
 320 0 l 1,7,8
EndSplineSet
EndChar

StartChar: Lslash
Encoding: 321 321 241
Width: 635
GlyphClass: 2
Flags: W
LayerCount: 2
Fore
SplineSet
80 393 m 1,0,-1
 80 700 l 1,1,-1
 260 700 l 1,2,-1
 260 494 l 1,3,-1
 350 545 l 1,4,-1
 350 380 l 1,5,-1
 260 329 l 1,6,-1
 260 140 l 1,7,-1
 625 140 l 1,8,-1
 625 0 l 1,9,-1
 80 0 l 1,10,-1
 80 228 l 1,11,-1
 20 195 l 1,12,-1
 20 360 l 1,13,-1
 80 393 l 1,0,-1
EndSplineSet
EndChar

StartChar: lslash
Encoding: 322 322 242
Width: 370
GlyphClass: 2
Flags: W
LayerCount: 2
Fore
SplineSet
350 0 m 1,0,1
 283 -10 283 -10 222.5 -10 c 128,-1,2
 162 -10 162 -10 121 31 c 128,-1,3
 80 72 80 72 80 140 c 2,4,-1
 80 228 l 1,5,-1
 20 195 l 1,6,-1
 20 360 l 1,7,-1
 80 393 l 1,8,-1
 80 700 l 1,9,-1
 255 700 l 1,10,-1
 255 491 l 1,11,-1
 350 545 l 1,12,-1
 350 380 l 1,13,-1
 255 326 l 1,14,-1
 255 165 l 2,15,16
 255 150 255 150 265 140 c 128,-1,17
 275 130 275 130 290 130 c 2,18,-1
 350 130 l 1,19,-1
 350 0 l 1,0,1
EndSplineSet
EndChar

StartChar: OE
Encoding: 338 338 253
Width: 995
GlyphClass: 2
Flags: W
LayerCount: 2
Fore
SplineSet
975 0 m 1,0,-1
 240 0 l 2,1,2
 135 0 135 0 87.5 47.5 c 128,-1,3
 40 95 40 95 40 200 c 2,4,-1
 40 500 l 2,5,6
 40 605 40 605 87.5 652.5 c 128,-1,7
 135 700 135 700 240 700 c 2,8,-1
 975 700 l 1,9,-1
 975 560 l 1,10,-1
 640 560 l 1,11,-1
 640 425 l 1,12,-1
 895 425 l 1,13,-1
 895 285 l 1,14,-1
 640 285 l 1,15,-1
 640 140 l 1,16,-1
 975 140 l 1,17,-1
 975 0 l 1,0,-1
460 140 m 1,18,-1
 460 560 l 1,19,-1
 280 560 l 2,20,21
 220 560 220 560 220 500 c 2,22,-1
 220 200 l 2,23,24
 220 140 220 140 280 140 c 2,25,-1
 460 140 l 1,18,-1
EndSplineSet
EndChar

StartChar: oe
Encoding: 339 339 254
Width: 945
GlyphClass: 2
Flags: W
LayerCount: 2
Fore
SplineSet
885 10 m 1,0,1
 742 -10 742 -10 590 -10 c 0,2,3
 520 -10 520 -10 485 25 c 1,4,5
 446 -10 446 -10 380 -10 c 2,6,-1
 200 -10 l 2,7,8
 125 -10 125 -10 82.5 32.5 c 128,-1,9
 40 75 40 75 40 150 c 2,10,-1
 40 380 l 2,11,12
 40 455 40 455 82.5 497.5 c 128,-1,13
 125 540 125 540 200 540 c 2,14,-1
 380 540 l 2,15,16
 442 540 442 540 485 505 c 1,17,18
 528 540 528 540 585 540 c 2,19,-1
 745 540 l 2,20,21
 820 540 820 540 862.5 497.5 c 128,-1,22
 905 455 905 455 905 380 c 2,23,-1
 905 195 l 1,24,-1
 570 195 l 1,25,-1
 570 155 l 2,26,27
 570 140 570 140 580 130 c 128,-1,28
 590 120 590 120 605 120 c 0,29,30
 705 120 705 120 885 135 c 1,31,-1
 885 10 l 1,0,1
395 365 m 2,32,33
 395 405 395 405 355 405 c 2,34,-1
 255 405 l 2,35,36
 215 405 215 405 215 365 c 2,37,-1
 215 165 l 2,38,39
 215 125 215 125 255 125 c 2,40,-1
 355 125 l 2,41,42
 395 125 395 125 395 165 c 2,43,-1
 395 365 l 2,32,33
610 415 m 2,44,45
 570 415 570 415 570 375 c 2,46,-1
 570 320 l 1,47,-1
 730 320 l 1,48,-1
 730 375 l 2,49,50
 730 415 730 415 690 415 c 2,51,-1
 610 415 l 2,44,45
EndSplineSet
EndChar

StartChar: scedilla
Encoding: 351 351 264
Width: 580
GlyphClass: 2
Flags: W
LayerCount: 2
Fore
SplineSet
30 140 m 1,0,1
 233 125 233 125 350 125 c 0,2,3
 365 125 365 125 375 135 c 128,-1,4
 385 145 385 145 385 160 c 2,5,-1
 385 195 l 1,6,-1
 170 195 l 2,7,8
 102 195 102 195 61 236 c 128,-1,9
 20 277 20 277 20 345 c 2,10,-1
 20 380 l 2,11,12
 20 448 20 448 61 489 c 128,-1,13
 102 530 102 530 170 530 c 2,14,-1
 510 530 l 1,15,-1
 510 400 l 1,16,-1
 230 400 l 2,17,18
 215 400 215 400 205 390 c 128,-1,19
 195 380 195 380 195 365 c 256,20,21
 195 350 195 350 205 340 c 128,-1,22
 215 330 215 330 230 330 c 2,23,-1
 410 330 l 2,24,25
 478 330 478 330 519 289 c 128,-1,26
 560 248 560 248 560 180 c 2,27,-1
 560 140 l 2,28,29
 560 72 560 72 519 31 c 128,-1,30
 478 -10 478 -10 419 -10 c 128,-1,31
 360 -10 360 -10 310 -8 c 1,32,-1
 310 -30 l 1,33,-1
 320 -30 l 2,34,35
 369 -30 369 -30 394.5 -54 c 128,-1,36
 420 -78 420 -78 420 -120 c 256,37,38
 420 -162 420 -162 394.5 -186 c 128,-1,39
 369 -210 369 -210 320 -210 c 2,40,-1
 200 -210 l 1,41,-1
 200 -145 l 1,42,-1
 300 -145 l 2,43,44
 335 -145 335 -145 335 -120 c 256,45,46
 335 -95 335 -95 300 -95 c 2,47,-1
 225 -95 l 1,48,-1
 225 -4 l 1,49,50
 189 -2 189 -2 30 10 c 1,51,-1
 30 140 l 1,0,1
EndSplineSet
EndChar

StartChar: tcaron
Encoding: 357 357 270
Width: 600
GlyphClass: 2
Flags: W
LayerCount: 2
Fore
SplineSet
410 700 m 1,0,-1
 580 700 l 1,1,-1
 580 570 l 1,2,-1
 510 460 l 1,3,-1
 430 460 l 1,4,-1
 470 560 l 1,5,-1
 410 560 l 1,6,-1
 410 700 l 1,0,-1
420 0 m 1,7,8
 323 -10 323 -10 230 -10 c 0,9,10
 162 -10 162 -10 121 31 c 128,-1,11
 80 72 80 72 80 140 c 2,12,-1
 80 395 l 1,13,-1
 20 395 l 1,14,-1
 20 530 l 1,15,-1
 80 530 l 1,16,-1
 100 650 l 1,17,-1
 255 650 l 1,18,-1
 255 530 l 1,19,-1
 380 530 l 1,20,-1
 380 395 l 1,21,-1
 255 395 l 1,22,-1
 255 165 l 2,23,24
 255 150 255 150 265 140 c 128,-1,25
 275 130 275 130 290 130 c 2,26,-1
 420 130 l 1,27,-1
 420 0 l 1,7,8
EndSplineSet
EndChar

StartChar: florin
Encoding: 402 402 286
Width: 460
GlyphClass: 2
Flags: W
LayerCount: 2
Fore
SplineSet
313.5 565 m 128,-1,1
 302 555 302 555 300 540 c 2,2,-1
 295 490 l 1,3,-1
 450 490 l 1,4,-1
 430 355 l 1,5,-1
 265 355 l 1,6,-1
 210 -30 l 2,7,8
 200 -96 200 -96 152 -137 c 0,9,10
 101 -180 101 -180 35 -180 c 0,11,12
 -50 -180 -50 -180 -130 -170 c 1,13,-1
 -110 -40 l 1,14,-1
 0 -40 l 2,15,16
 15 -40 15 -40 26.5 -30 c 128,-1,17
 38 -20 38 -20 40 -5 c 2,18,-1
 90 355 l 1,19,-1
 20 355 l 1,20,-1
 40 490 l 1,21,-1
 120 490 l 1,22,-1
 130 560 l 1,23,24
 138 624 138 624 186.5 667 c 128,-1,25
 235 710 235 710 305 710 c 0,26,27
 366 710 366 710 431.5 706 c 128,-1,28
 497 702 497 702 540 700 c 1,29,-1
 520 575 l 1,30,-1
 340 575 l 2,31,0
 325 575 325 575 313.5 565 c 128,-1,1
EndSplineSet
EndChar

StartChar: circumflex
Encoding: 710 710 289
Width: 380
GlyphClass: 2
Flags: W
LayerCount: 2
Fore
SplineSet
0 635 m 1,0,-1
 120 805 l 1,1,-1
 260 805 l 1,2,-1
 380 635 l 1,3,-1
 255 635 l 1,4,-1
 190 715 l 1,5,-1
 125 635 l 1,6,-1
 0 635 l 1,0,-1
EndSplineSet
EndChar

StartChar: caron
Encoding: 711 711 290
Width: 380
GlyphClass: 2
Flags: W
LayerCount: 2
Fore
SplineSet
125 805 m 1,0,-1
 190 725 l 1,1,-1
 255 805 l 1,2,-1
 380 805 l 1,3,-1
 260 635 l 1,4,-1
 120 635 l 1,5,-1
 0 805 l 1,6,-1
 125 805 l 1,0,-1
EndSplineSet
EndChar

StartChar: breve
Encoding: 728 728 291
Width: 360
GlyphClass: 2
Flags: W
LayerCount: 2
Fore
SplineSet
130 655 m 2,0,1
 0 655 0 655 0 785 c 2,2,-1
 0 815 l 1,3,-1
 130 815 l 1,4,-1
 130 790 l 2,5,6
 130 775 130 775 140 765 c 128,-1,7
 150 755 150 755 165 755 c 2,8,-1
 195 755 l 2,9,10
 210 755 210 755 220 765 c 128,-1,11
 230 775 230 775 230 790 c 2,12,-1
 230 815 l 1,13,-1
 360 815 l 1,14,-1
 360 785 l 2,15,16
 360 655 360 655 230 655 c 2,17,-1
 130 655 l 2,0,1
EndSplineSet
EndChar

StartChar: dotaccent
Encoding: 729 729 292
Width: 170
GlyphClass: 2
Flags: W
LayerCount: 2
Fore
SplineSet
0 805 m 1,0,-1
 170 805 l 1,1,-1
 170 665 l 1,2,-1
 0 665 l 1,3,-1
 0 805 l 1,0,-1
EndSplineSet
EndChar

StartChar: ring
Encoding: 730 730 293
Width: 0
GlyphClass: 2
Flags: W
LayerCount: 2
Fore
SplineSet
-100 830 m 2,0,1
 -51 830 -51 830 -25.5 806 c 128,-1,2
 0 782 0 782 0 740 c 2,3,-1
 0 725 l 2,4,5
 0 683 0 683 -25.5 659 c 128,-1,6
 -51 635 -51 635 -100 635 c 2,7,-1
 -160 635 l 2,8,9
 -209 635 -209 635 -234.5 659 c 128,-1,10
 -260 683 -260 683 -260 725 c 2,11,-1
 -260 740 l 2,12,13
 -260 782 -260 782 -234.5 806 c 128,-1,14
 -209 830 -209 830 -160 830 c 2,15,-1
 -100 830 l 2,0,1
-85 735 m 2,16,17
 -85 765 -85 765 -115 765 c 2,18,-1
 -145 765 l 2,19,20
 -175 765 -175 765 -175 735 c 2,21,-1
 -175 730 l 2,22,23
 -175 700 -175 700 -145 700 c 2,24,-1
 -115 700 l 2,25,26
 -85 700 -85 700 -85 730 c 2,27,-1
 -85 735 l 2,16,17
EndSplineSet
EndChar

StartChar: ogonek
Encoding: 731 731 294
Width: 205
GlyphClass: 2
Flags: W
LayerCount: 2
Fore
SplineSet
205 -190 m 1,0,1
 158 -200 158 -200 105 -200 c 128,-1,2
 52 -200 52 -200 26 -176.5 c 128,-1,3
 0 -153 0 -153 0 -118 c 0,4,5
 0 -62 0 -62 57 -26 c 0,6,7
 83 -10 83 -10 115 0 c 1,8,-1
 215 0 l 1,9,10
 150 -25 150 -25 114 -60 c 1,11,12
 95 -77 95 -77 95 -101 c 128,-1,13
 95 -125 95 -125 128.5 -125 c 128,-1,14
 162 -125 162 -125 205 -115 c 1,15,-1
 205 -190 l 1,0,1
EndSplineSet
EndChar

StartChar: tilde
Encoding: 732 732 295
Width: 350
GlyphClass: 2
Flags: W
LayerCount: 2
Fore
SplineSet
235 765 m 0,0,1
 267 765 267 765 285 805 c 1,2,-1
 350 765 l 1,3,4
 341 733 341 733 326 709 c 0,5,6
 291 650 291 650 235 650 c 0,7,8
 214 650 214 650 198.5 658 c 128,-1,9
 183 666 183 666 169.5 675 c 128,-1,10
 156 684 156 684 143 692 c 128,-1,11
 130 700 130 700 115 700 c 0,12,13
 83 700 83 700 65 660 c 1,14,-1
 0 700 l 1,15,16
 16 762 16 762 59 797 c 0,17,18
 81 815 81 815 108.5 815 c 128,-1,19
 136 815 136 815 151.5 807 c 128,-1,20
 167 799 167 799 180.5 790 c 128,-1,21
 194 781 194 781 207 773 c 128,-1,22
 220 765 220 765 235 765 c 0,0,1
EndSplineSet
EndChar

StartChar: hungarumlaut
Encoding: 733 733 296
Width: 380
GlyphClass: 2
Flags: W
LayerCount: 2
Fore
SplineSet
175 635 m 1,0,-1
 245 805 l 1,1,-1
 380 805 l 1,2,-1
 280 635 l 1,3,-1
 175 635 l 1,0,-1
0 635 m 1,4,-1
 70 805 l 1,5,-1
 205 805 l 1,6,-1
 105 635 l 1,7,-1
 0 635 l 1,4,-1
EndSplineSet
EndChar

StartChar: afii10023
Encoding: 1025 1025 297
Width: 635
GlyphClass: 2
Flags: W
LayerCount: 2
Fore
SplineSet
615 0 m 1,0,-1
 60 0 l 1,1,-1
 60 700 l 1,2,-1
 615 700 l 1,3,-1
 615 560 l 1,4,-1
 240 560 l 1,5,-1
 240 425 l 1,6,-1
 535 425 l 1,7,-1
 535 285 l 1,8,-1
 240 285 l 1,9,-1
 240 140 l 1,10,-1
 615 140 l 1,11,-1
 615 0 l 1,0,-1
140 900 m 1,12,-1
 310 900 l 1,13,-1
 310 760 l 1,14,-1
 140 760 l 1,15,-1
 140 900 l 1,12,-1
370 900 m 1,16,-1
 540 900 l 1,17,-1
 540 760 l 1,18,-1
 370 760 l 1,19,-1
 370 900 l 1,16,-1
EndSplineSet
EndChar

StartChar: afii10051
Encoding: 1026 1026 298
Width: 790
GlyphClass: 2
Flags: W
LayerCount: 2
Fore
SplineSet
719 31 m 128,-1,1
 678 -10 678 -10 604 -10 c 128,-1,2
 530 -10 530 -10 450 0 c 1,3,-1
 450 135 l 1,4,-1
 545 135 l 2,5,6
 560 135 560 135 570 145 c 128,-1,7
 580 155 580 155 580 170 c 2,8,-1
 580 270 l 2,9,10
 580 293 580 293 566.5 306.5 c 128,-1,11
 553 320 553 320 526 320 c 0,12,13
 475 320 475 320 420 316 c 128,-1,14
 365 312 365 312 330 310 c 1,15,-1
 330 0 l 1,16,-1
 150 0 l 1,17,-1
 150 560 l 1,18,-1
 10 560 l 1,19,-1
 10 700 l 1,20,-1
 510 700 l 1,21,-1
 510 560 l 1,22,-1
 330 560 l 1,23,-1
 330 450 l 1,24,25
 369 452 369 452 406 454 c 0,26,27
 489 460 489 460 579 460 c 0,28,29
 760 460 760 460 760 270 c 2,30,-1
 760 140 l 2,31,0
 760 72 760 72 719 31 c 128,-1,1
EndSplineSet
EndChar

StartChar: afii10052
Encoding: 1027 1027 299
Width: 615
GlyphClass: 2
Flags: W
LayerCount: 2
Fore
SplineSet
240 0 m 1,0,-1
 60 0 l 1,1,-1
 60 700 l 1,2,-1
 605 700 l 1,3,-1
 605 560 l 1,4,-1
 240 560 l 1,5,-1
 240 0 l 1,0,-1
260 730 m 1,6,-1
 320 900 l 1,7,-1
 500 900 l 1,8,-1
 390 730 l 1,9,-1
 260 730 l 1,6,-1
EndSplineSet
EndChar

StartChar: afii10053
Encoding: 1028 1028 300
Width: 620
GlyphClass: 2
Flags: W
LayerCount: 2
Fore
SplineSet
600 10 m 1,0,1
 377 -10 377 -10 230 -10 c 0,2,3
 132 -10 132 -10 86 36 c 128,-1,4
 40 82 40 82 40 180 c 2,5,-1
 40 500 l 2,6,7
 40 605 40 605 87.5 652.5 c 128,-1,8
 135 700 135 700 240 700 c 2,9,-1
 600 700 l 1,10,-1
 600 560 l 1,11,-1
 280 560 l 2,12,13
 220 560 220 560 220 500 c 2,14,-1
 220 415 l 1,15,-1
 486 415 l 1,16,-1
 486 275 l 1,17,-1
 220 275 l 1,18,-1
 220 180 l 2,19,20
 220 157 220 157 233.5 143.5 c 128,-1,21
 247 130 247 130 268 130 c 128,-1,22
 289 130 289 130 314 130.5 c 128,-1,23
 339 131 339 131 366 132 c 128,-1,24
 393 133 393 133 420.5 134 c 128,-1,25
 448 135 448 135 491.5 138 c 128,-1,26
 535 141 535 141 600 145 c 1,27,-1
 600 10 l 1,0,1
EndSplineSet
EndChar

StartChar: afii10054
Encoding: 1029 1029 301
Width: 670
GlyphClass: 2
Flags: W
LayerCount: 2
Fore
SplineSet
39 145 m 1,0,1
 313 130 313 130 410 130 c 0,2,3
 433 130 433 130 446.5 143.5 c 128,-1,4
 460 157 460 157 460 180 c 2,5,-1
 460 270 l 1,6,-1
 230 270 l 2,7,8
 125 270 125 270 77.5 317.5 c 128,-1,9
 30 365 30 365 30 470 c 2,10,-1
 30 500 l 2,11,12
 30 605 30 605 77.5 652.5 c 128,-1,13
 125 700 125 700 230 700 c 2,14,-1
 581 700 l 1,15,-1
 581 560 l 1,16,-1
 270 560 l 2,17,18
 210 560 210 560 210 500 c 2,19,-1
 210 480 l 2,20,21
 210 420 210 420 270 420 c 2,22,-1
 450 420 l 2,23,24
 548 420 548 420 594 374 c 128,-1,25
 640 328 640 328 640 230 c 2,26,-1
 640 180 l 2,27,28
 640 82 640 82 594 36 c 128,-1,29
 548 -10 548 -10 450 -10 c 0,30,31
 399 -10 399 -10 342 -8 c 2,32,-1
 250 -4 l 2,33,34
 148 1 148 1 39 10 c 1,35,-1
 39 145 l 1,0,1
EndSplineSet
EndChar

StartChar: afii10055
Encoding: 1030 1030 302
Width: 420
GlyphClass: 2
Flags: W
LayerCount: 2
Fore
SplineSet
390 0 m 1,0,-1
 30 0 l 1,1,-1
 30 140 l 1,2,-1
 120 140 l 1,3,-1
 120 560 l 1,4,-1
 30 560 l 1,5,-1
 30 700 l 1,6,-1
 390 700 l 1,7,-1
 390 560 l 1,8,-1
 300 560 l 1,9,-1
 300 140 l 1,10,-1
 390 140 l 1,11,-1
 390 0 l 1,0,-1
EndSplineSet
EndChar

StartChar: afii10056
Encoding: 1031 1031 303
Width: 420
GlyphClass: 2
Flags: W
LayerCount: 2
Fore
SplineSet
390 0 m 1,0,-1
 30 0 l 1,1,-1
 30 140 l 1,2,-1
 120 140 l 1,3,-1
 120 560 l 1,4,-1
 30 560 l 1,5,-1
 30 700 l 1,6,-1
 390 700 l 1,7,-1
 390 560 l 1,8,-1
 300 560 l 1,9,-1
 300 140 l 1,10,-1
 390 140 l 1,11,-1
 390 0 l 1,0,-1
10 890 m 1,12,-1
 180 890 l 1,13,-1
 180 750 l 1,14,-1
 10 750 l 1,15,-1
 10 890 l 1,12,-1
240 890 m 1,16,-1
 410 890 l 1,17,-1
 410 750 l 1,18,-1
 240 750 l 1,19,-1
 240 890 l 1,16,-1
EndSplineSet
EndChar

StartChar: afii10057
Encoding: 1032 1032 304
Width: 460
GlyphClass: 2
Flags: W
LayerCount: 2
Fore
SplineSet
354 36 m 128,-1,1
 308 -10 308 -10 212.5 -10 c 128,-1,2
 117 -10 117 -10 10 0 c 1,3,-1
 10 135 l 1,4,5
 88 130 88 130 170 130 c 0,6,7
 193 130 193 130 206.5 143.5 c 128,-1,8
 220 157 220 157 220 180 c 2,9,-1
 220 560 l 1,10,-1
 90 560 l 1,11,-1
 90 700 l 1,12,-1
 400 700 l 1,13,-1
 400 180 l 2,14,0
 400 82 400 82 354 36 c 128,-1,1
EndSplineSet
EndChar

StartChar: afii10058
Encoding: 1033 1033 305
Width: 1095
GlyphClass: 2
Flags: W
LayerCount: 2
Fore
SplineSet
224 31.5 m 128,-1,1
 183 -10 183 -10 123 -10 c 128,-1,2
 63 -10 63 -10 10 0 c 1,3,-1
 10 135 l 1,4,-1
 55 135 l 2,5,6
 74 135 74 135 86.5 148 c 128,-1,7
 99 161 99 161 100 180 c 2,8,-1
 130 700 l 1,9,-1
 650 700 l 1,10,-1
 650 460 l 1,11,-1
 865 460 l 2,12,13
 970 460 970 460 1017.5 412.5 c 128,-1,14
 1065 365 1065 365 1065 260 c 2,15,-1
 1065 200 l 2,16,17
 1065 95 1065 95 1017.5 47.5 c 128,-1,18
 970 0 970 0 865 0 c 2,19,-1
 480 0 l 1,20,-1
 480 560 l 1,21,-1
 295 560 l 1,22,-1
 270 145 l 2,23,0
 265 73 265 73 224 31.5 c 128,-1,1
885 260 m 2,24,25
 885 320 885 320 825 320 c 2,26,-1
 650 320 l 1,27,-1
 650 140 l 1,28,-1
 825 140 l 2,29,30
 885 140 885 140 885 200 c 2,31,-1
 885 260 l 2,24,25
EndSplineSet
EndChar

StartChar: afii10059
Encoding: 1034 1034 306
Width: 1080
GlyphClass: 2
Flags: W
LayerCount: 2
Fore
SplineSet
635 440 m 1,0,-1
 850 440 l 2,1,2
 955 440 955 440 1002.5 392.5 c 128,-1,3
 1050 345 1050 345 1050 240 c 2,4,-1
 1050 200 l 2,5,6
 1050 95 1050 95 1002.5 47.5 c 128,-1,7
 955 0 955 0 850 0 c 2,8,-1
 465 0 l 1,9,-1
 465 300 l 1,10,-1
 240 300 l 1,11,-1
 240 0 l 1,12,-1
 60 0 l 1,13,-1
 60 700 l 1,14,-1
 240 700 l 1,15,-1
 240 440 l 1,16,-1
 465 440 l 1,17,-1
 465 700 l 1,18,-1
 635 700 l 1,19,-1
 635 440 l 1,0,-1
870 240 m 2,20,21
 870 300 870 300 810 300 c 2,22,-1
 635 300 l 1,23,-1
 635 140 l 1,24,-1
 810 140 l 2,25,26
 870 140 870 140 870 200 c 2,27,-1
 870 240 l 2,20,21
EndSplineSet
EndChar

StartChar: afii10060
Encoding: 1035 1035 307
Width: 790
GlyphClass: 2
Flags: W
LayerCount: 2
Fore
SplineSet
750 0 m 1,0,-1
 570 0 l 1,1,-1
 570 270 l 2,2,3
 570 293 570 293 556.5 306.5 c 128,-1,4
 543 320 543 320 516 320 c 0,5,6
 465 320 465 320 410 316 c 128,-1,7
 355 312 355 312 320 310 c 1,8,-1
 320 0 l 1,9,-1
 140 0 l 1,10,-1
 140 560 l 1,11,-1
 0 560 l 1,12,-1
 0 700 l 1,13,-1
 500 700 l 1,14,-1
 500 560 l 1,15,-1
 320 560 l 1,16,-1
 320 450 l 1,17,18
 359 452 359 452 396 454 c 0,19,20
 479 460 479 460 568 460 c 0,21,22
 750 460 750 460 750 270 c 2,23,-1
 750 0 l 1,0,-1
EndSplineSet
EndChar

StartChar: afii10061
Encoding: 1036 1036 308
Width: 675
GlyphClass: 2
Flags: W
LayerCount: 2
Fore
SplineSet
280 710 m 1,0,-1
 340 880 l 1,1,-1
 520 880 l 1,2,-1
 410 710 l 1,3,-1
 280 710 l 1,0,-1
570 710 m 0,4,5
 595 710 595 710 660 700 c 1,6,-1
 660 565 l 1,7,-1
 620 565 l 2,8,9
 605 565 605 565 593 555.5 c 128,-1,10
 581 546 581 546 575 535 c 2,11,-1
 480 355 l 1,12,-1
 675 0 l 1,13,-1
 485 0 l 1,14,-1
 330 285 l 1,15,-1
 240 285 l 1,16,-1
 240 0 l 1,17,-1
 60 0 l 1,18,-1
 60 700 l 1,19,-1
 240 700 l 1,20,-1
 240 425 l 1,21,-1
 330 425 l 1,22,-1
 430 615 l 2,23,24
 452 657 452 657 484.5 683.5 c 128,-1,25
 517 710 517 710 570 710 c 0,4,5
EndSplineSet
EndChar

StartChar: afii10062
Encoding: 1038 1038 309
Width: 690
GlyphClass: 2
Flags: W
LayerCount: 2
Fore
SplineSet
228 -10 m 0,0,1
 178 -10 178 -10 125 0 c 1,2,-1
 125 135 l 1,3,-1
 215 135 l 2,4,5
 244 135 244 135 255 158 c 0,6,7
 260 168 260 168 260 179.5 c 128,-1,8
 260 191 260 191 255 200 c 2,9,-1
 -20 700 l 1,10,-1
 180 700 l 1,11,-1
 360 345 l 1,12,-1
 510 700 l 1,13,-1
 710 700 l 1,14,-1
 455 150 l 1,15,16
 420 71 420 71 371 32 c 0,17,18
 317 -10 317 -10 228 -10 c 0,0,1
300 730 m 2,19,20
 170 730 170 730 170 860 c 2,21,-1
 170 890 l 1,22,-1
 300 890 l 1,23,-1
 300 865 l 2,24,25
 300 850 300 850 310 840 c 128,-1,26
 320 830 320 830 335 830 c 2,27,-1
 365 830 l 2,28,29
 380 830 380 830 390 840 c 128,-1,30
 400 850 400 850 400 865 c 2,31,-1
 400 890 l 1,32,-1
 530 890 l 1,33,-1
 530 860 l 2,34,35
 530 730 530 730 400 730 c 2,36,-1
 300 730 l 2,19,20
EndSplineSet
EndChar

StartChar: afii10145
Encoding: 1039 1039 310
Width: 730
GlyphClass: 2
Flags: W
LayerCount: 2
Fore
SplineSet
60 0 m 1,0,-1
 60 700 l 1,1,-1
 240 700 l 1,2,-1
 240 140 l 1,3,-1
 490 140 l 1,4,-1
 490 700 l 1,5,-1
 670 700 l 1,6,-1
 670 0 l 1,7,-1
 455 0 l 1,8,-1
 445 -130 l 1,9,-1
 285 -130 l 1,10,-1
 275 0 l 1,11,-1
 60 0 l 1,0,-1
EndSplineSet
EndChar

StartChar: afii10017
Encoding: 1040 1040 311
Width: 710
GlyphClass: 2
Flags: W
LayerCount: 2
Fore
SplineSet
185 0 m 1,0,-1
 -10 0 l 1,1,-1
 255 700 l 1,2,-1
 455 700 l 1,3,-1
 720 0 l 1,4,-1
 525 0 l 1,5,-1
 480 125 l 1,6,-1
 230 125 l 1,7,-1
 185 0 l 1,0,-1
275 255 m 1,8,-1
 435 255 l 1,9,-1
 355 490 l 1,10,-1
 275 255 l 1,8,-1
EndSplineSet
EndChar

StartChar: afii10018
Encoding: 1041 1041 312
Width: 710
GlyphClass: 2
Flags: W
LayerCount: 2
Fore
SplineSet
240 430 m 1,0,-1
 480 430 l 2,1,2
 585 430 585 430 632.5 382.5 c 128,-1,3
 680 335 680 335 680 230 c 2,4,-1
 680 200 l 2,5,6
 680 95 680 95 632.5 47.5 c 128,-1,7
 585 0 585 0 480 0 c 2,8,-1
 60 0 l 1,9,-1
 60 700 l 1,10,-1
 615 700 l 1,11,-1
 615 560 l 1,12,-1
 240 560 l 1,13,-1
 240 430 l 1,0,-1
500 230 m 2,14,15
 500 290 500 290 440 290 c 2,16,-1
 240 290 l 1,17,-1
 240 140 l 1,18,-1
 440 140 l 2,19,20
 500 140 500 140 500 200 c 2,21,-1
 500 230 l 2,14,15
EndSplineSet
EndChar

StartChar: afii10019
Encoding: 1042 1042 313
Width: 710
GlyphClass: 2
Flags: W
LayerCount: 2
Fore
SplineSet
60 700 m 1,0,-1
 460 700 l 2,1,2
 558 700 558 700 604 655.5 c 128,-1,3
 650 611 650 611 650 520 c 0,4,5
 650 460 650 460 624 422.5 c 128,-1,6
 598 385 598 385 560 370 c 1,7,8
 641 348 641 348 670 262 c 0,9,10
 680 231 680 231 680 190 c 0,11,12
 680 92 680 92 634 46 c 128,-1,13
 588 0 588 0 490 0 c 2,14,-1
 60 0 l 1,15,-1
 60 700 l 1,0,-1
500 220 m 2,16,17
 500 280 500 280 440 280 c 2,18,-1
 240 280 l 1,19,-1
 240 140 l 1,20,-1
 440 140 l 2,21,22
 500 140 500 140 500 200 c 2,23,-1
 500 220 l 2,16,17
470 500 m 2,24,25
 470 560 470 560 410 560 c 2,26,-1
 240 560 l 1,27,-1
 240 420 l 1,28,-1
 410 420 l 2,29,30
 470 420 470 420 470 480 c 2,31,-1
 470 500 l 2,24,25
EndSplineSet
EndChar

StartChar: afii10020
Encoding: 1043 1043 314
Width: 615
GlyphClass: 2
Flags: W
LayerCount: 2
Fore
SplineSet
240 0 m 1,0,-1
 60 0 l 1,1,-1
 60 700 l 1,2,-1
 605 700 l 1,3,-1
 605 560 l 1,4,-1
 240 560 l 1,5,-1
 240 0 l 1,0,-1
EndSplineSet
EndChar

StartChar: afii10021
Encoding: 1044 1044 315
Width: 780
GlyphClass: 2
Flags: W
LayerCount: 2
Fore
SplineSet
160 700 m 1,0,-1
 685 700 l 1,1,-1
 685 140 l 1,2,-1
 760 140 l 1,3,-1
 760 -130 l 1,4,-1
 590 -130 l 1,5,-1
 580 0 l 1,6,-1
 190 0 l 1,7,-1
 180 -130 l 1,8,-1
 10 -130 l 1,9,-1
 10 140 l 1,10,-1
 75 140 l 1,11,12
 104 173 104 173 118.5 214.5 c 128,-1,13
 133 256 133 256 135 290 c 2,14,-1
 160 700 l 1,0,-1
505 140 m 1,15,-1
 505 560 l 1,16,-1
 320 560 l 1,17,-1
 305 310 l 2,18,19
 302 249 302 249 275 187 c 0,20,21
 264 161 264 161 250 140 c 1,22,-1
 505 140 l 1,15,-1
EndSplineSet
EndChar

StartChar: afii10022
Encoding: 1045 1045 316
Width: 635
GlyphClass: 2
Flags: W
LayerCount: 2
Fore
SplineSet
615 0 m 1,0,-1
 60 0 l 1,1,-1
 60 700 l 1,2,-1
 615 700 l 1,3,-1
 615 560 l 1,4,-1
 240 560 l 1,5,-1
 240 425 l 1,6,-1
 535 425 l 1,7,-1
 535 285 l 1,8,-1
 240 285 l 1,9,-1
 240 140 l 1,10,-1
 615 140 l 1,11,-1
 615 0 l 1,0,-1
EndSplineSet
EndChar

StartChar: afii10024
Encoding: 1046 1046 317
Width: 1010
GlyphClass: 2
Flags: W
LayerCount: 2
Fore
SplineSet
905 710 m 0,0,1
 930 710 930 710 995 700 c 1,2,-1
 995 565 l 1,3,-1
 955 565 l 2,4,5
 940 565 940 565 928 555.5 c 128,-1,6
 916 546 916 546 910 535 c 2,7,-1
 815 355 l 1,8,-1
 1010 0 l 1,9,-1
 820 0 l 1,10,-1
 665 285 l 1,11,-1
 595 285 l 1,12,-1
 595 0 l 1,13,-1
 415 0 l 1,14,-1
 415 285 l 1,15,-1
 345 285 l 1,16,-1
 190 0 l 1,17,-1
 0 0 l 1,18,-1
 195 355 l 1,19,-1
 100 535 l 2,20,21
 94 546 94 546 82 555.5 c 128,-1,22
 70 565 70 565 55 565 c 2,23,-1
 15 565 l 1,24,-1
 15 700 l 1,25,26
 80 710 80 710 105 710 c 0,27,28
 158 710 158 710 190.5 683.5 c 128,-1,29
 223 657 223 657 245 615 c 2,30,-1
 345 425 l 1,31,-1
 415 425 l 1,32,-1
 415 700 l 1,33,-1
 595 700 l 1,34,-1
 595 425 l 1,35,-1
 665 425 l 1,36,-1
 765 615 l 2,37,38
 787 657 787 657 819.5 683.5 c 128,-1,39
 852 710 852 710 905 710 c 0,0,1
EndSplineSet
EndChar

StartChar: afii10025
Encoding: 1047 1047 318
Width: 640
GlyphClass: 2
Flags: W
LayerCount: 2
Fore
SplineSet
20 145 m 1,0,1
 275 130 275 130 380 130 c 0,2,3
 403 130 403 130 416.5 143.5 c 128,-1,4
 430 157 430 157 430 180 c 2,5,-1
 430 220 l 2,6,7
 430 280 430 280 370 280 c 2,8,-1
 130 280 l 1,9,-1
 130 420 l 1,10,-1
 350 420 l 2,11,12
 410 420 410 420 410 480 c 2,13,-1
 410 500 l 2,14,15
 410 560 410 560 350 560 c 2,16,-1
 30 560 l 1,17,-1
 30 700 l 1,18,-1
 400 700 l 2,19,20
 498 700 498 700 544 655.5 c 128,-1,21
 590 611 590 611 590 520 c 0,22,23
 590 460 590 460 562.5 422.5 c 128,-1,24
 535 385 535 385 490 370 c 1,25,26
 571 348 571 348 600 262 c 0,27,28
 610 231 610 231 610 190 c 2,29,-1
 610 180 l 2,30,31
 610 82 610 82 564 36 c 128,-1,32
 518 -10 518 -10 420 -10 c 0,33,34
 253 -10 253 -10 20 10 c 1,35,-1
 20 145 l 1,0,1
EndSplineSet
EndChar

StartChar: afii10026
Encoding: 1048 1048 319
Width: 730
GlyphClass: 2
Flags: W
LayerCount: 2
Fore
SplineSet
670 0 m 1,0,-1
 490 0 l 1,1,-1
 490 430 l 1,2,-1
 250 0 l 1,3,-1
 60 0 l 1,4,-1
 60 700 l 1,5,-1
 240 700 l 1,6,-1
 240 270 l 1,7,-1
 480 700 l 1,8,-1
 670 700 l 1,9,-1
 670 0 l 1,0,-1
EndSplineSet
EndChar

StartChar: afii10027
Encoding: 1049 1049 320
Width: 730
GlyphClass: 2
Flags: W
LayerCount: 2
Fore
SplineSet
490 0 m 1,0,-1
 490 430 l 1,1,-1
 250 0 l 1,2,-1
 60 0 l 1,3,-1
 60 700 l 1,4,-1
 240 700 l 1,5,-1
 240 270 l 1,6,-1
 480 700 l 1,7,-1
 670 700 l 1,8,-1
 670 0 l 1,9,-1
 490 0 l 1,0,-1
310 750 m 2,10,11
 180 750 180 750 180 880 c 2,12,-1
 180 910 l 1,13,-1
 310 910 l 1,14,-1
 310 885 l 2,15,16
 310 870 310 870 320 860 c 128,-1,17
 330 850 330 850 345 850 c 2,18,-1
 375 850 l 2,19,20
 390 850 390 850 400 860 c 128,-1,21
 410 870 410 870 410 885 c 2,22,-1
 410 910 l 1,23,-1
 540 910 l 1,24,-1
 540 880 l 2,25,26
 540 750 540 750 410 750 c 2,27,-1
 310 750 l 2,10,11
EndSplineSet
EndChar

StartChar: afii10028
Encoding: 1050 1050 321
Width: 675
GlyphClass: 2
Flags: W
LayerCount: 2
Fore
SplineSet
570 710 m 0,0,1
 595 710 595 710 660 700 c 1,2,-1
 660 565 l 1,3,-1
 620 565 l 2,4,5
 605 565 605 565 593 555.5 c 128,-1,6
 581 546 581 546 575 535 c 2,7,-1
 480 355 l 1,8,-1
 675 0 l 1,9,-1
 485 0 l 1,10,-1
 330 285 l 1,11,-1
 240 285 l 1,12,-1
 240 0 l 1,13,-1
 60 0 l 1,14,-1
 60 700 l 1,15,-1
 240 700 l 1,16,-1
 240 425 l 1,17,-1
 330 425 l 1,18,-1
 430 615 l 2,19,20
 452 657 452 657 484.5 683.5 c 128,-1,21
 517 710 517 710 570 710 c 0,0,1
EndSplineSet
EndChar

StartChar: afii10029
Encoding: 1051 1051 322
Width: 745
GlyphClass: 2
Flags: W
LayerCount: 2
Fore
SplineSet
224 31.5 m 128,-1,1
 183 -10 183 -10 123 -10 c 128,-1,2
 63 -10 63 -10 10 0 c 1,3,-1
 10 135 l 1,4,-1
 55 135 l 2,5,6
 74 135 74 135 86.5 148 c 128,-1,7
 99 161 99 161 100 180 c 2,8,-1
 130 700 l 1,9,-1
 685 700 l 1,10,-1
 685 0 l 1,11,-1
 505 0 l 1,12,-1
 505 560 l 1,13,-1
 295 560 l 1,14,-1
 270 145 l 2,15,0
 265 73 265 73 224 31.5 c 128,-1,1
EndSplineSet
EndChar

StartChar: afii10030
Encoding: 1052 1052 323
Width: 900
GlyphClass: 2
Flags: W
LayerCount: 2
Fore
SplineSet
660 390 m 1,0,-1
 520 140 l 1,1,-1
 380 140 l 1,2,-1
 240 390 l 1,3,-1
 240 0 l 1,4,-1
 60 0 l 1,5,-1
 60 700 l 1,6,-1
 250 700 l 1,7,-1
 450 330 l 1,8,-1
 650 700 l 1,9,-1
 840 700 l 1,10,-1
 840 0 l 1,11,-1
 660 0 l 1,12,-1
 660 390 l 1,0,-1
EndSplineSet
EndChar

StartChar: afii10031
Encoding: 1053 1053 324
Width: 730
GlyphClass: 2
Flags: W
LayerCount: 2
Fore
SplineSet
670 0 m 1,0,-1
 490 0 l 1,1,-1
 490 285 l 1,2,-1
 240 285 l 1,3,-1
 240 0 l 1,4,-1
 60 0 l 1,5,-1
 60 700 l 1,6,-1
 240 700 l 1,7,-1
 240 425 l 1,8,-1
 490 425 l 1,9,-1
 490 700 l 1,10,-1
 670 700 l 1,11,-1
 670 0 l 1,0,-1
EndSplineSet
EndChar

StartChar: afii10032
Encoding: 1054 1054 325
Width: 730
GlyphClass: 2
Flags: W
LayerCount: 2
Fore
SplineSet
510 510 m 2,0,1
 510 570 510 570 450 570 c 2,2,-1
 280 570 l 2,3,4
 220 570 220 570 220 510 c 2,5,-1
 220 190 l 2,6,7
 220 130 220 130 280 130 c 2,8,-1
 450 130 l 2,9,10
 510 130 510 130 510 190 c 2,11,-1
 510 510 l 2,0,1
690 190 m 2,12,13
 690 85 690 85 642.5 37.5 c 128,-1,14
 595 -10 595 -10 490 -10 c 2,15,-1
 240 -10 l 2,16,17
 135 -10 135 -10 87.5 37.5 c 128,-1,18
 40 85 40 85 40 190 c 2,19,-1
 40 510 l 2,20,21
 40 615 40 615 87.5 662.5 c 128,-1,22
 135 710 135 710 240 710 c 2,23,-1
 490 710 l 2,24,25
 595 710 595 710 642.5 662.5 c 128,-1,26
 690 615 690 615 690 510 c 2,27,-1
 690 190 l 2,12,13
EndSplineSet
EndChar

StartChar: afii10033
Encoding: 1055 1055 326
Width: 730
GlyphClass: 2
Flags: W
LayerCount: 2
Fore
SplineSet
670 0 m 1,0,-1
 490 0 l 1,1,-1
 490 560 l 1,2,-1
 240 560 l 1,3,-1
 240 0 l 1,4,-1
 60 0 l 1,5,-1
 60 700 l 1,6,-1
 670 700 l 1,7,-1
 670 0 l 1,0,-1
EndSplineSet
EndChar

StartChar: afii10034
Encoding: 1056 1056 327
Width: 710
GlyphClass: 2
Flags: W
LayerCount: 2
Fore
SplineSet
60 700 m 1,0,-1
 480 700 l 2,1,2
 585 700 585 700 632.5 652.5 c 128,-1,3
 680 605 680 605 680 500 c 2,4,-1
 680 400 l 2,5,6
 680 295 680 295 632.5 247.5 c 128,-1,7
 585 200 585 200 480 200 c 2,8,-1
 240 200 l 1,9,-1
 240 0 l 1,10,-1
 60 0 l 1,11,-1
 60 700 l 1,0,-1
500 500 m 2,12,13
 500 560 500 560 440 560 c 2,14,-1
 240 560 l 1,15,-1
 240 340 l 1,16,-1
 440 340 l 2,17,18
 500 340 500 340 500 400 c 2,19,-1
 500 500 l 2,12,13
EndSplineSet
EndChar

StartChar: afii10035
Encoding: 1057 1057 328
Width: 620
GlyphClass: 2
Flags: W
LayerCount: 2
Fore
SplineSet
600 10 m 1,0,1
 377 -10 377 -10 230 -10 c 0,2,3
 132 -10 132 -10 86 36 c 128,-1,4
 40 82 40 82 40 180 c 2,5,-1
 40 500 l 2,6,7
 40 605 40 605 87.5 652.5 c 128,-1,8
 135 700 135 700 240 700 c 2,9,-1
 600 700 l 1,10,-1
 600 560 l 1,11,-1
 280 560 l 2,12,13
 220 560 220 560 220 500 c 2,14,-1
 220 180 l 2,15,16
 220 157 220 157 233.5 143.5 c 128,-1,17
 247 130 247 130 268 130 c 128,-1,18
 289 130 289 130 314 130.5 c 128,-1,19
 339 131 339 131 366 132 c 128,-1,20
 393 133 393 133 420.5 134 c 128,-1,21
 448 135 448 135 491.5 138 c 128,-1,22
 535 141 535 141 600 145 c 1,23,-1
 600 10 l 1,0,1
EndSplineSet
EndChar

StartChar: afii10036
Encoding: 1058 1058 329
Width: 620
GlyphClass: 2
Flags: W
LayerCount: 2
Fore
SplineSet
400 0 m 1,0,-1
 220 0 l 1,1,-1
 220 560 l 1,2,-1
 10 560 l 1,3,-1
 10 700 l 1,4,-1
 610 700 l 1,5,-1
 610 560 l 1,6,-1
 400 560 l 1,7,-1
 400 0 l 1,0,-1
EndSplineSet
EndChar

StartChar: afii10037
Encoding: 1059 1059 330
Width: 690
GlyphClass: 2
Flags: W
LayerCount: 2
Fore
SplineSet
228 -10 m 0,0,1
 178 -10 178 -10 125 0 c 1,2,-1
 125 135 l 1,3,-1
 215 135 l 2,4,5
 244 135 244 135 255 158 c 0,6,7
 260 168 260 168 260 179.5 c 128,-1,8
 260 191 260 191 255 200 c 2,9,-1
 -20 700 l 1,10,-1
 180 700 l 1,11,-1
 360 345 l 1,12,-1
 510 700 l 1,13,-1
 710 700 l 1,14,-1
 455 150 l 1,15,16
 420 71 420 71 371 32 c 0,17,18
 317 -10 317 -10 228 -10 c 0,0,1
EndSplineSet
EndChar

StartChar: afii10038
Encoding: 1060 1060 331
Width: 880
GlyphClass: 2
Flags: W
LayerCount: 2
Fore
SplineSet
850 250 m 2,0,1
 850 145 850 145 802.5 97.5 c 128,-1,2
 755 50 755 50 650 50 c 2,3,-1
 530 50 l 1,4,-1
 530 -20 l 1,5,-1
 350 -20 l 1,6,-1
 350 50 l 1,7,-1
 230 50 l 2,8,9
 125 50 125 50 77.5 97.5 c 128,-1,10
 30 145 30 145 30 250 c 2,11,-1
 30 450 l 2,12,13
 30 555 30 555 77.5 602.5 c 128,-1,14
 125 650 125 650 230 650 c 2,15,-1
 350 650 l 1,16,-1
 350 720 l 1,17,-1
 530 720 l 1,18,-1
 530 650 l 1,19,-1
 650 650 l 2,20,21
 755 650 755 650 802.5 602.5 c 128,-1,22
 850 555 850 555 850 450 c 2,23,-1
 850 250 l 2,0,1
670 450 m 2,24,25
 670 510 670 510 610 510 c 2,26,-1
 520 510 l 1,27,-1
 520 190 l 1,28,-1
 610 190 l 2,29,30
 670 190 670 190 670 250 c 2,31,-1
 670 450 l 2,24,25
210 250 m 2,32,33
 210 190 210 190 270 190 c 2,34,-1
 360 190 l 1,35,-1
 360 510 l 1,36,-1
 270 510 l 2,37,38
 210 510 210 510 210 450 c 2,39,-1
 210 250 l 2,32,33
EndSplineSet
EndChar

StartChar: afii10039
Encoding: 1061 1061 332
Width: 660
GlyphClass: 2
Flags: W
LayerCount: 2
Fore
SplineSet
465 700 m 1,0,-1
 665 700 l 1,1,-1
 440 350 l 1,2,-1
 670 0 l 1,3,-1
 470 0 l 1,4,-1
 330 220 l 1,5,-1
 190 0 l 1,6,-1
 -10 0 l 1,7,-1
 220 350 l 1,8,-1
 -5 700 l 1,9,-1
 194 700 l 1,10,-1
 330 480 l 1,11,-1
 465 700 l 1,0,-1
EndSplineSet
EndChar

StartChar: afii10040
Encoding: 1062 1062 333
Width: 765
GlyphClass: 2
Flags: W
LayerCount: 2
Fore
SplineSet
60 0 m 1,0,-1
 60 700 l 1,1,-1
 240 700 l 1,2,-1
 240 140 l 1,3,-1
 490 140 l 1,4,-1
 490 700 l 1,5,-1
 670 700 l 1,6,-1
 670 140 l 1,7,-1
 745 140 l 1,8,-1
 745 -130 l 1,9,-1
 575 -130 l 1,10,-1
 565 0 l 1,11,-1
 60 0 l 1,0,-1
EndSplineSet
EndChar

StartChar: afii10041
Encoding: 1063 1063 334
Width: 705
GlyphClass: 2
Flags: W
LayerCount: 2
Fore
SplineSet
465 230 m 1,0,1
 345 220 345 220 238.5 220 c 128,-1,2
 132 220 132 220 86 266 c 128,-1,3
 40 312 40 312 40 410 c 2,4,-1
 40 700 l 1,5,-1
 220 700 l 1,6,-1
 220 410 l 2,7,8
 220 387 220 387 233.5 373.5 c 128,-1,9
 247 360 247 360 270 360 c 0,10,11
 352 360 352 360 465 370 c 1,12,-1
 465 700 l 1,13,-1
 645 700 l 1,14,-1
 645 0 l 1,15,-1
 465 0 l 1,16,-1
 465 230 l 1,0,1
EndSplineSet
EndChar

StartChar: afii10042
Encoding: 1064 1064 335
Width: 1000
GlyphClass: 2
Flags: W
LayerCount: 2
Fore
SplineSet
940 0 m 1,0,-1
 60 0 l 1,1,-1
 60 700 l 1,2,-1
 240 700 l 1,3,-1
 240 140 l 1,4,-1
 410 140 l 1,5,-1
 410 700 l 1,6,-1
 590 700 l 1,7,-1
 590 140 l 1,8,-1
 760 140 l 1,9,-1
 760 700 l 1,10,-1
 940 700 l 1,11,-1
 940 0 l 1,0,-1
EndSplineSet
EndChar

StartChar: afii10043
Encoding: 1065 1065 336
Width: 1035
GlyphClass: 2
Flags: W
LayerCount: 2
Fore
SplineSet
60 0 m 1,0,-1
 60 700 l 1,1,-1
 240 700 l 1,2,-1
 240 140 l 1,3,-1
 410 140 l 1,4,-1
 410 700 l 1,5,-1
 590 700 l 1,6,-1
 590 140 l 1,7,-1
 760 140 l 1,8,-1
 760 700 l 1,9,-1
 940 700 l 1,10,-1
 940 140 l 1,11,-1
 1015 140 l 1,12,-1
 1015 -130 l 1,13,-1
 845 -130 l 1,14,-1
 835 0 l 1,15,-1
 60 0 l 1,0,-1
EndSplineSet
EndChar

StartChar: afii10044
Encoding: 1066 1066 337
Width: 800
GlyphClass: 2
Flags: W
LayerCount: 2
Fore
SplineSet
330 700 m 1,0,-1
 330 460 l 1,1,-1
 570 460 l 2,2,3
 675 460 675 460 722.5 412.5 c 128,-1,4
 770 365 770 365 770 260 c 2,5,-1
 770 200 l 2,6,7
 770 95 770 95 722.5 47.5 c 128,-1,8
 675 0 675 0 570 0 c 2,9,-1
 150 0 l 1,10,-1
 150 560 l 1,11,-1
 10 560 l 1,12,-1
 10 700 l 1,13,-1
 330 700 l 1,0,-1
590 260 m 2,14,15
 590 320 590 320 530 320 c 2,16,-1
 330 320 l 1,17,-1
 330 140 l 1,18,-1
 530 140 l 2,19,20
 590 140 590 140 590 200 c 2,21,-1
 590 260 l 2,14,15
EndSplineSet
EndChar

StartChar: afii10045
Encoding: 1067 1067 338
Width: 990
GlyphClass: 2
Flags: W
LayerCount: 2
Fore
SplineSet
240 460 m 1,0,-1
 470 460 l 2,1,2
 575 460 575 460 622.5 412.5 c 128,-1,3
 670 365 670 365 670 260 c 2,4,-1
 670 200 l 2,5,6
 670 95 670 95 622.5 47.5 c 128,-1,7
 575 0 575 0 470 0 c 2,8,-1
 60 0 l 1,9,-1
 60 700 l 1,10,-1
 240 700 l 1,11,-1
 240 460 l 1,0,-1
930 0 m 1,12,-1
 750 0 l 1,13,-1
 750 700 l 1,14,-1
 930 700 l 1,15,-1
 930 0 l 1,12,-1
490 260 m 2,16,17
 490 320 490 320 430 320 c 2,18,-1
 240 320 l 1,19,-1
 240 140 l 1,20,-1
 430 140 l 2,21,22
 490 140 490 140 490 200 c 2,23,-1
 490 260 l 2,16,17
EndSplineSet
EndChar

StartChar: afii10046
Encoding: 1068 1068 339
Width: 710
GlyphClass: 2
Flags: W
LayerCount: 2
Fore
SplineSet
240 460 m 1,0,-1
 480 460 l 2,1,2
 585 460 585 460 632.5 412.5 c 128,-1,3
 680 365 680 365 680 260 c 2,4,-1
 680 200 l 2,5,6
 680 95 680 95 632.5 47.5 c 128,-1,7
 585 0 585 0 480 0 c 2,8,-1
 60 0 l 1,9,-1
 60 700 l 1,10,-1
 240 700 l 1,11,-1
 240 460 l 1,0,-1
500 260 m 2,12,13
 500 320 500 320 440 320 c 2,14,-1
 240 320 l 1,15,-1
 240 140 l 1,16,-1
 440 140 l 2,17,18
 500 140 500 140 500 200 c 2,19,-1
 500 260 l 2,12,13
EndSplineSet
EndChar

StartChar: afii10047
Encoding: 1069 1069 340
Width: 620
GlyphClass: 2
Flags: W
LayerCount: 2
Fore
SplineSet
20 145 m 1,0,1
 264 130 264 130 350 130 c 0,2,3
 373 130 373 130 386.5 143.5 c 128,-1,4
 400 157 400 157 400 180 c 2,5,-1
 400 275 l 1,6,-1
 134 275 l 1,7,-1
 134 415 l 1,8,-1
 400 415 l 1,9,-1
 400 500 l 2,10,11
 400 560 400 560 340 560 c 2,12,-1
 30 560 l 1,13,-1
 30 700 l 1,14,-1
 380 700 l 2,15,16
 485 700 485 700 532.5 652.5 c 128,-1,17
 580 605 580 605 580 500 c 2,18,-1
 580 180 l 2,19,20
 580 82 580 82 534 36 c 128,-1,21
 488 -10 488 -10 390 -10 c 0,22,23
 240 -10 240 -10 20 10 c 1,24,-1
 20 145 l 1,0,1
EndSplineSet
EndChar

StartChar: afii10048
Encoding: 1070 1070 341
Width: 970
GlyphClass: 2
Flags: W
LayerCount: 2
Fore
SplineSet
930 190 m 2,0,1
 930 85 930 85 882.5 37.5 c 128,-1,2
 835 -10 835 -10 730 -10 c 2,3,-1
 530 -10 l 2,4,5
 425 -10 425 -10 377.5 37.5 c 128,-1,6
 330 85 330 85 330 190 c 2,7,-1
 330 285 l 1,8,-1
 240 285 l 1,9,-1
 240 0 l 1,10,-1
 60 0 l 1,11,-1
 60 700 l 1,12,-1
 240 700 l 1,13,-1
 240 425 l 1,14,-1
 330 425 l 1,15,-1
 330 510 l 2,16,17
 330 615 330 615 377.5 662.5 c 128,-1,18
 425 710 425 710 530 710 c 2,19,-1
 730 710 l 2,20,21
 835 710 835 710 882.5 662.5 c 128,-1,22
 930 615 930 615 930 510 c 2,23,-1
 930 190 l 2,0,1
750 510 m 2,24,25
 750 570 750 570 690 570 c 2,26,-1
 570 570 l 2,27,28
 510 570 510 570 510 510 c 2,29,-1
 510 190 l 2,30,31
 510 130 510 130 570 130 c 2,32,-1
 690 130 l 2,33,34
 750 130 750 130 750 190 c 2,35,-1
 750 510 l 2,24,25
EndSplineSet
EndChar

StartChar: afii10049
Encoding: 1071 1071 342
Width: 720
GlyphClass: 2
Flags: W
LayerCount: 2
Fore
SplineSet
660 0 m 1,0,-1
 480 0 l 1,1,-1
 480 230 l 1,2,-1
 345 230 l 1,3,-1
 220 0 l 1,4,-1
 30 0 l 1,5,-1
 160 240 l 1,6,7
 96 255 96 255 68 301 c 128,-1,8
 40 347 40 347 40 430 c 2,9,-1
 40 500 l 2,10,11
 40 605 40 605 87.5 652.5 c 128,-1,12
 135 700 135 700 240 700 c 2,13,-1
 660 700 l 1,14,-1
 660 0 l 1,0,-1
220 430 m 2,15,16
 220 370 220 370 280 370 c 2,17,-1
 480 370 l 1,18,-1
 480 560 l 1,19,-1
 280 560 l 2,20,21
 220 560 220 560 220 500 c 2,22,-1
 220 430 l 2,15,16
EndSplineSet
EndChar

StartChar: afii10065
Encoding: 1072 1072 343
Width: 595
GlyphClass: 2
Flags: W
LayerCount: 2
Fore
SplineSet
260 130 m 2,0,1
 313 130 313 130 380 150 c 1,2,-1
 380 210 l 1,3,-1
 235 210 l 2,4,5
 220 210 220 210 210 200 c 128,-1,6
 200 190 200 190 200 175 c 2,7,-1
 200 165 l 2,8,9
 200 150 200 150 210 140 c 128,-1,10
 220 130 220 130 235 130 c 2,11,-1
 260 130 l 2,0,1
75 520 m 1,12,13
 258 540 258 540 405 540 c 0,14,15
 473 540 473 540 514 499 c 128,-1,16
 555 458 555 458 555 390 c 2,17,-1
 555 0 l 1,18,-1
 400 0 l 1,19,-1
 390 50 l 1,20,21
 343 19 343 19 293.5 4.5 c 128,-1,22
 244 -10 244 -10 210 -10 c 2,23,-1
 175 -10 l 2,24,25
 107 -10 107 -10 66 31 c 128,-1,26
 25 72 25 72 25 140 c 2,27,-1
 25 185 l 2,28,29
 25 253 25 253 66 294 c 128,-1,30
 107 335 107 335 175 335 c 2,31,-1
 380 335 l 1,32,-1
 380 375 l 2,33,34
 380 390 380 390 370 400 c 128,-1,35
 360 410 360 410 345 410 c 0,36,37
 280 410 280 410 201.5 404 c 128,-1,38
 123 398 123 398 75 395 c 1,39,-1
 75 520 l 1,12,13
EndSplineSet
EndChar

StartChar: afii10066
Encoding: 1073 1073 344
Width: 610
GlyphClass: 2
Flags: W
LayerCount: 2
Fore
SplineSet
215 440 m 1,0,1
 312 460 312 460 385 460 c 2,2,-1
 430 460 l 2,3,4
 498 460 498 460 539 419 c 128,-1,5
 580 378 580 378 580 310 c 2,6,-1
 580 150 l 2,7,8
 580 75 580 75 537.5 32.5 c 128,-1,9
 495 -10 495 -10 420 -10 c 2,10,-1
 200 -10 l 2,11,12
 125 -10 125 -10 82.5 32.5 c 128,-1,13
 40 75 40 75 40 150 c 2,14,-1
 40 505 l 2,15,16
 40 577 40 577 88.5 626 c 128,-1,17
 137 675 137 675 220 685 c 2,18,-1
 560 725 l 1,19,-1
 575 585 l 1,20,-1
 265 550 l 2,21,22
 215 544 215 544 215 500 c 2,23,-1
 215 440 l 1,0,1
365 125 m 2,24,25
 405 125 405 125 405 165 c 2,26,-1
 405 290 l 2,27,28
 405 305 405 305 395 315 c 128,-1,29
 385 325 385 325 370 325 c 2,30,-1
 335 325 l 2,31,32
 296 325 296 325 265 321 c 128,-1,33
 234 317 234 317 215 315 c 1,34,-1
 215 165 l 2,35,36
 215 125 215 125 255 125 c 2,37,-1
 365 125 l 2,24,25
EndSplineSet
EndChar

StartChar: afii10067
Encoding: 1074 1074 345
Width: 600
GlyphClass: 2
Flags: W
LayerCount: 2
Fore
SplineSet
430 0 m 2,0,-1
 50 0 l 1,1,-1
 50 530 l 1,2,-1
 400 530 l 2,3,4
 467 530 467 530 508.5 490.5 c 128,-1,5
 550 451 550 451 550 402 c 128,-1,6
 550 353 550 353 529 322 c 128,-1,7
 508 291 508 291 470 280 c 1,8,9
 515 272 515 272 547.5 236 c 128,-1,10
 580 200 580 200 580 140 c 128,-1,11
 580 80 580 80 538.5 40 c 128,-1,12
 497 0 497 0 430 0 c 2,0,-1
405 170 m 2,13,14
 405 185 405 185 395 195 c 128,-1,15
 385 205 385 205 370 205 c 2,16,-1
 225 205 l 1,17,-1
 225 120 l 1,18,-1
 370 120 l 2,19,20
 385 120 385 120 395 130 c 128,-1,21
 405 140 405 140 405 155 c 2,22,-1
 405 170 l 2,13,14
375 375 m 2,23,24
 375 390 375 390 365 400 c 128,-1,25
 355 410 355 410 340 410 c 2,26,-1
 225 410 l 1,27,-1
 225 320 l 1,28,-1
 340 320 l 2,29,30
 355 320 355 320 365 330 c 128,-1,31
 375 340 375 340 375 355 c 2,32,-1
 375 375 l 2,23,24
EndSplineSet
EndChar

StartChar: afii10068
Encoding: 1075 1075 346
Width: 490
GlyphClass: 2
Flags: W
LayerCount: 2
Fore
SplineSet
480 530 m 1,0,-1
 480 395 l 1,1,-1
 225 395 l 1,2,-1
 225 0 l 1,3,-1
 50 0 l 1,4,-1
 50 530 l 1,5,-1
 480 530 l 1,0,-1
EndSplineSet
EndChar

StartChar: afii10069
Encoding: 1076 1076 347
Width: 690
GlyphClass: 2
Flags: W
LayerCount: 2
Fore
SplineSet
285 250 m 2,0,1
 280 180 280 180 245 135 c 1,2,-1
 420 135 l 1,3,-1
 420 395 l 1,4,-1
 295 395 l 1,5,-1
 285 250 l 2,0,1
595 530 m 1,6,-1
 595 135 l 1,7,-1
 670 135 l 1,8,-1
 670 -120 l 1,9,-1
 504 -120 l 1,10,-1
 494 0 l 1,11,-1
 186 0 l 1,12,-1
 176 -120 l 1,13,-1
 10 -120 l 1,14,-1
 10 135 l 1,15,-1
 75 135 l 1,16,17
 115 182 115 182 120 240 c 2,18,-1
 140 530 l 1,19,-1
 595 530 l 1,6,-1
EndSplineSet
EndChar

StartChar: afii10070
Encoding: 1077 1077 348
Width: 600
GlyphClass: 2
Flags: W
LayerCount: 2
Fore
SplineSet
255 415 m 2,0,1
 215 415 215 415 215 375 c 2,2,-1
 215 320 l 1,3,-1
 385 320 l 1,4,-1
 385 375 l 2,5,6
 385 415 385 415 345 415 c 2,7,-1
 255 415 l 2,0,1
540 10 m 1,8,9
 347 -10 347 -10 190 -10 c 0,10,11
 122 -10 122 -10 81 31 c 128,-1,12
 40 72 40 72 40 140 c 2,13,-1
 40 380 l 2,14,15
 40 455 40 455 82.5 497.5 c 128,-1,16
 125 540 125 540 200 540 c 2,17,-1
 400 540 l 2,18,19
 475 540 475 540 517.5 497.5 c 128,-1,20
 560 455 560 455 560 380 c 2,21,-1
 560 195 l 1,22,-1
 215 195 l 1,23,-1
 215 155 l 2,24,25
 215 140 215 140 225 130 c 128,-1,26
 235 120 235 120 250 120 c 0,27,28
 349 120 349 120 540 135 c 1,29,-1
 540 10 l 1,8,9
EndSplineSet
EndChar

StartChar: afii10072
Encoding: 1078 1078 349
Width: 875
GlyphClass: 2
Flags: W
LayerCount: 2
Fore
SplineSet
190 0 m 1,0,-1
 0 0 l 1,1,-1
 150 265 l 1,2,-1
 100 365 l 2,3,4
 84 395 84 395 50 395 c 2,5,-1
 15 395 l 1,6,-1
 15 530 l 1,7,-1
 40 535 l 2,8,9
 67 540 67 540 95 540 c 128,-1,10
 123 540 123 540 145.5 532 c 128,-1,11
 168 524 168 524 186 511 c 0,12,13
 221 486 221 486 240 445 c 1,14,-1
 295 335 l 1,15,-1
 350 335 l 1,16,-1
 350 530 l 1,17,-1
 525 530 l 1,18,-1
 525 335 l 1,19,-1
 580 335 l 1,20,-1
 635 445 l 1,21,22
 665 509 665 509 730 532 c 0,23,24
 752 540 752 540 774 540 c 0,25,26
 808 540 808 540 835 535 c 2,27,-1
 860 530 l 1,28,-1
 860 395 l 1,29,-1
 825 395 l 2,30,31
 791 395 791 395 775 365 c 2,32,-1
 725 265 l 1,33,-1
 875 0 l 1,34,-1
 685 0 l 1,35,-1
 575 200 l 1,36,-1
 525 200 l 1,37,-1
 525 0 l 1,38,-1
 350 0 l 1,39,-1
 350 200 l 1,40,-1
 300 200 l 1,41,-1
 190 0 l 1,0,-1
EndSplineSet
EndChar

StartChar: afii10073
Encoding: 1079 1079 350
Width: 550
GlyphClass: 2
Flags: W
LayerCount: 2
Fore
SplineSet
20 130 m 1,0,1
 211 115 211 115 320 115 c 0,2,3
 335 115 335 115 345 125 c 128,-1,4
 355 135 355 135 355 150 c 2,5,-1
 355 165 l 2,6,7
 355 180 355 180 345 190 c 128,-1,8
 335 200 335 200 320 200 c 2,9,-1
 100 200 l 1,10,-1
 100 325 l 1,11,-1
 300 325 l 2,12,13
 315 325 315 325 325 335 c 128,-1,14
 335 345 335 345 335 360 c 2,15,-1
 335 370 l 2,16,17
 335 385 335 385 325 395 c 128,-1,18
 315 405 315 405 300 405 c 2,19,-1
 30 405 l 1,20,-1
 30 530 l 1,21,-1
 360 530 l 2,22,23
 427 530 427 530 468.5 490.5 c 128,-1,24
 510 451 510 451 510 402 c 0,25,26
 510 302 510 302 420 280 c 1,27,28
 465 272 465 272 497.5 236 c 128,-1,29
 530 200 530 200 530 136 c 128,-1,30
 530 72 530 72 489 31 c 128,-1,31
 448 -10 448 -10 380 -10 c 0,32,33
 213 -10 213 -10 20 10 c 1,34,-1
 20 130 l 1,0,1
EndSplineSet
EndChar

StartChar: afii10074
Encoding: 1080 1080 351
Width: 630
GlyphClass: 2
Flags: W
LayerCount: 2
Fore
SplineSet
395 530 m 1,0,-1
 580 530 l 1,1,-1
 580 0 l 1,2,-1
 405 0 l 1,3,-1
 405 290 l 1,4,-1
 235 0 l 1,5,-1
 50 0 l 1,6,-1
 50 530 l 1,7,-1
 225 530 l 1,8,-1
 225 240 l 1,9,-1
 395 530 l 1,0,-1
EndSplineSet
EndChar

StartChar: afii10075
Encoding: 1081 1081 352
Width: 630
GlyphClass: 2
Flags: W
LayerCount: 2
Fore
SplineSet
260 580 m 2,0,1
 130 580 130 580 130 710 c 2,2,-1
 130 740 l 1,3,-1
 260 740 l 1,4,-1
 260 715 l 2,5,6
 260 700 260 700 270 690 c 128,-1,7
 280 680 280 680 295 680 c 2,8,-1
 325 680 l 2,9,10
 340 680 340 680 350 690 c 128,-1,11
 360 700 360 700 360 715 c 2,12,-1
 360 740 l 1,13,-1
 490 740 l 1,14,-1
 490 710 l 2,15,16
 490 580 490 580 360 580 c 2,17,-1
 260 580 l 2,0,1
395 530 m 1,18,-1
 580 530 l 1,19,-1
 580 0 l 1,20,-1
 405 0 l 1,21,-1
 405 290 l 1,22,-1
 235 0 l 1,23,-1
 50 0 l 1,24,-1
 50 530 l 1,25,-1
 225 530 l 1,26,-1
 225 240 l 1,27,-1
 395 530 l 1,18,-1
EndSplineSet
EndChar

StartChar: afii10076
Encoding: 1082 1082 353
Width: 600
GlyphClass: 2
Flags: W
LayerCount: 2
Fore
SplineSet
300 200 m 1,0,-1
 225 200 l 1,1,-1
 225 0 l 1,2,-1
 50 0 l 1,3,-1
 50 530 l 1,4,-1
 225 530 l 1,5,-1
 225 335 l 1,6,-1
 305 335 l 1,7,-1
 360 445 l 1,8,9
 390 509 390 509 454 532 c 0,10,11
 477 540 477 540 498 540 c 0,12,13
 532 540 532 540 560 535 c 2,14,-1
 585 530 l 1,15,-1
 585 395 l 1,16,-1
 550 395 l 2,17,18
 516 395 516 395 500 365 c 2,19,-1
 450 265 l 1,20,-1
 600 0 l 1,21,-1
 410 0 l 1,22,-1
 300 200 l 1,0,-1
EndSplineSet
EndChar

StartChar: afii10077
Encoding: 1083 1083 354
Width: 640
GlyphClass: 2
Flags: W
LayerCount: 2
Fore
SplineSet
110 -10 m 0,0,1
 67 -10 67 -10 10 0 c 1,2,-1
 10 130 l 1,3,-1
 50 130 l 2,4,5
 88 130 88 130 90 170 c 2,6,-1
 110 530 l 1,7,-1
 590 530 l 1,8,-1
 590 0 l 1,9,-1
 415 0 l 1,10,-1
 415 395 l 1,11,-1
 275 395 l 1,12,-1
 260 140 l 2,13,14
 256 72 256 72 215 31 c 128,-1,15
 174 -10 174 -10 110 -10 c 0,0,1
EndSplineSet
EndChar

StartChar: afii10078
Encoding: 1084 1084 355
Width: 780
GlyphClass: 2
Flags: W
LayerCount: 2
Fore
SplineSet
455 90 m 1,0,-1
 325 90 l 1,1,-1
 225 270 l 1,2,-1
 225 0 l 1,3,-1
 50 0 l 1,4,-1
 50 530 l 1,5,-1
 235 530 l 1,6,-1
 390 250 l 1,7,-1
 545 530 l 1,8,-1
 730 530 l 1,9,-1
 730 0 l 1,10,-1
 555 0 l 1,11,-1
 555 270 l 1,12,-1
 455 90 l 1,0,-1
EndSplineSet
EndChar

StartChar: afii10079
Encoding: 1085 1085 356
Width: 630
GlyphClass: 2
Flags: W
LayerCount: 2
Fore
SplineSet
405 335 m 1,0,-1
 405 530 l 1,1,-1
 580 530 l 1,2,-1
 580 0 l 1,3,-1
 405 0 l 1,4,-1
 405 200 l 1,5,-1
 225 200 l 1,6,-1
 225 0 l 1,7,-1
 50 0 l 1,8,-1
 50 530 l 1,9,-1
 225 530 l 1,10,-1
 225 335 l 1,11,-1
 405 335 l 1,0,-1
EndSplineSet
EndChar

StartChar: afii10080
Encoding: 1086 1086 357
Width: 630
GlyphClass: 2
Flags: W
LayerCount: 2
Fore
SplineSet
590 150 m 2,0,1
 590 75 590 75 547.5 32.5 c 128,-1,2
 505 -10 505 -10 430 -10 c 2,3,-1
 200 -10 l 2,4,5
 125 -10 125 -10 82.5 32.5 c 128,-1,6
 40 75 40 75 40 150 c 2,7,-1
 40 380 l 2,8,9
 40 455 40 455 82.5 497.5 c 128,-1,10
 125 540 125 540 200 540 c 2,11,-1
 430 540 l 2,12,13
 505 540 505 540 547.5 497.5 c 128,-1,14
 590 455 590 455 590 380 c 2,15,-1
 590 150 l 2,0,1
415 365 m 2,16,17
 415 405 415 405 375 405 c 2,18,-1
 255 405 l 2,19,20
 215 405 215 405 215 365 c 2,21,-1
 215 165 l 2,22,23
 215 125 215 125 255 125 c 2,24,-1
 375 125 l 2,25,26
 415 125 415 125 415 165 c 2,27,-1
 415 365 l 2,16,17
EndSplineSet
EndChar

StartChar: afii10081
Encoding: 1087 1087 358
Width: 630
GlyphClass: 2
Flags: W
LayerCount: 2
Fore
SplineSet
580 530 m 1,0,-1
 580 0 l 1,1,-1
 405 0 l 1,2,-1
 405 395 l 1,3,-1
 225 395 l 1,4,-1
 225 0 l 1,5,-1
 50 0 l 1,6,-1
 50 530 l 1,7,-1
 580 530 l 1,0,-1
EndSplineSet
EndChar

StartChar: afii10082
Encoding: 1088 1088 359
Width: 630
GlyphClass: 2
Flags: W
LayerCount: 2
Fore
SplineSet
345 395 m 2,0,1
 292 395 292 395 225 375 c 1,2,-1
 225 135 l 1,3,-1
 375 135 l 2,4,5
 415 135 415 135 415 175 c 2,6,-1
 415 360 l 2,7,8
 415 375 415 375 405 385 c 128,-1,9
 395 395 395 395 380 395 c 2,10,-1
 345 395 l 2,0,1
225 0 m 1,11,-1
 225 -170 l 1,12,-1
 50 -170 l 1,13,-1
 50 530 l 1,14,-1
 205 530 l 1,15,-1
 215 480 l 1,16,17
 262 511 262 511 311.5 525.5 c 128,-1,18
 361 540 361 540 395 540 c 2,19,-1
 440 540 l 2,20,21
 508 540 508 540 549 499 c 128,-1,22
 590 458 590 458 590 390 c 2,23,-1
 590 160 l 2,24,25
 590 85 590 85 547.5 42.5 c 128,-1,26
 505 0 505 0 430 0 c 2,27,-1
 225 0 l 1,11,-1
EndSplineSet
EndChar

StartChar: afii10083
Encoding: 1089 1089 360
Width: 550
GlyphClass: 2
Flags: W
LayerCount: 2
Fore
SplineSet
520 10 m 1,0,1
 333 -10 333 -10 190 -10 c 0,2,3
 122 -10 122 -10 81 31 c 128,-1,4
 40 72 40 72 40 140 c 2,5,-1
 40 370 l 2,6,7
 40 445 40 445 82.5 487.5 c 128,-1,8
 125 530 125 530 200 530 c 2,9,-1
 520 530 l 1,10,-1
 520 395 l 1,11,-1
 255 395 l 2,12,13
 215 395 215 395 215 355 c 2,14,-1
 215 160 l 2,15,16
 215 145 215 145 225 135 c 128,-1,17
 235 125 235 125 250 125 c 0,18,19
 340 125 340 125 520 140 c 1,20,-1
 520 10 l 1,0,1
EndSplineSet
EndChar

StartChar: afii10084
Encoding: 1090 1090 361
Width: 525
GlyphClass: 2
Flags: W
LayerCount: 2
Fore
SplineSet
350 395 m 1,0,-1
 350 0 l 1,1,-1
 175 0 l 1,2,-1
 175 395 l 1,3,-1
 10 395 l 1,4,-1
 10 530 l 1,5,-1
 515 530 l 1,6,-1
 515 395 l 1,7,-1
 350 395 l 1,0,-1
EndSplineSet
EndChar

StartChar: afii10085
Encoding: 1091 1091 362
Width: 570
GlyphClass: 2
Flags: W
LayerCount: 2
Fore
SplineSet
190 -180 m 0,0,1
 137 -180 137 -180 60 -170 c 1,2,-1
 60 -40 l 1,3,-1
 150 -40 l 2,4,5
 188 -40 188 -40 199.5 -19 c 128,-1,6
 211 2 211 2 195 40 c 2,7,-1
 -10 530 l 1,8,-1
 175 530 l 1,9,-1
 300 190 l 1,10,-1
 405 530 l 1,11,-1
 590 530 l 1,12,-1
 390 -20 l 2,13,14
 361 -99 361 -99 315 -139.5 c 128,-1,15
 269 -180 269 -180 190 -180 c 0,0,1
EndSplineSet
EndChar

StartChar: afii10086
Encoding: 1092 1092 363
Width: 795
GlyphClass: 2
Flags: W
LayerCount: 2
Fore
SplineSet
755 160 m 2,0,1
 755 85 755 85 712.5 42.5 c 128,-1,2
 670 0 670 0 595 0 c 2,3,-1
 485 0 l 1,4,-1
 485 -170 l 1,5,-1
 310 -170 l 1,6,-1
 310 0 l 1,7,-1
 200 0 l 2,8,9
 125 0 125 0 82.5 42.5 c 128,-1,10
 40 85 40 85 40 160 c 2,11,-1
 40 370 l 2,12,13
 40 445 40 445 82.5 487.5 c 128,-1,14
 125 530 125 530 200 530 c 2,15,-1
 310 530 l 1,16,-1
 310 700 l 1,17,-1
 485 700 l 1,18,-1
 485 530 l 1,19,-1
 595 530 l 2,20,21
 670 530 670 530 712.5 487.5 c 128,-1,22
 755 445 755 445 755 370 c 2,23,-1
 755 160 l 2,0,1
215 175 m 2,24,25
 215 135 215 135 255 135 c 2,26,-1
 325 135 l 1,27,-1
 325 395 l 1,28,-1
 255 395 l 2,29,30
 215 395 215 395 215 355 c 2,31,-1
 215 175 l 2,24,25
580 355 m 2,32,33
 580 395 580 395 540 395 c 2,34,-1
 480 395 l 1,35,-1
 480 135 l 1,36,-1
 540 135 l 2,37,38
 580 135 580 135 580 175 c 2,39,-1
 580 355 l 2,32,33
EndSplineSet
EndChar

StartChar: afii10087
Encoding: 1093 1093 364
Width: 570
GlyphClass: 2
Flags: W
LayerCount: 2
Fore
SplineSet
380 530 m 1,0,-1
 575 530 l 1,1,-1
 405 265 l 1,2,-1
 580 0 l 1,3,-1
 385 0 l 1,4,-1
 285 160 l 1,5,-1
 185 0 l 1,6,-1
 -10 0 l 1,7,-1
 165 265 l 1,8,-1
 -5 530 l 1,9,-1
 190 530 l 1,10,-1
 285 370 l 1,11,-1
 380 530 l 1,0,-1
EndSplineSet
EndChar

StartChar: afii10088
Encoding: 1094 1094 365
Width: 675
GlyphClass: 2
Flags: W
LayerCount: 2
Fore
SplineSet
480 0 m 1,0,-1
 50 0 l 1,1,-1
 50 530 l 1,2,-1
 225 530 l 1,3,-1
 225 135 l 1,4,-1
 405 135 l 1,5,-1
 405 530 l 1,6,-1
 580 530 l 1,7,-1
 580 135 l 1,8,-1
 655 135 l 1,9,-1
 655 -120 l 1,10,-1
 490 -120 l 1,11,-1
 480 0 l 1,0,-1
EndSplineSet
EndChar

StartChar: afii10089
Encoding: 1095 1095 366
Width: 615
GlyphClass: 2
Flags: W
LayerCount: 2
Fore
SplineSet
250 285 m 0,0,1
 335 285 335 285 390 290 c 1,2,-1
 390 530 l 1,3,-1
 565 530 l 1,4,-1
 565 0 l 1,5,-1
 390 0 l 1,6,-1
 390 160 l 1,7,8
 283 150 283 150 190 150 c 0,9,10
 122 150 122 150 81 191 c 128,-1,11
 40 232 40 232 40 300 c 2,12,-1
 40 530 l 1,13,-1
 215 530 l 1,14,-1
 215 320 l 2,15,16
 215 305 215 305 225 295 c 128,-1,17
 235 285 235 285 250 285 c 0,0,1
EndSplineSet
EndChar

StartChar: afii10090
Encoding: 1096 1096 367
Width: 855
GlyphClass: 2
Flags: W
LayerCount: 2
Fore
SplineSet
50 0 m 1,0,-1
 50 530 l 1,1,-1
 225 530 l 1,2,-1
 225 135 l 1,3,-1
 340 135 l 1,4,-1
 340 530 l 1,5,-1
 515 530 l 1,6,-1
 515 135 l 1,7,-1
 630 135 l 1,8,-1
 630 530 l 1,9,-1
 805 530 l 1,10,-1
 805 0 l 1,11,-1
 50 0 l 1,0,-1
EndSplineSet
EndChar

StartChar: afii10091
Encoding: 1097 1097 368
Width: 900
GlyphClass: 2
Flags: W
LayerCount: 2
Fore
SplineSet
705 0 m 1,0,-1
 50 0 l 1,1,-1
 50 530 l 1,2,-1
 225 530 l 1,3,-1
 225 135 l 1,4,-1
 340 135 l 1,5,-1
 340 530 l 1,6,-1
 515 530 l 1,7,-1
 515 135 l 1,8,-1
 630 135 l 1,9,-1
 630 530 l 1,10,-1
 805 530 l 1,11,-1
 805 135 l 1,12,-1
 880 135 l 1,13,-1
 880 -120 l 1,14,-1
 715 -120 l 1,15,-1
 705 0 l 1,0,-1
EndSplineSet
EndChar

StartChar: afii10092
Encoding: 1098 1098 369
Width: 700
GlyphClass: 2
Flags: W
LayerCount: 2
Fore
SplineSet
325 530 m 1,0,-1
 325 365 l 1,1,-1
 530 365 l 2,2,3
 598 365 598 365 639 324 c 128,-1,4
 680 283 680 283 680 215 c 2,5,-1
 680 150 l 2,6,7
 680 82 680 82 639 41 c 128,-1,8
 598 0 598 0 530 0 c 2,9,-1
 150 0 l 1,10,-1
 150 395 l 1,11,-1
 10 395 l 1,12,-1
 10 530 l 1,13,-1
 325 530 l 1,0,-1
470 125 m 2,14,15
 485 125 485 125 495 135 c 128,-1,16
 505 145 505 145 505 160 c 2,17,-1
 505 205 l 2,18,19
 505 220 505 220 495 230 c 128,-1,20
 485 240 485 240 470 240 c 2,21,-1
 325 240 l 1,22,-1
 325 125 l 1,23,-1
 470 125 l 2,14,15
EndSplineSet
EndChar

StartChar: afii10093
Encoding: 1099 1099 370
Width: 860
GlyphClass: 2
Flags: W
LayerCount: 2
Fore
SplineSet
50 0 m 1,0,-1
 50 530 l 1,1,-1
 225 530 l 1,2,-1
 225 365 l 1,3,-1
 420 365 l 2,4,5
 488 365 488 365 529 324 c 128,-1,6
 570 283 570 283 570 215 c 2,7,-1
 570 150 l 2,8,9
 570 82 570 82 529 41 c 128,-1,10
 488 0 488 0 420 0 c 2,11,-1
 50 0 l 1,0,-1
360 125 m 2,12,13
 375 125 375 125 385 135 c 128,-1,14
 395 145 395 145 395 160 c 2,15,-1
 395 204 l 2,16,17
 395 219 395 219 385 229 c 128,-1,18
 375 239 375 239 360 239 c 2,19,-1
 225 239 l 1,20,-1
 225 125 l 1,21,-1
 360 125 l 2,12,13
810 0 m 1,22,-1
 635 0 l 1,23,-1
 635 530 l 1,24,-1
 810 530 l 1,25,-1
 810 0 l 1,22,-1
EndSplineSet
EndChar

StartChar: afii10094
Encoding: 1100 1100 371
Width: 600
GlyphClass: 2
Flags: W
LayerCount: 2
Fore
SplineSet
50 0 m 1,0,-1
 50 530 l 1,1,-1
 225 530 l 1,2,-1
 225 365 l 1,3,-1
 430 365 l 2,4,5
 498 365 498 365 539 324 c 128,-1,6
 580 283 580 283 580 215 c 2,7,-1
 580 150 l 2,8,9
 580 82 580 82 539 41 c 128,-1,10
 498 0 498 0 430 0 c 2,11,-1
 50 0 l 1,0,-1
370 125 m 2,12,13
 385 125 385 125 395 135 c 128,-1,14
 405 145 405 145 405 160 c 2,15,-1
 405 205 l 2,16,17
 405 220 405 220 395 230 c 128,-1,18
 385 240 385 240 370 240 c 2,19,-1
 225 240 l 1,20,-1
 225 125 l 1,21,-1
 370 125 l 2,12,13
EndSplineSet
EndChar

StartChar: afii10095
Encoding: 1101 1101 372
Width: 550
GlyphClass: 2
Flags: W
LayerCount: 2
Fore
SplineSet
360 -10 m 0,0,1
 213 -10 213 -10 30 10 c 1,2,-1
 30 130 l 1,3,4
 210 115 210 115 300 115 c 0,5,6
 315 115 315 115 325 125 c 128,-1,7
 335 135 335 135 335 150 c 2,8,-1
 335 200 l 1,9,-1
 110 200 l 1,10,-1
 110 325 l 1,11,-1
 335 325 l 1,12,-1
 335 365 l 2,13,14
 335 405 335 405 295 405 c 2,15,-1
 40 405 l 1,16,-1
 40 530 l 1,17,-1
 350 530 l 2,18,19
 425 530 425 530 467.5 487.5 c 128,-1,20
 510 445 510 445 510 370 c 2,21,-1
 510 140 l 2,22,23
 510 72 510 72 469 31 c 128,-1,24
 428 -10 428 -10 360 -10 c 0,0,1
EndSplineSet
EndChar

StartChar: afii10096
Encoding: 1102 1102 373
Width: 850
GlyphClass: 2
Flags: W
LayerCount: 2
Fore
SplineSet
300 335 m 1,0,-1
 300 380 l 2,1,2
 300 455 300 455 342.5 497.5 c 128,-1,3
 385 540 385 540 460 540 c 2,4,-1
 650 540 l 2,5,6
 725 540 725 540 767.5 497.5 c 128,-1,7
 810 455 810 455 810 380 c 2,8,-1
 810 150 l 2,9,10
 810 75 810 75 767.5 32.5 c 128,-1,11
 725 -10 725 -10 650 -10 c 2,12,-1
 460 -10 l 2,13,14
 385 -10 385 -10 342.5 32.5 c 128,-1,15
 300 75 300 75 300 150 c 2,16,-1
 300 200 l 1,17,-1
 225 200 l 1,18,-1
 225 0 l 1,19,-1
 50 0 l 1,20,-1
 50 530 l 1,21,-1
 225 530 l 1,22,-1
 225 335 l 1,23,-1
 300 335 l 1,0,-1
635 365 m 2,24,25
 635 405 635 405 595 405 c 2,26,-1
 515 405 l 2,27,28
 475 405 475 405 475 365 c 2,29,-1
 475 165 l 2,30,31
 475 125 475 125 515 125 c 2,32,-1
 595 125 l 2,33,34
 635 125 635 125 635 165 c 2,35,-1
 635 365 l 2,24,25
EndSplineSet
EndChar

StartChar: afii10097
Encoding: 1103 1103 374
Width: 620
GlyphClass: 2
Flags: W
LayerCount: 2
Fore
SplineSet
570 530 m 1,0,-1
 570 0 l 1,1,-1
 395 0 l 1,2,-1
 395 165 l 1,3,-1
 310 165 l 1,4,-1
 215 0 l 1,5,-1
 30 0 l 1,6,-1
 130 175 l 1,7,8
 88 190 88 190 64 226 c 128,-1,9
 40 262 40 262 40 315 c 2,10,-1
 40 380 l 2,11,12
 40 448 40 448 81 489 c 128,-1,13
 122 530 122 530 190 530 c 2,14,-1
 570 530 l 1,0,-1
250 405 m 2,15,16
 235 405 235 405 225 395 c 128,-1,17
 215 385 215 385 215 370 c 2,18,-1
 215 325 l 2,19,20
 215 310 215 310 225 300 c 128,-1,21
 235 290 235 290 250 290 c 2,22,-1
 395 290 l 1,23,-1
 395 405 l 1,24,-1
 250 405 l 2,15,16
EndSplineSet
EndChar

StartChar: afii10071
Encoding: 1105 1105 375
Width: 600
GlyphClass: 2
Flags: W
LayerCount: 2
Fore
SplineSet
100 730 m 1,0,-1
 270 730 l 1,1,-1
 270 590 l 1,2,-1
 100 590 l 1,3,-1
 100 730 l 1,0,-1
330 730 m 1,4,-1
 500 730 l 1,5,-1
 500 590 l 1,6,-1
 330 590 l 1,7,-1
 330 730 l 1,4,-1
255 415 m 2,8,9
 215 415 215 415 215 375 c 2,10,-1
 215 320 l 1,11,-1
 385 320 l 1,12,-1
 385 375 l 2,13,14
 385 415 385 415 345 415 c 2,15,-1
 255 415 l 2,8,9
540 10 m 1,16,17
 347 -10 347 -10 190 -10 c 0,18,19
 122 -10 122 -10 81 31 c 128,-1,20
 40 72 40 72 40 140 c 2,21,-1
 40 380 l 2,22,23
 40 455 40 455 82.5 497.5 c 128,-1,24
 125 540 125 540 200 540 c 2,25,-1
 400 540 l 2,26,27
 475 540 475 540 517.5 497.5 c 128,-1,28
 560 455 560 455 560 380 c 2,29,-1
 560 195 l 1,30,-1
 215 195 l 1,31,-1
 215 155 l 2,32,33
 215 140 215 140 225 130 c 128,-1,34
 235 120 235 120 250 120 c 0,35,36
 349 120 349 120 540 135 c 1,37,-1
 540 10 l 1,16,17
EndSplineSet
EndChar

StartChar: afii10099
Encoding: 1106 1106 376
Width: 650
GlyphClass: 2
Flags: W
LayerCount: 2
Fore
SplineSet
255 430 m 1,0,1
 352 450 352 450 425 450 c 2,2,-1
 470 450 l 2,3,4
 538 450 538 450 579 409 c 128,-1,5
 620 368 620 368 620 300 c 2,6,-1
 620 140 l 2,7,8
 620 72 620 72 579 31 c 128,-1,9
 538 -10 538 -10 472.5 -10 c 128,-1,10
 407 -10 407 -10 340 0 c 1,11,-1
 340 130 l 1,12,-1
 410 130 l 2,13,14
 425 130 425 130 435 140 c 128,-1,15
 445 150 445 150 445 165 c 2,16,-1
 445 280 l 2,17,18
 445 295 445 295 435 305 c 128,-1,19
 425 315 425 315 410 315 c 2,20,-1
 375 315 l 2,21,22
 336 315 336 315 305 311 c 128,-1,23
 274 307 274 307 255 305 c 1,24,-1
 255 0 l 1,25,-1
 80 0 l 1,26,-1
 80 495 l 1,27,-1
 20 495 l 1,28,-1
 20 620 l 1,29,-1
 80 620 l 1,30,-1
 100 700 l 1,31,-1
 255 700 l 1,32,-1
 255 620 l 1,33,-1
 380 620 l 1,34,-1
 380 495 l 1,35,-1
 255 495 l 1,36,-1
 255 430 l 1,0,1
EndSplineSet
EndChar

StartChar: afii10100
Encoding: 1107 1107 377
Width: 490
GlyphClass: 2
Flags: W
LayerCount: 2
Fore
SplineSet
480 530 m 1,0,-1
 480 395 l 1,1,-1
 225 395 l 1,2,-1
 225 0 l 1,3,-1
 50 0 l 1,4,-1
 50 530 l 1,5,-1
 480 530 l 1,0,-1
170 570 m 1,6,-1
 230 740 l 1,7,-1
 410 740 l 1,8,-1
 300 570 l 1,9,-1
 170 570 l 1,6,-1
EndSplineSet
EndChar

StartChar: afii10101
Encoding: 1108 1108 378
Width: 550
GlyphClass: 2
Flags: W
LayerCount: 2
Fore
SplineSet
520 10 m 1,0,1
 333 -10 333 -10 190 -10 c 0,2,3
 122 -10 122 -10 81 31 c 128,-1,4
 40 72 40 72 40 140 c 2,5,-1
 40 370 l 2,6,7
 40 445 40 445 82.5 487.5 c 128,-1,8
 125 530 125 530 200 530 c 2,9,-1
 510 530 l 1,10,-1
 510 405 l 1,11,-1
 255 405 l 2,12,13
 215 405 215 405 215 365 c 2,14,-1
 215 325 l 1,15,-1
 440 325 l 1,16,-1
 440 200 l 1,17,-1
 215 200 l 1,18,-1
 215 150 l 2,19,20
 215 135 215 135 225 125 c 128,-1,21
 235 115 235 115 250 115 c 0,22,23
 340 115 340 115 520 130 c 1,24,-1
 520 10 l 1,0,1
EndSplineSet
EndChar

StartChar: afii10102
Encoding: 1109 1109 379
Width: 580
GlyphClass: 2
Flags: W
LayerCount: 2
Fore
SplineSet
30 140 m 1,0,1
 233 125 233 125 350 125 c 0,2,3
 365 125 365 125 375 135 c 128,-1,4
 385 145 385 145 385 160 c 2,5,-1
 385 195 l 1,6,-1
 170 195 l 2,7,8
 102 195 102 195 61 236 c 128,-1,9
 20 277 20 277 20 345 c 2,10,-1
 20 380 l 2,11,12
 20 448 20 448 61 489 c 128,-1,13
 102 530 102 530 170 530 c 2,14,-1
 510 530 l 1,15,-1
 510 400 l 1,16,-1
 230 400 l 2,17,18
 215 400 215 400 205 390 c 128,-1,19
 195 380 195 380 195 365 c 256,20,21
 195 350 195 350 205 340 c 128,-1,22
 215 330 215 330 230 330 c 2,23,-1
 410 330 l 2,24,25
 478 330 478 330 519 289 c 128,-1,26
 560 248 560 248 560 180 c 2,27,-1
 560 140 l 2,28,29
 560 72 560 72 519 31 c 128,-1,30
 478 -10 478 -10 410 -10 c 0,31,32
 233 -10 233 -10 30 10 c 1,33,-1
 30 140 l 1,0,1
EndSplineSet
EndChar

StartChar: afii10103
Encoding: 1110 1110 380
Width: 320
GlyphClass: 2
Flags: W
LayerCount: 2
Fore
SplineSet
270 510 m 1,0,-1
 270 0 l 1,1,-1
 95 0 l 1,2,-1
 95 375 l 1,3,-1
 20 375 l 1,4,-1
 20 510 l 1,5,-1
 270 510 l 1,0,-1
95 710 m 1,6,-1
 270 710 l 1,7,-1
 270 570 l 1,8,-1
 95 570 l 1,9,-1
 95 710 l 1,6,-1
EndSplineSet
EndChar

StartChar: afii10104
Encoding: 1111 1111 381
Width: 340
GlyphClass: 2
Flags: W
LayerCount: 2
Fore
SplineSet
-30 710 m 1,0,-1
 140 710 l 1,1,-1
 140 570 l 1,2,-1
 -30 570 l 1,3,-1
 -30 710 l 1,0,-1
200 710 m 1,4,-1
 370 710 l 1,5,-1
 370 570 l 1,6,-1
 200 570 l 1,7,-1
 200 710 l 1,4,-1
284 510 m 1,8,-1
 284 0 l 1,9,-1
 109 0 l 1,10,-1
 109 375 l 1,11,-1
 34 375 l 1,12,-1
 34 510 l 1,13,-1
 284 510 l 1,8,-1
EndSplineSet
EndChar

StartChar: afii10105
Encoding: 1112 1112 382
Width: 300
GlyphClass: 2
Flags: W
LayerCount: 2
Fore
SplineSet
100 -180 m 0,0,1
 7 -180 7 -180 -90 -170 c 1,2,-1
 -90 -40 l 1,3,-1
 40 -40 l 2,4,5
 55 -40 55 -40 65 -30 c 128,-1,6
 75 -20 75 -20 75 -5 c 2,7,-1
 75 510 l 1,8,-1
 250 510 l 1,9,-1
 250 -30 l 2,10,11
 250 -98 250 -98 209 -139 c 128,-1,12
 168 -180 168 -180 100 -180 c 0,0,1
75 710 m 1,13,-1
 250 710 l 1,14,-1
 250 570 l 1,15,-1
 75 570 l 1,16,-1
 75 710 l 1,13,-1
EndSplineSet
EndChar

StartChar: afii10106
Encoding: 1113 1113 383
Width: 905
GlyphClass: 2
Flags: W
LayerCount: 2
Fore
SplineSet
110 -10 m 0,0,1
 67 -10 67 -10 10 0 c 1,2,-1
 10 130 l 1,3,-1
 50 130 l 2,4,5
 88 130 88 130 90 170 c 2,6,-1
 110 530 l 1,7,-1
 555 530 l 1,8,-1
 555 355 l 1,9,-1
 735 355 l 2,10,11
 803 355 803 355 844 314 c 128,-1,12
 885 273 885 273 885 205 c 2,13,-1
 885 150 l 2,14,15
 885 82 885 82 844 41 c 128,-1,16
 803 0 803 0 735 0 c 2,17,-1
 390 0 l 1,18,-1
 390 395 l 1,19,-1
 275 395 l 1,20,-1
 260 140 l 2,21,22
 256 72 256 72 215 31 c 128,-1,23
 174 -10 174 -10 110 -10 c 0,0,1
675 120 m 2,24,25
 690 120 690 120 700 130 c 128,-1,26
 710 140 710 140 710 155 c 2,27,-1
 710 190 l 2,28,29
 710 205 710 205 700 215 c 128,-1,30
 690 225 690 225 675 225 c 2,31,-1
 555 225 l 1,32,-1
 555 120 l 1,33,-1
 675 120 l 2,24,25
EndSplineSet
EndChar

StartChar: afii10107
Encoding: 1114 1114 384
Width: 895
GlyphClass: 2
Flags: W
LayerCount: 2
Fore
SplineSet
380 0 m 1,0,-1
 380 225 l 1,1,-1
 225 225 l 1,2,-1
 225 0 l 1,3,-1
 50 0 l 1,4,-1
 50 530 l 1,5,-1
 225 530 l 1,6,-1
 225 355 l 1,7,-1
 380 355 l 1,8,-1
 380 530 l 1,9,-1
 545 530 l 1,10,-1
 545 355 l 1,11,-1
 725 355 l 2,12,13
 793 355 793 355 834 314 c 128,-1,14
 875 273 875 273 875 205 c 2,15,-1
 875 150 l 2,16,17
 875 82 875 82 834 41 c 128,-1,18
 793 0 793 0 725 0 c 2,19,-1
 380 0 l 1,0,-1
665 130 m 2,20,21
 680 130 680 130 690 140 c 128,-1,22
 700 150 700 150 700 165 c 2,23,-1
 700 190 l 2,24,25
 700 205 700 205 690 215 c 128,-1,26
 680 225 680 225 665 225 c 2,27,-1
 545 225 l 1,28,-1
 545 130 l 1,29,-1
 665 130 l 2,20,21
EndSplineSet
EndChar

StartChar: afii10108
Encoding: 1115 1115 385
Width: 660
GlyphClass: 2
Flags: W
LayerCount: 2
Fore
SplineSet
255 430 m 1,0,1
 352 450 352 450 425 450 c 2,2,-1
 470 450 l 2,3,4
 538 450 538 450 579 409 c 128,-1,5
 620 368 620 368 620 300 c 2,6,-1
 620 0 l 1,7,-1
 445 0 l 1,8,-1
 445 280 l 2,9,10
 445 295 445 295 435 305 c 128,-1,11
 425 315 425 315 410 315 c 2,12,-1
 375 315 l 2,13,14
 336 315 336 315 305 311 c 128,-1,15
 274 307 274 307 255 305 c 1,16,-1
 255 0 l 1,17,-1
 80 0 l 1,18,-1
 80 495 l 1,19,-1
 20 495 l 1,20,-1
 20 620 l 1,21,-1
 80 620 l 1,22,-1
 100 700 l 1,23,-1
 255 700 l 1,24,-1
 255 620 l 1,25,-1
 380 620 l 1,26,-1
 380 495 l 1,27,-1
 255 495 l 1,28,-1
 255 430 l 1,0,1
EndSplineSet
EndChar

StartChar: afii10109
Encoding: 1116 1116 386
Width: 600
GlyphClass: 2
Flags: W
LayerCount: 2
Fore
SplineSet
240 570 m 1,0,-1
 300 740 l 1,1,-1
 480 740 l 1,2,-1
 370 570 l 1,3,-1
 240 570 l 1,0,-1
300 200 m 1,4,-1
 225 200 l 1,5,-1
 225 0 l 1,6,-1
 50 0 l 1,7,-1
 50 530 l 1,8,-1
 225 530 l 1,9,-1
 225 335 l 1,10,-1
 305 335 l 1,11,-1
 360 445 l 1,12,13
 390 509 390 509 454 532 c 0,14,15
 477 540 477 540 498 540 c 0,16,17
 532 540 532 540 560 535 c 2,18,-1
 585 530 l 1,19,-1
 585 395 l 1,20,-1
 550 395 l 2,21,22
 516 395 516 395 500 365 c 2,23,-1
 450 265 l 1,24,-1
 600 0 l 1,25,-1
 410 0 l 1,26,-1
 300 200 l 1,4,-1
EndSplineSet
EndChar

StartChar: afii10110
Encoding: 1118 1118 387
Width: 570
GlyphClass: 2
Flags: W
LayerCount: 2
Fore
SplineSet
240 570 m 2,0,1
 110 570 110 570 110 700 c 2,2,-1
 110 730 l 1,3,-1
 240 730 l 1,4,-1
 240 705 l 2,5,6
 240 690 240 690 250 680 c 128,-1,7
 260 670 260 670 275 670 c 2,8,-1
 305 670 l 2,9,10
 320 670 320 670 330 680 c 128,-1,11
 340 690 340 690 340 705 c 2,12,-1
 340 730 l 1,13,-1
 470 730 l 1,14,-1
 470 700 l 2,15,16
 470 570 470 570 340 570 c 2,17,-1
 240 570 l 2,0,1
190 -180 m 0,18,19
 137 -180 137 -180 60 -170 c 1,20,-1
 60 -40 l 1,21,-1
 150 -40 l 2,22,23
 188 -40 188 -40 199.5 -19 c 128,-1,24
 211 2 211 2 195 40 c 2,25,-1
 -10 530 l 1,26,-1
 175 530 l 1,27,-1
 300 190 l 1,28,-1
 405 530 l 1,29,-1
 590 530 l 1,30,-1
 390 -20 l 2,31,32
 361 -99 361 -99 315 -139.5 c 128,-1,33
 269 -180 269 -180 190 -180 c 0,18,19
EndSplineSet
EndChar

StartChar: afii10193
Encoding: 1119 1119 388
Width: 630
GlyphClass: 2
Flags: W
LayerCount: 2
Fore
SplineSet
50 0 m 1,0,-1
 50 530 l 1,1,-1
 225 530 l 1,2,-1
 225 135 l 1,3,-1
 405 135 l 1,4,-1
 405 530 l 1,5,-1
 580 530 l 1,6,-1
 580 0 l 1,7,-1
 405 0 l 1,8,-1
 395 -120 l 1,9,-1
 235 -120 l 1,10,-1
 225 0 l 1,11,-1
 50 0 l 1,0,-1
EndSplineSet
EndChar

StartChar: afii10050
Encoding: 1168 1168 389
Width: 615
GlyphClass: 2
Flags: W
LayerCount: 2
Fore
SplineSet
240 560 m 1,0,-1
 240 0 l 1,1,-1
 60 0 l 1,2,-1
 60 700 l 1,3,-1
 435 700 l 1,4,-1
 445 800 l 1,5,-1
 605 800 l 1,6,-1
 605 560 l 1,7,-1
 240 560 l 1,0,-1
EndSplineSet
EndChar

StartChar: afii10098
Encoding: 1169 1169 390
Width: 490
GlyphClass: 2
Flags: W
LayerCount: 2
Fore
SplineSet
315 530 m 1,0,-1
 325 620 l 1,1,-1
 480 620 l 1,2,-1
 480 395 l 1,3,-1
 226 395 l 1,4,-1
 226 0 l 1,5,-1
 50 0 l 1,6,-1
 50 530 l 1,7,-1
 315 530 l 1,0,-1
EndSplineSet
EndChar

StartChar: endash
Encoding: 8211 8211 391
Width: 630
GlyphClass: 2
Flags: W
LayerCount: 2
Fore
SplineSet
30 285 m 1,0,-1
 30 415 l 1,1,-1
 600 415 l 1,2,-1
 600 285 l 1,3,-1
 30 285 l 1,0,-1
EndSplineSet
EndChar

StartChar: emdash
Encoding: 8212 8212 392
Width: 800
GlyphClass: 2
Flags: W
LayerCount: 2
Fore
SplineSet
30 285 m 1,0,-1
 30 415 l 1,1,-1
 770 415 l 1,2,-1
 770 285 l 1,3,-1
 30 285 l 1,0,-1
EndSplineSet
EndChar

StartChar: quoteleft
Encoding: 8216 8216 393
Width: 240
GlyphClass: 2
Flags: W
LayerCount: 2
Fore
SplineSet
210 450 m 1,0,-1
 30 450 l 1,1,-1
 30 590 l 1,2,-1
 100 700 l 1,3,-1
 190 700 l 1,4,-1
 150 600 l 1,5,-1
 210 600 l 1,6,-1
 210 450 l 1,0,-1
EndSplineSet
EndChar

StartChar: quoteright
Encoding: 8217 8217 394
Width: 240
GlyphClass: 2
Flags: W
LayerCount: 2
Fore
SplineSet
30 700 m 1,0,-1
 210 700 l 1,1,-1
 210 560 l 1,2,-1
 140 450 l 1,3,-1
 50 450 l 1,4,-1
 90 550 l 1,5,-1
 30 550 l 1,6,-1
 30 700 l 1,0,-1
EndSplineSet
EndChar

StartChar: quotesinglbase
Encoding: 8218 8218 395
Width: 240
GlyphClass: 2
Flags: W
LayerCount: 2
Fore
SplineSet
30 150 m 1,0,-1
 210 150 l 1,1,-1
 210 10 l 1,2,-1
 140 -100 l 1,3,-1
 50 -100 l 1,4,-1
 90 0 l 1,5,-1
 30 0 l 1,6,-1
 30 150 l 1,0,-1
EndSplineSet
EndChar

StartChar: quotedblleft
Encoding: 8220 8220 396
Width: 460
GlyphClass: 2
Flags: W
LayerCount: 2
Fore
SplineSet
430 450 m 1,0,-1
 250 450 l 1,1,-1
 250 590 l 1,2,-1
 320 700 l 1,3,-1
 410 700 l 1,4,-1
 370 600 l 1,5,-1
 430 600 l 1,6,-1
 430 450 l 1,0,-1
210 450 m 1,7,-1
 30 450 l 1,8,-1
 30 590 l 1,9,-1
 100 700 l 1,10,-1
 190 700 l 1,11,-1
 150 600 l 1,12,-1
 210 600 l 1,13,-1
 210 450 l 1,7,-1
EndSplineSet
EndChar

StartChar: quotedblright
Encoding: 8221 8221 397
Width: 460
GlyphClass: 2
Flags: W
LayerCount: 2
Fore
SplineSet
30 700 m 1,0,-1
 210 700 l 1,1,-1
 210 560 l 1,2,-1
 140 450 l 1,3,-1
 50 450 l 1,4,-1
 90 550 l 1,5,-1
 30 550 l 1,6,-1
 30 700 l 1,0,-1
250 700 m 1,7,-1
 430 700 l 1,8,-1
 430 560 l 1,9,-1
 360 450 l 1,10,-1
 270 450 l 1,11,-1
 310 550 l 1,12,-1
 250 550 l 1,13,-1
 250 700 l 1,7,-1
EndSplineSet
EndChar

StartChar: quotedblbase
Encoding: 8222 8222 398
Width: 460
GlyphClass: 2
Flags: W
LayerCount: 2
Fore
SplineSet
30 150 m 1,0,-1
 210 150 l 1,1,-1
 210 10 l 1,2,-1
 140 -100 l 1,3,-1
 50 -100 l 1,4,-1
 90 0 l 1,5,-1
 30 0 l 1,6,-1
 30 150 l 1,0,-1
250 150 m 1,7,-1
 430 150 l 1,8,-1
 430 10 l 1,9,-1
 360 -100 l 1,10,-1
 270 -100 l 1,11,-1
 310 0 l 1,12,-1
 250 0 l 1,13,-1
 250 150 l 1,7,-1
EndSplineSet
EndChar

StartChar: dagger
Encoding: 8224 8224 399
Width: 590
GlyphClass: 2
Flags: W
LayerCount: 2
Fore
SplineSet
570 480 m 1,0,-1
 570 340 l 1,1,-1
 390 340 l 1,2,-1
 390 -170 l 1,3,-1
 210 -170 l 1,4,-1
 210 340 l 1,5,-1
 20 340 l 1,6,-1
 20 480 l 1,7,-1
 210 480 l 1,8,-1
 210 700 l 1,9,-1
 390 700 l 1,10,-1
 390 480 l 1,11,-1
 570 480 l 1,0,-1
EndSplineSet
EndChar

StartChar: daggerdbl
Encoding: 8225 8225 400
Width: 570
GlyphClass: 2
Flags: W
LayerCount: 2
Fore
SplineSet
380 10 m 1,0,-1
 380 -170 l 1,1,-1
 200 -170 l 1,2,-1
 200 10 l 1,3,-1
 20 10 l 1,4,-1
 20 150 l 1,5,-1
 200 150 l 1,6,-1
 200 380 l 1,7,-1
 20 380 l 1,8,-1
 20 520 l 1,9,-1
 200 520 l 1,10,-1
 200 700 l 1,11,-1
 380 700 l 1,12,-1
 380 520 l 1,13,-1
 550 520 l 1,14,-1
 550 380 l 1,15,-1
 380 380 l 1,16,-1
 380 150 l 1,17,-1
 550 150 l 1,18,-1
 550 10 l 1,19,-1
 380 10 l 1,0,-1
EndSplineSet
EndChar

StartChar: bullet
Encoding: 8226 8226 401
Width: 360
GlyphClass: 2
Flags: W
LayerCount: 2
Fore
SplineSet
200 480 m 2,0,1
 249 480 249 480 279.5 449.5 c 128,-1,2
 310 419 310 419 310 370 c 2,3,-1
 310 330 l 2,4,5
 310 281 310 281 279.5 250.5 c 128,-1,6
 249 220 249 220 200 220 c 2,7,-1
 160 220 l 2,8,9
 111 220 111 220 80.5 250.5 c 128,-1,10
 50 281 50 281 50 330 c 2,11,-1
 50 370 l 2,12,13
 50 419 50 419 80.5 449.5 c 128,-1,14
 111 480 111 480 160 480 c 2,15,-1
 200 480 l 2,0,1
EndSplineSet
EndChar

StartChar: ellipsis
Encoding: 8230 8230 402
Width: 720
GlyphClass: 2
Flags: W
LayerCount: 2
Fore
SplineSet
30 150 m 1,0,-1
 210 150 l 1,1,-1
 210 0 l 1,2,-1
 30 0 l 1,3,-1
 30 150 l 1,0,-1
270 150 m 1,4,-1
 450 150 l 1,5,-1
 450 0 l 1,6,-1
 270 0 l 1,7,-1
 270 150 l 1,4,-1
510 150 m 1,8,-1
 690 150 l 1,9,-1
 690 0 l 1,10,-1
 510 0 l 1,11,-1
 510 150 l 1,8,-1
EndSplineSet
EndChar

StartChar: perthousand
Encoding: 8240 8240 403
Width: 1230
GlyphClass: 2
Flags: W
LayerCount: 2
Fore
SplineSet
150 0 m 1,0,-1
 550 700 l 1,1,-1
 700 700 l 1,2,-1
 310 0 l 1,3,-1
 150 0 l 1,0,-1
360 465 m 2,4,5
 360 405 360 405 327.5 372.5 c 128,-1,6
 295 340 295 340 235 340 c 2,7,-1
 145 340 l 2,8,9
 85 340 85 340 52.5 372.5 c 128,-1,10
 20 405 20 405 20 465 c 2,11,-1
 20 585 l 2,12,13
 20 645 20 645 52.5 677.5 c 128,-1,14
 85 710 85 710 145 710 c 2,15,-1
 235 710 l 2,16,17
 295 710 295 710 327.5 677.5 c 128,-1,18
 360 645 360 645 360 585 c 2,19,-1
 360 465 l 2,4,5
240 585 m 2,20,21
 240 620 240 620 205 620 c 2,22,-1
 175 620 l 2,23,24
 140 620 140 620 140 585 c 2,25,-1
 140 465 l 2,26,27
 140 430 140 430 175 430 c 2,28,-1
 205 430 l 2,29,30
 240 430 240 430 240 465 c 2,31,-1
 240 585 l 2,20,21
840 115 m 2,32,33
 840 55 840 55 807.5 22.5 c 128,-1,34
 775 -10 775 -10 715 -10 c 2,35,-1
 625 -10 l 2,36,37
 565 -10 565 -10 532.5 22.5 c 128,-1,38
 500 55 500 55 500 115 c 2,39,-1
 500 235 l 2,40,41
 500 295 500 295 532.5 327.5 c 128,-1,42
 565 360 565 360 625 360 c 2,43,-1
 715 360 l 2,44,45
 775 360 775 360 807.5 327.5 c 128,-1,46
 840 295 840 295 840 235 c 2,47,-1
 840 115 l 2,32,33
720 235 m 2,48,49
 720 270 720 270 685 270 c 2,50,-1
 655 270 l 2,51,52
 620 270 620 270 620 235 c 2,53,-1
 620 115 l 2,54,55
 620 80 620 80 655 80 c 2,56,-1
 685 80 l 2,57,58
 720 80 720 80 720 115 c 2,59,-1
 720 235 l 2,48,49
1210 115 m 2,60,61
 1210 55 1210 55 1177.5 22.5 c 128,-1,62
 1145 -10 1145 -10 1085 -10 c 2,63,-1
 995 -10 l 2,64,65
 935 -10 935 -10 902.5 22.5 c 128,-1,66
 870 55 870 55 870 115 c 2,67,-1
 870 235 l 2,68,69
 870 295 870 295 902.5 327.5 c 128,-1,70
 935 360 935 360 995 360 c 2,71,-1
 1085 360 l 2,72,73
 1145 360 1145 360 1177.5 327.5 c 128,-1,74
 1210 295 1210 295 1210 235 c 2,75,-1
 1210 115 l 2,60,61
1090 235 m 2,76,77
 1090 270 1090 270 1055 270 c 2,78,-1
 1025 270 l 2,79,80
 990 270 990 270 990 235 c 2,81,-1
 990 115 l 2,82,83
 990 80 990 80 1025 80 c 2,84,-1
 1055 80 l 2,85,86
 1090 80 1090 80 1090 115 c 2,87,-1
 1090 235 l 2,76,77
EndSplineSet
EndChar

StartChar: guilsinglleft
Encoding: 8249 8249 404
Width: 361
GlyphClass: 2
Flags: W
LayerCount: 2
Fore
SplineSet
341 90 m 1,0,-1
 240 0 l 1,1,-1
 10 265 l 1,2,-1
 240 530 l 1,3,-1
 341 441 l 1,4,-1
 189 265 l 1,5,-1
 341 90 l 1,0,-1
EndSplineSet
EndChar

StartChar: guilsinglright
Encoding: 8250 8250 405
Width: 361
GlyphClass: 2
Flags: W
LayerCount: 2
Fore
SplineSet
172 265 m 1,0,-1
 20 441 l 1,1,-1
 121 530 l 1,2,-1
 351 265 l 1,3,-1
 121 0 l 1,4,-1
 20 90 l 1,5,-1
 172 265 l 1,0,-1
EndSplineSet
EndChar

StartChar: zerosuperior
Encoding: 8304 8304 406
Width: 380
GlyphClass: 2
Flags: W
LayerCount: 2
Fore
SplineSet
360 465 m 2,0,1
 360 405 360 405 327.5 372.5 c 128,-1,2
 295 340 295 340 235 340 c 2,3,-1
 145 340 l 2,4,5
 85 340 85 340 52.5 372.5 c 128,-1,6
 20 405 20 405 20 465 c 2,7,-1
 20 585 l 2,8,9
 20 645 20 645 52.5 677.5 c 128,-1,10
 85 710 85 710 145 710 c 2,11,-1
 235 710 l 2,12,13
 295 710 295 710 327.5 677.5 c 128,-1,14
 360 645 360 645 360 585 c 2,15,-1
 360 465 l 2,0,1
240 585 m 2,16,17
 240 620 240 620 205 620 c 2,18,-1
 175 620 l 2,19,20
 140 620 140 620 140 585 c 2,21,-1
 140 465 l 2,22,23
 140 430 140 430 175 430 c 2,24,-1
 205 430 l 2,25,26
 240 430 240 430 240 465 c 2,27,-1
 240 585 l 2,16,17
EndSplineSet
EndChar

StartChar: foursuperior
Encoding: 8308 8308 407
Width: 360
GlyphClass: 2
Flags: W
LayerCount: 2
Fore
SplineSet
205 415 m 1,0,-1
 10 415 l 1,1,-1
 10 505 l 1,2,-1
 125 710 l 1,3,-1
 250 710 l 1,4,-1
 135 505 l 1,5,-1
 205 505 l 1,6,-1
 205 570 l 1,7,-1
 315 570 l 1,8,-1
 315 505 l 1,9,-1
 350 505 l 1,10,-1
 350 415 l 1,11,-1
 315 415 l 1,12,-1
 315 340 l 1,13,-1
 205 340 l 1,14,-1
 205 415 l 1,0,-1
EndSplineSet
EndChar

StartChar: Euro
Encoding: 8364 8364 408
Width: 660
GlyphClass: 2
Flags: W
LayerCount: 2
Fore
SplineSet
640 10 m 1,0,1
 417 -10 417 -10 270 -10 c 0,2,3
 172 -10 172 -10 126 36 c 128,-1,4
 80 82 80 82 80 180 c 2,5,-1
 80 220 l 1,6,-1
 10 220 l 1,7,-1
 20 325 l 1,8,-1
 80 325 l 1,9,-1
 80 365 l 1,10,-1
 10 365 l 1,11,-1
 20 470 l 1,12,-1
 80 470 l 1,13,-1
 80 500 l 2,14,15
 80 605 80 605 127.5 652.5 c 128,-1,16
 175 700 175 700 280 700 c 2,17,-1
 640 700 l 1,18,-1
 640 560 l 1,19,-1
 320 560 l 2,20,21
 260 560 260 560 260 500 c 2,22,-1
 260 470 l 1,23,-1
 500 470 l 1,24,-1
 500 365 l 1,25,-1
 260 365 l 1,26,-1
 260 325 l 1,27,-1
 500 325 l 1,28,-1
 500 220 l 1,29,-1
 260 220 l 1,30,-1
 260 180 l 2,31,32
 260 157 260 157 273.5 143.5 c 128,-1,33
 287 130 287 130 308 130 c 128,-1,34
 329 130 329 130 354 130.5 c 128,-1,35
 379 131 379 131 406 132 c 128,-1,36
 433 133 433 133 460.5 134 c 128,-1,37
 488 135 488 135 531.5 138 c 128,-1,38
 575 141 575 141 640 145 c 1,39,-1
 640 10 l 1,0,1
EndSplineSet
EndChar

StartChar: afii61352
Encoding: 8470 8470 409
Width: 1110
GlyphClass: 2
Flags: W
LayerCount: 2
Fore
SplineSet
750 300 m 1,0,-1
 1050 300 l 1,1,-1
 1050 200 l 1,2,-1
 750 200 l 1,3,-1
 750 300 l 1,0,-1
670 0 m 1,4,-1
 480 0 l 1,5,-1
 240 420 l 1,6,-1
 240 0 l 1,7,-1
 60 0 l 1,8,-1
 60 700 l 1,9,-1
 250 700 l 1,10,-1
 490 280 l 1,11,-1
 490 700 l 1,12,-1
 670 700 l 1,13,-1
 670 0 l 1,4,-1
1070 465 m 2,14,15
 1070 405 1070 405 1037.5 372.5 c 128,-1,16
 1005 340 1005 340 945 340 c 2,17,-1
 855 340 l 2,18,19
 795 340 795 340 762.5 372.5 c 128,-1,20
 730 405 730 405 730 465 c 2,21,-1
 730 585 l 2,22,23
 730 645 730 645 762.5 677.5 c 128,-1,24
 795 710 795 710 855 710 c 2,25,-1
 945 710 l 2,26,27
 1005 710 1005 710 1037.5 677.5 c 128,-1,28
 1070 645 1070 645 1070 585 c 2,29,-1
 1070 465 l 2,14,15
950 585 m 2,30,31
 950 620 950 620 915 620 c 2,32,-1
 885 620 l 2,33,34
 850 620 850 620 850 585 c 2,35,-1
 850 465 l 2,36,37
 850 430 850 430 885 430 c 2,38,-1
 915 430 l 2,39,40
 950 430 950 430 950 465 c 2,41,-1
 950 585 l 2,30,31
EndSplineSet
EndChar

StartChar: trademark
Encoding: 8482 8482 410
Width: 930
GlyphClass: 2
Flags: W
LayerCount: 2
Fore
SplineSet
260 610 m 1,0,-1
 260 330 l 1,1,-1
 130 330 l 1,2,-1
 130 610 l 1,3,-1
 10 610 l 1,4,-1
 10 700 l 1,5,-1
 380 700 l 1,6,-1
 380 610 l 1,7,-1
 260 610 l 1,0,-1
600 400 m 1,8,-1
 540 510 l 1,9,-1
 540 330 l 1,10,-1
 410 330 l 1,11,-1
 410 700 l 1,12,-1
 540 700 l 1,13,-1
 650 500 l 1,14,-1
 760 700 l 1,15,-1
 890 700 l 1,16,-1
 890 330 l 1,17,-1
 760 330 l 1,18,-1
 760 510 l 1,19,-1
 700 400 l 1,20,-1
 600 400 l 1,8,-1
EndSplineSet
EndChar

StartChar: commaaccent
Encoding: 65539 -1 411
Width: 170
GlyphClass: 2
Flags: W
LayerCount: 2
Fore
SplineSet
0 -30 m 1,0,-1
 170 -30 l 1,1,-1
 170 -160 l 1,2,-1
 100 -270 l 1,3,-1
 20 -270 l 1,4,-1
 60 -170 l 1,5,-1
 0 -170 l 1,6,-1
 0 -30 l 1,0,-1
EndSplineSet
EndChar

StartChar: .ttfautohint
Encoding: 65540 -1 412
Width: 620
GlyphClass: 2
Flags: W
LayerCount: 2
Fore
SplineSet
0 0 m 0,0,-1
EndSplineSet
EndChar
